<?xml version="1.0" encoding="UTF-8"?>
<svg version="1.1" xmlns="http://www.w3.org/2000/svg" width="189" height="197">
<path d="M0 0 C2.5517697 -0.2668855 4.86467193 -0.34868275 7.4140625 -0.29296875 C8.38412231 -0.28843689 8.38412231 -0.28843689 9.3737793 -0.28381348 C11.79101506 -0.26810979 14.20802345 -0.22622554 16.625 -0.1875 C22.02875 -0.125625 27.4325 -0.06375 33 0 C33 11.55 33 23.1 33 35 C37.27541748 34.97905273 41.55083496 34.95810547 45.95581055 34.93652344 C60.06531413 34.870311 74.17482373 34.82588391 88.28444195 34.79275131 C96.84099431 34.7721246 105.39739951 34.744002 113.95385742 34.69824219 C121.41153191 34.65837766 128.86909982 34.63256798 136.32687789 34.62364602 C140.27589569 34.61843058 144.22460858 34.60617045 148.17352867 34.57707977 C151.89095149 34.54991652 155.60794399 34.54155669 159.32545662 34.54756927 C161.33915826 34.54594526 163.35281311 34.5244272 165.36639404 34.50231934 C166.56807724 34.50781799 167.76976044 34.51331665 169.00785828 34.51898193 C170.57168007 34.51345118 170.57168007 34.51345118 172.16709423 34.50780869 C175.73605198 35.12788226 177.40994937 36.52010364 180 39 C182.70063081 44.40126162 180.87443012 52.35702407 180.14550781 58.19433594 C180.05439728 58.95815079 179.96328674 59.72196564 179.86941528 60.50892639 C179.57009925 63.00152917 179.26238644 65.49298781 178.953125 67.984375 C178.73850143 69.73073279 178.52388154 71.47709103 178.30926514 73.22344971 C177.85956086 76.86842697 177.40475173 80.51273013 176.94726562 84.15673828 C176.36285105 88.82093778 175.7990879 93.48739175 175.24003983 98.15468979 C174.80504577 101.75578794 174.35522712 105.35492232 173.90132904 108.95368195 C173.68694661 110.67375645 173.4780712 112.39452684 173.27487946 114.11595917 C172.98958055 116.52064652 172.68341619 118.92180779 172.37207031 121.32324219 C172.29294403 122.02983475 172.21381775 122.73642731 172.1322937 123.46443176 C171.50898464 128.04387314 170.22994886 130.70121981 167 134 C164.42520613 135.28739693 162.6032876 135.11890287 159.71943665 135.1111145 C158.59930679 135.1107872 157.47917694 135.1104599 156.32510376 135.11012268 C155.09029266 135.10488083 153.85548157 135.09963898 152.58325195 135.09423828 C150.59376045 135.09217445 148.60426889 135.09012237 146.61477697 135.08851123 C144.47192725 135.08615655 142.32908883 135.08166124 140.18624306 135.07696915 C135.71887352 135.0685723 131.25159011 135.07399429 126.78422546 135.08297729 C125.65348279 135.0851838 125.65348279 135.0851838 124.49989682 135.08743489 C122.95814822 135.09050578 121.41639972 135.09362581 119.87465131 135.09679389 C109.47273373 135.11797851 99.07109588 135.13171205 88.66918945 135.09960938 C81.65518267 135.07806279 74.6416693 135.08125278 67.62769479 135.11301792 C63.91654552 135.12885543 60.20633945 135.13213766 56.49523354 135.10525894 C52.35072408 135.07550627 48.20823481 135.10026875 44.0637207 135.12939453 C42.83903076 135.11200729 41.61434082 135.09462006 40.35253906 135.07670593 C34.80048701 135.15792205 31.02928587 135.24726005 26.93351746 139.24191284 C25.91754674 140.46388644 24.9414673 141.71974405 24 143 C22.66836302 144.66802233 21.33537598 146.3349695 20 148 C20.78060193 147.99815641 21.56120386 147.99631283 22.3654604 147.99441338 C41.34349042 147.95027921 60.32151022 147.91716531 79.29958057 147.89637566 C88.47716424 147.88605518 97.65471369 147.87198015 106.83227539 147.84912109 C114.82975893 147.82921079 122.82721769 147.81628917 130.82472533 147.81182301 C135.06085793 147.80921162 139.29691964 147.80305778 143.53302956 147.78853989 C147.51793204 147.77499322 151.50273423 147.77077143 155.48765755 147.77378464 C156.95221755 147.77323316 158.41678082 147.76923836 159.88132095 147.76158905 C161.87709901 147.75167397 163.87293054 147.75521444 165.86872864 147.75949097 C166.98686353 147.75764738 168.10499842 147.75580379 169.25701618 147.75390434 C172 148 172 148 175 150 C175.1875 152.625 175.1875 152.625 175 155 C172.29120665 156.35439668 169.99066732 156.06501451 167 156 C167.495 156.94875 167.99 157.8975 168.5 158.875 C170.75156148 164.20764562 171.01867124 169.69651249 169.30859375 175.2421875 C166.7348186 180.94972235 163.14544977 184.1651543 157.75 187.3125 C152.23741982 188.69064504 146.41870644 189.11374134 141.25 186.4375 C136.65570583 183.38915316 132.74938118 179.24814354 131 174 C130.85542612 172.25399231 130.77935872 170.501737 130.75 168.75 C130.71132813 167.38101563 130.71132813 167.38101563 130.671875 165.984375 C131 163 131 163 134 156 C111.23 156.33 88.46 156.66 65 157 C65.99 159.97 66.98 162.94 68 166 C67.91073957 172.60527177 66.79937542 176.61755149 63 182 C57.64412798 187.08121191 52.82062332 188.47857206 45.56640625 188.31640625 C40.30082664 187.6672252 36.49656754 185.415672 32.6875 181.8125 C29.01162827 175.68604712 27.51261979 170.26038356 28.3828125 163.140625 C29 161 29 161 32 156 C22.76 156.33 13.52 156.66 4 157 C4 152.4568542 4.32546902 152.16880102 7.32421875 149.1015625 C8.02353516 148.37453125 8.72285156 147.6475 9.44335938 146.8984375 C10.18392578 146.14820313 10.92449219 145.39796875 11.6875 144.625 C13.13043885 143.13950799 14.57187691 141.65255653 16.01171875 140.1640625 C16.65584717 139.50873535 17.29997559 138.8534082 17.96362305 138.17822266 C18.63562744 137.45940918 19.30763184 136.7405957 20 136 C20.8979126 135.23453857 21.7958252 134.46907715 22.72094727 133.68041992 C26.86044704 128.59443032 25.58006902 121.15363189 25.453125 114.94921875 C25.44086505 113.4306558 25.43100987 111.91207177 25.42340088 110.39347839 C25.40292411 107.16538633 25.36757404 103.93795073 25.32006836 100.71014404 C25.24647985 95.6800693 25.20585974 90.65012181 25.17382812 85.61962891 C25.16848557 84.78610271 25.16314301 83.95257652 25.15763855 83.09379196 C25.14695281 81.41039868 25.13639867 79.72700455 25.12597656 78.04360962 C25.10936054 75.51733221 25.08962588 72.99109408 25.06933594 70.46484375 C24.95929468 55.92731645 25.14688143 41.40914131 25.5 26.875 C25.52437134 25.83362885 25.54874268 24.79225769 25.57385254 23.71932983 C25.70485067 18.14582817 25.84981136 12.57307127 26 7 C17.42 7 8.84 7 0 7 C-0.66 5.68 -1.32 4.36 -2 3 C-1.34 2.01 -0.68 1.02 0 0 Z M33 43 C32.89958543 45.61150288 32.86382943 48.19658365 32.87060547 50.80859375 C32.86885315 51.62643341 32.86710083 52.44427307 32.86529541 53.28689575 C32.86087615 56.0037851 32.86381514 58.72060993 32.8671875 61.4375 C32.86651448 63.31697604 32.86554447 65.19645199 32.86428833 67.07592773 C32.86281126 71.02035346 32.86496621 74.96475658 32.86962891 78.90917969 C32.8753262 83.97712503 32.87204724 89.04501742 32.86605644 94.11296082 C32.86245108 97.99556887 32.8635893 101.87816428 32.86618423 105.76077271 C32.86685357 107.62997443 32.86602484 109.49917728 32.86370468 111.36837769 C32.86117857 113.97608504 32.86501816 116.58370541 32.87060547 119.19140625 C32.86858124 119.97170197 32.86655701 120.75199768 32.86447144 121.55593872 C32.55527942 125.07077192 32.55527942 125.07077192 34 128 C35.65294026 128.10046143 37.31018355 128.1307617 38.96617126 128.13371277 C40.57941536 128.14011024 40.57941536 128.14011024 42.22525024 128.14663696 C43.41540741 128.14618378 44.60556458 128.14573059 45.83178711 128.14526367 C47.07717758 128.14862228 48.32256805 128.1519809 49.60569763 128.15544128 C53.03130184 128.16333729 56.45684546 128.16662024 59.88245463 128.16725707 C62.73796116 128.16820453 65.59346181 128.17188095 68.44896609 128.17542917 C75.18367245 128.1835814 81.91836544 128.1860127 88.65307617 128.18530273 C95.60984159 128.18470175 102.56652951 128.19525582 109.52327532 128.2110464 C115.4876123 128.22410402 121.45192391 128.22948738 127.41627508 128.22884732 C130.98222006 128.22859181 134.54809622 128.23147232 138.11402702 128.24202538 C142.08898854 128.25346702 146.06384302 128.24897045 150.03881836 128.24291992 C151.82101776 128.25134918 151.82101776 128.25134918 153.63922119 128.25994873 C154.71753708 128.25575424 155.79585297 128.25155975 156.90684509 128.24723816 C158.31800551 128.24805531 158.31800551 128.24805531 159.75767422 128.24888897 C162.20264371 128.2138789 162.20264371 128.2138789 164 126 C164.48549131 123.48245993 164.8569076 121.03341 165.16088867 118.49267578 C165.26032272 117.71852325 165.35975677 116.94437073 165.46220398 116.14675903 C165.78941311 113.58061701 166.10401291 111.01310719 166.41796875 108.4453125 C166.64116833 106.66406595 166.8649152 104.88288791 167.08918762 103.10177612 C167.55775048 99.36490156 168.02018516 95.62733306 168.47827148 91.88916016 C169.06593249 87.09702502 169.6678341 82.30681016 170.27424145 77.51701546 C170.73864065 73.83741729 171.19588799 70.15695795 171.65093422 66.47619247 C171.87011804 64.70968283 172.09143086 62.94343601 172.31490135 61.17746353 C172.62623678 58.70783746 172.92803405 56.23722759 173.22729492 53.76611328 C173.32125549 53.03557739 173.41521606 52.3050415 173.51202393 51.55236816 C173.92373905 48.06933558 173.97163023 45.357649 173 42 C154.89392384 41.97667185 136.78785157 41.95902124 118.68176365 41.94818783 C110.27538616 41.94302469 101.86901799 41.93598166 93.46264648 41.92456055 C86.13832068 41.91461425 78.81400163 41.9081467 71.48966926 41.90591151 C67.60909213 41.90460431 63.7285343 41.90151788 59.84796333 41.89426994 C56.19960443 41.88751058 52.55127289 41.88538287 48.90290833 41.88689232 C46.91711581 41.88648363 44.9313263 41.881088 42.94554138 41.87557983 C41.18912827 41.87764183 41.18912827 41.87764183 39.39723206 41.87974548 C38.37312005 41.87882369 37.34900805 41.8779019 36.29386234 41.87695217 C34.03535906 41.7419025 34.03535906 41.7419025 33 43 Z M37.125 161.75 C35.42667312 165.14665376 35.37106473 168.33238872 36 172 C37.82907489 175.72849882 39.39869136 177.58576516 42.8125 179.9375 C46.80019639 181.26673213 48.96000155 181.15428527 53 180 C56.83476727 177.53996062 58.64503215 175.76673057 60.5625 171.625 C61.1123503 167.06909747 60.30449923 164.93995029 58 161 C54.87945476 158.10778734 52.5099211 156.17158194 48.25 155.6875 C43.39657332 156.15417564 40.61452364 158.49311127 37.125 161.75 Z M139.0625 162.1875 C137.50540828 166.30921338 137.74132045 169.79677314 139 174 C141.48910273 177.16183319 144.07603293 179.87886655 148 181 C152.06223573 181.06551993 154.58789143 181.10539251 157.81640625 178.578125 C161.07659879 175.02726469 163.10348381 171.96722274 163 167 C161.79907218 162.64663665 160.50184777 159.95598208 156.6875 157.5625 C149.42887975 154.03993429 144.27003973 156.30801966 139.0625 162.1875 Z " fill="#F0945E" transform="translate(4,5)"/>
<path d="M0 0 C1.31322739 -0.00335861 2.62645477 -0.00671722 3.97947693 -0.01017761 C7.55548237 -0.01895091 11.13146384 -0.02135266 14.707479 -0.0219934 C16.94330561 -0.02270677 19.17912621 -0.02484634 21.41495132 -0.02749062 C29.21853266 -0.03671619 37.02209699 -0.04082829 44.82568359 -0.04003906 C52.09728711 -0.03943639 59.36881689 -0.05003226 66.64040172 -0.06578273 C72.89281115 -0.07884283 79.14519639 -0.08422373 85.39761937 -0.08358365 C89.12835553 -0.08332857 92.85902583 -0.08618681 96.58974838 -0.0967617 C100.74087373 -0.10821032 104.89183205 -0.10370539 109.04296875 -0.09765625 C110.89910545 -0.10608551 110.89910545 -0.10608551 112.79273987 -0.11468506 C114.48328239 -0.10839333 114.48328239 -0.10839333 116.20797729 -0.10197449 C117.18905897 -0.10251925 118.17014065 -0.10306402 119.18095207 -0.1036253 C121.63330078 0.14526367 121.63330078 0.14526367 124.63330078 2.14526367 C124.82080078 4.77026367 124.82080078 4.77026367 124.63330078 7.14526367 C121.92450743 8.49966035 119.6239681 8.21027818 116.63330078 8.14526367 C117.12830078 9.09401367 117.62330078 10.04276367 118.13330078 11.02026367 C120.38486227 16.35290929 120.65197202 21.84177616 118.94189453 27.38745117 C116.36811938 33.09498602 112.77875055 36.31041797 107.38330078 39.45776367 C101.87072061 40.83590872 96.05200722 41.25900501 90.88330078 38.58276367 C86.28900661 35.53441683 82.38268196 31.39340722 80.63330078 26.14526367 C80.4887269 24.39925599 80.4126595 22.64700067 80.38330078 20.89526367 C80.35751953 19.98260742 80.33173828 19.06995117 80.30517578 18.12963867 C80.63330078 15.14526367 80.63330078 15.14526367 83.63330078 8.14526367 C60.86330078 8.47526367 38.09330078 8.80526367 14.63330078 9.14526367 C15.62330078 12.11526367 16.61330078 15.08526367 17.63330078 18.14526367 C17.54404035 24.75053544 16.4326762 28.76281516 12.63330078 34.14526367 C7.27742876 39.22647558 2.4539241 40.62383573 -4.80029297 40.46166992 C-10.06587258 39.81248887 -13.87013168 37.56093567 -17.67919922 33.95776367 C-21.3363519 27.8625092 -23.00156188 22.32429979 -21.89404297 15.23120117 C-21.14816081 12.28082286 -19.90700299 9.75708311 -18.36669922 7.14526367 C-19.68669922 7.14526367 -21.00669922 7.14526367 -22.36669922 7.14526367 C-22.36669922 5.16526367 -22.36669922 3.18526367 -22.36669922 1.14526367 C-14.88535577 0.14303491 -7.54246389 -0.00278968 0 0 Z M-13.24169922 13.89526367 C-14.9400261 17.29191744 -14.99563449 20.47765239 -14.36669922 24.14526367 C-12.53762433 27.87376249 -10.96800786 29.73102883 -7.55419922 32.08276367 C-3.56650283 33.4119958 -1.40669767 33.29954894 2.63330078 32.14526367 C6.46806805 29.68522429 8.27833293 27.91199424 10.19580078 23.77026367 C10.74565109 19.21436115 9.93780001 17.08521396 7.63330078 13.14526367 C4.51275554 10.25305101 2.14322188 8.31684561 -2.11669922 7.83276367 C-6.9701259 8.29943931 -9.75217558 10.63837494 -13.24169922 13.89526367 Z M88.69580078 14.33276367 C87.13870906 18.45447705 87.37462123 21.94203681 88.63330078 26.14526367 C91.12240351 29.30709687 93.70933371 32.02413022 97.63330078 33.14526367 C101.69553651 33.2107836 104.22119221 33.25065618 107.44970703 30.72338867 C110.70989957 27.17252836 112.73678459 24.11248641 112.63330078 19.14526367 C111.43237296 14.79190032 110.13514855 12.10124575 106.32080078 9.70776367 C99.06218053 6.18519796 93.90334051 8.45328333 88.69580078 14.33276367 Z " fill="#FDA74E" transform="translate(54.36669921875,152.854736328125)"/>
<path d="M0 0 C7.6725 -0.1546875 7.6725 -0.1546875 15.5 -0.3125 C17.89668945 -0.38078003 17.89668945 -0.38078003 20.34179688 -0.45043945 C33.01223231 -0.57411184 33.01223231 -0.57411184 38.59204102 3.56323242 C43.53344907 8.60574783 44.62173981 14.5784649 45.05078125 21.43359375 C44.98835964 24.58828602 44.31532406 27.13723587 43 30 C42.34 30 41.68 30 41 30 C40.7525 30.598125 40.505 31.19625 40.25 31.8125 C38.81927475 34.31626919 37.4308418 35.48072388 35 37 C34.34 37 33.68 37 33 37 C33.43570313 37.72703125 33.87140625 38.4540625 34.3203125 39.203125 C46 58.92207792 46 58.92207792 46 64 C40.80494207 64.93244629 35.75772199 65.58749212 31 63 C26.328519 57.58179563 20 47.353336 20 40 C18.02 40 16.04 40 14 40 C14.33 47.59 14.66 55.18 15 63 C10.05 63 5.1 63 0 63 C0 42.21 0 21.42 0 0 Z M14 14 C14 18.29 14 22.58 14 27 C15.7325 27.04125 17.465 27.0825 19.25 27.125 C20.22453125 27.14820313 21.1990625 27.17140625 22.203125 27.1953125 C25.07159723 26.99500019 26.66664052 26.66514568 29 25 C29.91214879 21.14090895 30.26132231 18.78396692 29 15 C24.73840618 12.86920309 18.59236298 13.95497683 14 14 Z " fill="#FAFDFD" transform="translate(61,57)"/>
<path d="M0 0 C10.56 0 21.12 0 32 0 C32.495 6.435 32.495 6.435 33 13 C32 14 32 14 30.14233398 14.11352539 C29.35157471 14.10828857 28.56081543 14.10305176 27.74609375 14.09765625 C26.89208984 14.09443359 26.03808594 14.09121094 25.15820312 14.08789062 C24.26037109 14.07951172 23.36253906 14.07113281 22.4375 14.0625 C21.53580078 14.05798828 20.63410156 14.05347656 19.70507812 14.04882812 C17.47002411 14.03700244 15.23500398 14.01906638 13 14 C13 17.63 13 21.26 13 25 C13.99 24.67 14.98 24.34 16 24 C18.39870613 24.08656565 20.79537281 24.23998491 23.1875 24.4375 C25.09595703 24.59025391 25.09595703 24.59025391 27.04296875 24.74609375 C28.01878906 24.82988281 28.99460938 24.91367188 30 25 C30 29.29 30 33.58 30 38 C27.54203147 38.19436491 25.08390706 38.3807742 22.625 38.5625 C21.57699219 38.64661133 21.57699219 38.64661133 20.5078125 38.73242188 C15.2265625 39.11328125 15.2265625 39.11328125 13 38 C13.33 38.99 13.66 39.98 14 41 C13.87890625 43.26171875 13.87890625 43.26171875 13.5625 45.6875 C13.46066406 46.49574219 13.35882813 47.30398437 13.25390625 48.13671875 C13.17011719 48.75160156 13.08632812 49.36648437 13 50 C14.485 49.505 14.485 49.505 16 49 C17.90112305 48.97827148 17.90112305 48.97827148 20.01171875 49.12109375 C20.76904297 49.16943359 21.52636719 49.21777344 22.30664062 49.26757812 C23.09232422 49.32365234 23.87800781 49.37972656 24.6875 49.4375 C25.48478516 49.48970703 26.28207031 49.54191406 27.10351562 49.59570312 C29.06936522 49.72519022 31.03473665 49.86190041 33 50 C33.495 56.435 33.495 56.435 34 63 C22.78 63 11.56 63 0 63 C0 42.21 0 21.42 0 0 Z " fill="#F8FDFD" transform="translate(115,57)"/>
<path d="M0 0 C2.5517697 -0.2668855 4.86467193 -0.34868275 7.4140625 -0.29296875 C8.38412231 -0.28843689 8.38412231 -0.28843689 9.3737793 -0.28381348 C11.79101506 -0.26810979 14.20802345 -0.22622554 16.625 -0.1875 C22.02875 -0.125625 27.4325 -0.06375 33 0 C33 11.55 33 23.1 33 35 C37.27541748 34.97905273 41.55083496 34.95810547 45.95581055 34.93652344 C60.06531413 34.870311 74.17482373 34.82588391 88.28444195 34.79275131 C96.84099431 34.7721246 105.39739951 34.744002 113.95385742 34.69824219 C121.41153191 34.65837766 128.86909982 34.63256798 136.32687789 34.62364602 C140.27589569 34.61843058 144.22460858 34.60617045 148.17352867 34.57707977 C151.89095149 34.54991652 155.60794399 34.54155669 159.32545662 34.54756927 C161.33915826 34.54594526 163.35281311 34.5244272 165.36639404 34.50231934 C166.56807724 34.50781799 167.76976044 34.51331665 169.00785828 34.51898193 C170.57168007 34.51345118 170.57168007 34.51345118 172.16709423 34.50780869 C175.73605198 35.12788226 177.40994937 36.52010364 180 39 C182.58476417 44.16952834 180.93847483 51.48646037 180 57 C179.67 57 179.34 57 179 57 C179 51.39 179 45.78 179 40 C178.01 40.33 177.02 40.66 176 41 C175.34 45.29 174.68 49.58 174 54 C173.67 54 173.34 54 173 54 C173 50.37 173 46.74 173 43 C127.13 43 81.26 43 34 43 C34 70.72 34 98.44 34 127 C56.70117014 127.02911904 56.70117014 127.02911904 79.40234375 127.04882812 C88.65544181 127.05476927 97.90853079 127.06176583 107.16162109 127.07543945 C113.89961571 127.0853917 120.63760298 127.09185472 127.37560475 127.09408849 C130.94489967 127.09539468 134.51417357 127.09847474 138.08346176 127.10573006 C142.06329499 127.11375463 146.04310746 127.11399079 150.02294922 127.11352539 C151.2126532 127.11712067 152.40235718 127.12071594 153.62811279 127.12442017 C154.70787384 127.1230455 155.78763489 127.12167084 156.90011597 127.12025452 C157.8421884 127.12117631 158.78426083 127.1220981 159.75488091 127.12304783 C162.03693466 127.14719775 162.03693466 127.14719775 164 126 C163.67 126.99 163.34 127.98 163 129 C146.06737796 129.02332869 129.13476092 129.04097903 112.2021265 129.05181217 C104.34055609 129.05697519 96.47899565 129.06401801 88.61743164 129.07543945 C81.76774525 129.0853861 74.91806608 129.09185338 68.06837267 129.09408849 C64.43930604 129.09539563 60.81026006 129.09848169 57.18120003 129.10573006 C53.13649696 129.11374356 49.09183011 129.11399115 45.04711914 129.11352539 C43.22911804 129.1189183 43.22911804 129.1189183 41.37438965 129.12442017 C40.27917496 129.1230455 39.18396027 129.12167084 38.05555725 129.12025452 C36.61894289 129.12163721 36.61894289 129.12163721 35.15330601 129.12304783 C33 129 33 129 32 128 C31.89954947 125.32749933 31.86383351 122.68081419 31.87060547 120.0078125 C31.86885315 119.1704657 31.86710083 118.3331189 31.86529541 117.47039795 C31.86087599 114.68857786 31.8638152 111.90682079 31.8671875 109.125 C31.86651449 107.20068347 31.86554448 105.27636702 31.86428833 103.35205078 C31.86281123 99.31346835 31.86496629 95.274908 31.86962891 91.23632812 C31.8753262 86.04731489 31.87204726 80.85835337 31.86605644 75.66934204 C31.86245114 71.6940878 31.86358927 67.71884591 31.86618423 63.74359131 C31.86685359 61.8297322 31.86602478 59.91587198 31.86370468 58.00201416 C31.86117867 55.3320415 31.86501802 52.6621538 31.87060547 49.9921875 C31.86858124 49.19319031 31.86655701 48.39419312 31.86447144 47.57098389 C31.8857375 42.1142625 31.8857375 42.1142625 33 41 C34.77160318 40.90365541 36.54708408 40.87812519 38.32130432 40.87974548 C39.47541809 40.87837082 40.62953186 40.87699615 41.81861877 40.87557983 C43.73480263 40.88097275 43.73480263 40.88097275 45.68969727 40.88647461 C47.03958128 40.88675648 48.38946544 40.88659875 49.73934937 40.8860321 C53.41480608 40.88574413 57.09023043 40.89164084 60.7656796 40.89860606 C64.60273149 40.90483962 68.43978404 40.9054434 72.27684021 40.90663147 C79.54771218 40.90974478 86.81856919 40.91795817 94.08943456 40.92798096 C102.36499352 40.9391421 110.64055318 40.94465255 118.91611779 40.94967639 C135.94408719 40.96014078 152.97204202 40.97774022 170 41 C170 40.01 170 39.02 170 38 C171.65 38.33 173.3 38.66 175 39 C175 38.34 175 37.68 175 37 C127.81 37 80.62 37 32 37 C32 25.12 32 13.24 32 1 C21.77 1 11.54 1 1 1 C0.67 1.99 0.34 2.98 0 4 C-0.66 3.67 -1.32 3.34 -2 3 C-1.34 2.01 -0.68 1.02 0 0 Z " fill="#D09880" transform="translate(4,5)"/>
<path d="M0 0 C0.87855148 -0.00014603 1.75710297 -0.00029205 2.66227722 -0.0004425 C5.55702205 0.0002524 8.451702 0.00802503 11.34643555 0.01586914 C13.35711126 0.01773482 15.36778742 0.01915802 17.37846375 0.02015686 C22.66384136 0.02397023 27.94919138 0.03379044 33.23455811 0.04486084 C38.63057075 0.05510034 44.02658786 0.05965992 49.42260742 0.06469727 C60.00530182 0.07541376 70.58797576 0.09247602 81.1706543 0.11352539 C81.1706543 0.44352539 81.1706543 0.77352539 81.1706543 1.11352539 C58.4006543 1.44352539 35.6306543 1.77352539 12.1706543 2.11352539 C13.1606543 5.08352539 14.1506543 8.05352539 15.1706543 11.11352539 C15.08139387 17.71879716 13.97002972 21.73107688 10.1706543 27.11352539 C4.81478228 32.1947373 -0.00872238 33.59209745 -7.26293945 33.42993164 C-12.52851907 32.78075059 -16.33277816 30.52919739 -20.1418457 26.92602539 C-23.78551908 20.85323642 -25.51442007 15.2142636 -24.4230957 8.13305664 C-23.55706228 5.18740347 -21.97554428 3.25972397 -19.8293457 1.11352539 C-19.8293457 2.43352539 -19.8293457 3.75352539 -19.8293457 5.11352539 C-20.4893457 5.11352539 -21.1493457 5.11352539 -21.8293457 5.11352539 C-21.1693457 5.77352539 -20.5093457 6.43352539 -19.8293457 7.11352539 C-18.8393457 7.11352539 -17.8493457 7.11352539 -16.8293457 7.11352539 C-16.4993457 5.79352539 -16.1693457 4.47352539 -15.8293457 3.11352539 C-15.1693457 3.11352539 -14.5093457 3.11352539 -13.8293457 3.11352539 C-13.8293457 2.45352539 -13.8293457 1.79352539 -13.8293457 1.11352539 C-9.19920282 -0.05794518 -4.74032006 -0.02069325 0 0 Z M-15.7043457 6.86352539 C-17.40267259 10.26017916 -17.45828097 13.44591411 -16.8293457 17.11352539 C-15.00027081 20.84202421 -13.43065434 22.69929055 -10.0168457 25.05102539 C-6.02914932 26.38025752 -3.86934416 26.26781066 0.1706543 25.11352539 C4.00542156 22.65348601 5.81568644 20.88025596 7.7331543 16.73852539 C8.2830046 12.18262287 7.47515352 10.05347568 5.1706543 6.11352539 C2.05010906 3.22131273 -0.31942461 1.28510733 -4.5793457 0.80102539 C-9.43277238 1.26770103 -12.21482206 3.60663666 -15.7043457 6.86352539 Z " fill="#EB9461" transform="translate(56.829345703125,159.886474609375)"/>
<path d="M0 0 C1.65 0.33 3.3 0.66 5 1 C4.67 3.97 4.34 6.94 4 10 C3.34 10 2.68 10 2 10 C2 11.32 2 12.64 2 14 C-41.89 14 -85.78 14 -131 14 C-130.34 12.68 -129.68 11.36 -129 10 C-66.135 9.505 -66.135 9.505 -2 9 C-1.34 6.03 -0.68 3.06 0 0 Z " fill="#FE904C" transform="translate(169,124)"/>
<path d="M0 0 C44.55 0 89.1 0 135 0 C135 0.66 135 1.32 135 2 C133.35 1.67 131.7 1.34 130 1 C130 1.99 130 2.98 130 4 C87.1 4 44.2 4 0 4 C0 2.68 0 1.36 0 0 Z " fill="#FD904D" transform="translate(44,42)"/>
<path d="M0 0 C3.63 0 7.26 0 11 0 C11 0.33 11 0.66 11 1 C9.02 1 7.04 1 5 1 C5.495 1.94875 5.99 2.8975 6.5 3.875 C8.75156148 9.20764562 9.01867124 14.69651249 7.30859375 20.2421875 C4.7348186 25.94972235 1.14544977 29.1651543 -4.25 32.3125 C-9.76258018 33.69064504 -15.58129356 34.11374134 -20.75 31.4375 C-25.34429417 28.38915316 -29.25061882 24.24814354 -31 19 C-31.51765298 12.65875096 -31.56930669 7.50268114 -28 2 C-27.67 2.66 -27.34 3.32 -27 4 C-23.97065509 4.65772428 -23.97065509 4.65772428 -21 5 C-21.350625 5.639375 -21.70125 6.27875 -22.0625 6.9375 C-23.53280722 11.74050359 -22.98980121 16.53863593 -21.1171875 21.1953125 C-20.05894254 23.2576968 -20.05894254 23.2576968 -17.375 24.3125 C-13.29511434 25.14358782 -9.96710836 25.39583442 -6 24 C-2.9121538 21.17494922 -1.34591918 19.01613759 0 15.0625 C0 10.33414694 -1.58660412 6.62278787 -4.6875 3.0625 C-5.120625 2.711875 -5.55375 2.36125 -6 2 C-4.35 2 -2.7 2 -1 2 C2.76470588 12.08403361 2.76470588 12.08403361 2 17 C0 20.375 0 20.375 -2 23 C-1.34 23.33 -0.68 23.66 0 24 C0 23.34 0 22.68 0 22 C1.32 22.66 2.64 23.32 4 24 C3.95875 23.21625 3.9175 22.4325 3.875 21.625 C4 19 4 19 6 17 C6.50286703 11.06616907 5.82914058 7.23914921 3 2 C2.01 1.34 1.02 0.68 0 0 Z " fill="#EF9260" transform="translate(166,160)"/>
<path d="M0 0 C0 1.65 0 3.3 0 5 C-3.3 5.33 -6.6 5.66 -10 6 C-9.34 7.155 -8.68 8.31 -8 9.5 C-5.53455838 14.47475231 -4.87811299 18.62151741 -6.68359375 24.05859375 C-7.38876713 25.7354893 -8.18645858 27.37291717 -9 29 C-9.99 28.67 -10.98 28.34 -12 28 C-12.33 28.33 -12.66 28.66 -13 29 C-13.99 28.67 -14.98 28.34 -16 28 C-15.319375 27.21625 -14.63875 26.4325 -13.9375 25.625 C-10.98996138 21.25558536 -12.08538573 16.9326633 -13 12 C-13.3270855 10.33209594 -13.65867972 8.66504936 -14 7 C-16.22855574 6.9185778 -18.45797655 6.86061921 -20.6875 6.8125 C-21.92886719 6.77769531 -23.17023438 6.74289063 -24.44921875 6.70703125 C-28.24249864 7.02000814 -29.90787519 7.89563728 -33 10 C-36.3125 10.6875 -36.3125 10.6875 -39 11 C-40.4606285 8.35261084 -41 7.10551666 -41 4 C-40.34 3.67 -39.68 3.34 -39 3 C-38.34786708 0.97536745 -38.34786708 0.97536745 -38 -1 C-33.8559889 -1.16882299 -29.71175936 -1.32924147 -25.56713867 -1.48217773 C-24.15982506 -1.53525651 -22.75259322 -1.59055488 -21.34545898 -1.64819336 C-19.31251659 -1.73106765 -17.2794053 -1.80571996 -15.24609375 -1.87890625 C-13.41582642 -1.94960327 -13.41582642 -1.94960327 -11.54858398 -2.02172852 C-1.96303475 -1.96303475 -1.96303475 -1.96303475 0 0 Z " fill="#FA914C" transform="translate(179,155)"/>
<path d="M0 0 C10.23 0 20.46 0 31 0 C31 10.89 31 21.78 31 33 C30.67 33 30.34 33 30 33 C29.505 20.13 29.505 20.13 29 7 C28.34 7 27.68 7 27 7 C27.350625 7.721875 27.70125 8.44375 28.0625 9.1875 C29.10409017 12.3122705 28.89096572 13.88161996 28 17 C27.34 17 26.68 17 26 17 C26 53.96 26 90.92 26 129 C25.67 129 25.34 129 25 129 C24.79610487 117.68775319 24.60947091 106.37527689 24.4375 95.0625 C24.42476673 94.22552834 24.41203346 93.38855667 24.39891434 92.52622223 C23.96542902 63.65609119 24.0971597 34.86310982 25 6 C16.42 6 7.84 6 -1 6 C-1 2 -1 2 0 0 Z " fill="#DF8F67" transform="translate(5,6)"/>
<path d="M0 0 C0.33 1.32 0.66 2.64 1 4 C0.34 4 -0.32 4 -1 4 C-0.34 4.66 0.32 5.32 1 6 C2.32 6 3.64 6 5 6 C4.93039063 6.97839844 4.93039063 6.97839844 4.859375 7.9765625 C4.67334025 12.48126111 4.69747176 15.37253402 6.6875 19.5 C9.17996978 22.19456193 10.42518519 23.25178295 14 24 C18.60900804 23.66479942 22.67036591 22.58401247 27 21 C27.33 22.98 27.66 24.96 28 27 C24.91190305 28.76462683 23.76687864 29 20 29 C20 29.66 20 30.32 20 31 C15.07872966 31.16682272 11.49656104 31.24828052 7 29 C7 28.34 7 27.68 7 27 C5.9171875 27.2475 5.9171875 27.2475 4.8125 27.5 C2 27 2 27 0.58984375 25.5 C-2.98690667 20.16094399 -4.63845879 15.2335898 -3.671875 8.82421875 C-2.8983333 5.41190175 -1.94874301 2.92311452 0 0 Z " fill="#EA9865" transform="translate(36,161)"/>
<path d="M0 0 C7.26 0 14.52 0 22 0 C22 0.99 22 1.98 22 3 C21.01 3 20.02 3 19 3 C18.67 3.99 18.34 4.98 18 6 C15.69 6.33 13.38 6.66 11 7 C11 7.66 11 8.32 11 9 C10.34 9 9.68 9 9 9 C8.67 10.65 8.34 12.3 8 14 C6.35 14 4.7 14 3 14 C3 13.01 3 12.02 3 11 C3.66 11 4.32 11 5 11 C4.67 9.68 4.34 8.36 4 7 C2.68 6.67 1.36 6.34 0 6 C0 4.02 0 2.04 0 0 Z " fill="#FB914B" transform="translate(32,154)"/>
<path d="M0 0 C3.63 0 7.26 0 11 0 C11 0.33 11 0.66 11 1 C9.02 1 7.04 1 5 1 C5.495 1.94875 5.99 2.8975 6.5 3.875 C8.75156148 9.20764562 9.01867124 14.69651249 7.30859375 20.2421875 C5.12352512 25.08773718 2.36110202 28.00174236 -2 31 C-4.375 31.8125 -4.375 31.8125 -6 32 C-6 31.34 -6 30.68 -6 30 C-5.01 30 -4.02 30 -3 30 C-3 29.01 -3 28.02 -3 27 C-5.97 27 -8.94 27 -12 27 C-10 25 -10 25 -7.625 24.1875 C-4.28007888 22.6743214 -2.96353458 21.08555434 -1 18 C0.29178697 14.03851995 0.10089909 12.29765232 -1.25 8.3125 C-2.67474351 5.61566407 -3.66941726 3.88666222 -6 2 C-4.35 2 -2.7 2 -1 2 C2.76470588 12.08403361 2.76470588 12.08403361 2 17 C0 20.375 0 20.375 -2 23 C-1.34 23.33 -0.68 23.66 0 24 C0 23.34 0 22.68 0 22 C1.32 22.66 2.64 23.32 4 24 C3.95875 23.21625 3.9175 22.4325 3.875 21.625 C4 19 4 19 6 17 C6.50286703 11.06616907 5.82914058 7.23914921 3 2 C2.01 1.34 1.02 0.68 0 0 Z " fill="#DD9873" transform="translate(166,160)"/>
<path d="M0 0 C0 3 0 3 -1.28515625 4.54296875 C-1.87167969 5.08566406 -2.45820313 5.62835938 -3.0625 6.1875 C-6.97349883 9.92290296 -10.47481586 13.89927559 -14 18 C-8.39 18 -2.78 18 3 18 C3.33 16.68 3.66 15.36 4 14 C3.236875 14.20625 2.47375 14.4125 1.6875 14.625 C-1 15 -1 15 -4 13 C-4.6875 10.875 -4.6875 10.875 -5 9 C-3.1875 8.375 -3.1875 8.375 -1 8 C-0.01 8.66 0.98 9.32 2 10 C1.67 10.66 1.34 11.32 1 12 C6.28 12 11.56 12 17 12 C17 12.33 17 12.66 17 13 C14.03 13 11.06 13 8 13 C8 14.98 8 16.96 8 19 C9.32 19.33 10.64 19.66 12 20 C2.76 20.33 -6.48 20.66 -16 21 C-16 16.38645721 -15.55601692 16.04214245 -12.5 12.890625 C-11.778125 12.13652344 -11.05625 11.38242188 -10.3125 10.60546875 C-9.549375 9.82816406 -8.78625 9.05085937 -8 8.25 C-7.236875 7.45722656 -6.47375 6.66445312 -5.6875 5.84765625 C-3.8003321 3.88971956 -1.90441764 1.94113846 0 0 Z " fill="#FC9064" transform="translate(24,141)"/>
<path d="M0 0 C0.99 0 1.98 0 3 0 C3.02683987 2.97922593 3.04676037 5.95821295 3.0625 8.9375 C3.07087891 9.78763672 3.07925781 10.63777344 3.08789062 11.51367188 C3.09111328 12.32255859 3.09433594 13.13144531 3.09765625 13.96484375 C3.10289307 14.7137085 3.10812988 15.46257324 3.11352539 16.23413086 C3 18 3 18 2 19 C1.79764334 21.54969386 1.68084754 24.09692964 1.57421875 26.65234375 C1 29 1 29 -1.04296875 30.31640625 C-1.68878906 30.54199219 -2.33460938 30.76757812 -3 31 C-3.2189643 20.84248921 -3.27656049 10.9703379 -1 1 C-0.67 0.67 -0.34 0.34 0 0 Z " fill="#FC904E" transform="translate(180,45)"/>
<path d="M0 0 C0.33 0 0.66 0 1 0 C1.02684312 2.81256281 1.04676188 5.62487241 1.0625 8.4375 C1.07087891 9.23994141 1.07925781 10.04238281 1.08789062 10.86914062 C1.0965143 12.91295221 1.0522815 14.95683902 1 17 C0.67 17.33 0.34 17.66 0 18 C-0.23527773 20.34987262 -0.41386417 22.70556039 -0.5625 25.0625 C-0.64628906 26.35285156 -0.73007813 27.64320312 -0.81640625 28.97265625 C-0.87699219 29.97167969 -0.93757812 30.97070312 -1 32 C0.32 32.33 1.64 32.66 3 33 C3.06058594 31.98679687 3.12117187 30.97359375 3.18359375 29.9296875 C3.26806704 28.57811486 3.35271157 27.22655291 3.4375 25.875 C3.47681641 25.20984375 3.51613281 24.5446875 3.55664062 23.859375 C3.812152 19.84981183 4.26782413 15.95005804 5 12 C5.33 12 5.66 12 6 12 C5.59558194 20.09900375 5.10320758 28.190767 4.1875 36.25 C4.05730469 37.45140625 3.92710937 38.6528125 3.79296875 39.890625 C2.89966924 43.3934152 1.76028102 44.73802529 -1 47 C-1 45.68 -1 44.36 -1 43 C-0.34 43 0.32 43 1 43 C0.979375 41.88625 0.95875 40.7725 0.9375 39.625 C1 36 1 36 2 34 C0.515 34.495 0.515 34.495 -1 35 C-1.33 34.67 -1.66 34.34 -2 34 C-2.33 35.98 -2.66 37.96 -3 40 C-3.33 40 -3.66 40 -4 40 C-3.427119 26.56692838 -1.77355439 13.32084504 0 0 Z " fill="#DE9774" transform="translate(172,91)"/>
<path d="M0 0 C0.33 0 0.66 0 1 0 C1.29032827 9.56470344 0.46051903 18.57182803 -1 28 C-2.32 27.67 -3.64 27.34 -5 27 C-5.02685412 24.68756208 -5.04632841 22.3750373 -5.0625 20.0625 C-5.07410156 18.77472656 -5.08570313 17.48695312 -5.09765625 16.16015625 C-5 13 -5 13 -4 12 C-3.46670351 9.45899908 -3.03581657 6.90665979 -2.59765625 4.34765625 C-2 2 -2 2 0 0 Z " fill="#FB904D" transform="translate(176,96)"/>
<path d="M0 0 C0.33 0 0.66 0 1 0 C1.125 6.75 1.125 6.75 0 9 C1.98 8.67 3.96 8.34 6 8 C2.72099379 13.54908744 -0.69515989 16.89838663 -7 19 C-14.16765618 19.77660218 -18.82464688 18.65946852 -25 15 C-23.68 14.67 -22.36 14.34 -21 14 C-21 14.66 -21 15.32 -21 16 C-16.68803391 16.94324258 -12.37934119 17.48041715 -8 18 C-8 17.34 -8 16.68 -8 16 C-4.77208445 13.8480563 -3.71599191 13.79913557 0 14 C-0.66 12.35 -1.32 10.7 -2 9 C-2.99 9 -3.98 9 -5 9 C-4.360625 8.2575 -3.72125 7.515 -3.0625 6.75 C-1.21666593 4.2888879 -0.43930826 2.96533074 0 0 Z " fill="#DB9979" transform="translate(64,174)"/>
<path d="M0 0 C4.62 0 9.24 0 14 0 C14.33 0.66 14.66 1.32 15 2 C14.67 2.66 14.34 3.32 14 4 C13.01 4 12.02 4 11 4 C11 4.66 11 5.32 11 6 C7.7 6 4.4 6 1 6 C0.34 4.68 -0.32 3.36 -1 2 C-0.67 1.34 -0.34 0.68 0 0 Z " fill="#F99151" transform="translate(149,186)"/>
<path d="M0 0 C2 3 2 3 2 6 C-1.08809695 7.76462683 -2.23312136 8 -6 8 C-6 8.66 -6 9.32 -6 10 C-7.27875 10.061875 -8.5575 10.12375 -9.875 10.1875 C-10.59429687 10.22230469 -11.31359375 10.25710937 -12.0546875 10.29296875 C-12.69664063 10.19628906 -13.33859375 10.09960938 -14 10 C-14.66 9.01 -15.32 8.02 -16 7 C-15.67 6.34 -15.34 5.68 -15 5 C-13.948125 5.020625 -12.89625 5.04125 -11.8125 5.0625 C-8.67295096 5.01103198 -6.03116604 4.73482813 -3 4 C-3 3.34 -3 2.68 -3 2 C-2.01 1.34 -1.02 0.68 0 0 Z " fill="#FB9150" transform="translate(62,182)"/>
<path d="M0 0 C0 3 0 3 -1.28515625 4.54296875 C-1.87167969 5.08566406 -2.45820313 5.62835938 -3.0625 6.1875 C-7.0698731 9.92226269 -10.30568371 13.77792425 -14 18 C-1.13 18.495 -1.13 18.495 12 19 C12 19.33 12 19.66 12 20 C2.76 20.33 -6.48 20.66 -16 21 C-16 16.38645721 -15.55601692 16.04214245 -12.5 12.890625 C-11.778125 12.13652344 -11.05625 11.38242188 -10.3125 10.60546875 C-9.549375 9.82816406 -8.78625 9.05085937 -8 8.25 C-7.236875 7.45722656 -6.47375 6.66445312 -5.6875 5.84765625 C-3.8003321 3.88971956 -1.90441764 1.94113846 0 0 Z " fill="#D09C86" transform="translate(24,141)"/>
<path d="M0 0 C0.33 0.66 0.66 1.32 1 2 C4.02934491 2.65772428 4.02934491 2.65772428 7 3 C6.34 4.65 5.68 6.3 5 8 C4.67 7.01 4.34 6.02 4 5 C2.02 5.99 2.02 5.99 0 7 C-0.05441656 8.89551022 -0.09298035 10.7914792 -0.125 12.6875 C-0.15980469 14.27111328 -0.15980469 14.27111328 -0.1953125 15.88671875 C0.00141271 19.02251859 0.66942346 21.17645373 2 24 C-1.24866259 20.96092855 -2.83095777 19.07076738 -3.203125 14.51171875 C-3.29659238 8.88030886 -3.16837693 4.88458111 0 0 Z " fill="#DA9577" transform="translate(138,162)"/>
<path d="M0 0 C0.33 1.65 0.66 3.3 1 5 C1.99 5.33 2.98 5.66 4 6 C3.67 7.98 3.34 9.96 3 12 C2.7525 11.443125 2.505 10.88625 2.25 10.3125 C0.01613563 6.17985091 -2.39024737 2.49139056 -7 1 C-12.29689648 0.30910046 -14.8057621 1.85432158 -19 5 C-19.99 5.495 -19.99 5.495 -21 6 C-21 4.68 -21 3.36 -21 2 C-20.34 2 -19.68 2 -19 2 C-19 1.34 -19 0.68 -19 0 C-12.60624381 -1.59843905 -6.40654045 -1.28130809 0 0 Z " fill="#DB9D7D" transform="translate(62,161)"/>
<path d="M0 0 C0.99 0.66 1.98 1.32 3 2 C3 2.66 3 3.32 3 4 C4.98 4.66 6.96 5.32 9 6 C8.01 6.33 7.02 6.66 6 7 C6.33 8.65 6.66 10.3 7 12 C9.97 12.33 12.94 12.66 16 13 C16 13.33 16 13.66 16 14 C9.04562862 14.50373716 4.7046717 14.15965645 -1 10 C-1.66 9.01 -2.32 8.02 -3 7 C-0.03 7.495 -0.03 7.495 3 8 C2.505 7.05125 2.01 6.1025 1.5 5.125 C0 2 0 2 0 0 Z " fill="#DC997A" transform="translate(143,179)"/>
<path d="M0 0 C0.05416188 1.60379341 0.09286638 3.20811406 0.125 4.8125 C0.14820312 5.70582031 0.17140625 6.59914063 0.1953125 7.51953125 C0 10 0 10 -2 13 C-6.59115976 15.78252107 -10.94933015 14.81426921 -16 14 C-16 13.67 -16 13.34 -16 13 C-15.32453125 12.93941406 -14.6490625 12.87882812 -13.953125 12.81640625 C-13.06109375 12.73261719 -12.1690625 12.64882812 -11.25 12.5625 C-10.36828125 12.48128906 -9.4865625 12.40007812 -8.578125 12.31640625 C-5.7379189 12.02128823 -5.7379189 12.02128823 -2 11 C-2 7.7 -2 4.4 -2 1 C-8.93 0.505 -8.93 0.505 -16 0 C-16 -0.33 -16 -0.66 -16 -1 C-14.08496326 -1.22281874 -12.16783494 -1.42771076 -10.25 -1.625 C-9.18265625 -1.74101563 -8.1153125 -1.85703125 -7.015625 -1.9765625 C-3.96207601 -2.00029475 -2.53837579 -1.61420985 0 0 Z " fill="#ECFDFE" transform="translate(92,71)"/>
<path d="M0 0 C0.5534764 2.07553648 1 3.84365964 1 6 C1.99 6.66 2.98 7.32 4 8 C2.02 10.31 0.04 12.62 -2 15 C-5.1875 8.625 -5.1875 8.625 -4.25 5.5 C-3.06488343 3.12976686 -1.98707119 1.71610694 0 0 Z " fill="#E69567" transform="translate(29,135)"/>
<path d="M0 0 C0.33 0 0.66 0 1 0 C1.33 5.94 1.66 11.88 2 18 C1.01 18.33 0.02 18.66 -1 19 C-1 22.96 -1 26.92 -1 31 C-1.66 31.33 -2.32 31.66 -3 32 C-2.45707868 21.2558729 -1.4598439 10.65827777 0 0 Z " fill="#D79875" transform="translate(176,59)"/>
<path d="M0 0 C0.99 0 1.98 0 3 0 C3 3.96 3 7.92 3 12 C2.01 12.33 1.02 12.66 0 13 C0 12.34 0 11.68 0 11 C-0.66 11 -1.32 11 -2 11 C-2.05399736 9.54207116 -2.09279177 8.08357288 -2.125 6.625 C-2.15980469 5.40683594 -2.15980469 5.40683594 -2.1953125 4.1640625 C-2 2 -2 2 0 0 Z " fill="#FC904C" transform="translate(139,167)"/>
<path d="M0 0 C1.22589844 0.01353516 1.22589844 0.01353516 2.4765625 0.02734375 C3.41628906 0.04474609 3.41628906 0.04474609 4.375 0.0625 C3.715 0.7225 3.055 1.3825 2.375 2.0625 C1.446875 2.041875 0.51875 2.02125 -0.4375 2 C-4.15608008 2.07291333 -5.5249778 3.12498613 -8.625 5.0625 C-11.9375 5.75 -11.9375 5.75 -14.625 6.0625 C-15.285 4.4125 -15.945 2.7625 -16.625 1.0625 C-15.57699219 1.07990234 -15.57699219 1.07990234 -14.5078125 1.09765625 C-13.59773437 1.10667969 -12.68765625 1.11570313 -11.75 1.125 C-10.39261719 1.14240234 -10.39261719 1.14240234 -9.0078125 1.16015625 C-5.79645996 1.02854344 -3.35544205 -0.04793489 0 0 Z " fill="#FB944B" transform="translate(154.625,159.9375)"/>
<path d="M0 0 C1.32 1.65 2.64 3.3 4 5 C3.67 5.66 3.34 6.32 3 7 C-1.95 6.67 -6.9 6.34 -12 6 C-12.33 4.68 -12.66 3.36 -13 2 C-12.01 2.495 -12.01 2.495 -11 3 C-8.58743998 2.97694324 -8.58743998 2.97694324 -5.9375 2.6875 C-4.58978516 2.56955078 -4.58978516 2.56955078 -3.21484375 2.44921875 C-2.48394531 2.30097656 -1.75304687 2.15273437 -1 2 C-0.67 1.34 -0.34 0.68 0 0 Z " fill="#EBFDFE" transform="translate(104,114)"/>
<path d="M0 0 C0.33 0 0.66 0 1 0 C1.02684312 2.81256281 1.04676188 5.62487241 1.0625 8.4375 C1.07087891 9.23994141 1.07925781 10.04238281 1.08789062 10.86914062 C1.0965143 12.91295221 1.0522815 14.95683902 1 17 C0.67 17.33 0.34 17.66 0 18 C-0.39666227 20.18019479 -0.74315237 22.3696463 -1.0625 24.5625 C-1.32740234 26.35880859 -1.32740234 26.35880859 -1.59765625 28.19140625 C-1.73042969 29.11824219 -1.86320313 30.04507813 -2 31 C-2.33 31 -2.66 31 -3 31 C-2.43174786 20.59201341 -1.39777395 10.32724245 0 0 Z " fill="#D4997E" transform="translate(172,91)"/>
<path d="M0 0 C1.65 0 3.3 0 5 0 C8.76470588 10.08403361 8.76470588 10.08403361 8 15 C5.91246173 18.87685679 4.22963468 21.48941618 0 23 C1.2065625 21.453125 1.2065625 21.453125 2.4375 19.875 C4.77410881 16.55981143 6 14.15960302 6 10 C4.63889838 5.98475022 3.34578365 2.70849153 0 0 Z " fill="#D4997D" transform="translate(160,162)"/>
<path d="M0 0 C1.65 0 3.3 0 5 0 C5 1.65 5 3.3 5 5 C5.99 5.33 6.98 5.66 8 6 C7.67 7.32 7.34 8.64 7 10 C6.01 10 5.02 10 4 10 C2.27735506 6.70450534 0.70554068 3.66881155 0 0 Z " fill="#FC904A" transform="translate(35,177)"/>
<path d="M0 0 C6.57692308 0.57692308 6.57692308 0.57692308 8 2 C8.04063832 3.66617115 8.042721 5.33388095 8 7 C3.125 5.25 3.125 5.25 2 3 C-0.02463255 2.34786708 -0.02463255 2.34786708 -2 2 C-1.34 1.34 -0.68 0.68 0 0 Z " fill="#EAA674" transform="translate(171,153)"/>
<path d="M0 0 C1.32 0 2.64 0 4 0 C4.33 1.65 4.66 3.3 5 5 C5.99 5.33 6.98 5.66 8 6 C7.67 7.98 7.34 9.96 7 12 C6.773125 11.484375 6.54625 10.96875 6.3125 10.4375 C4.7799535 7.59134221 2.94526916 5.08219854 1.0234375 2.48828125 C0 1 0 1 0 0 Z " fill="#E2946E" transform="translate(58,161)"/>
<path d="M0 0 C3.18315856 1.59157928 3.85642677 4.80472184 5 8 C5.6875 10.9375 5.6875 10.9375 6 13 C2.42016341 9.65881918 0.10283266 7.26231859 -0.125 2.25 C-0.063125 1.13625 -0.063125 1.13625 0 0 Z " fill="#DB936C" transform="translate(33,175)"/>
<path d="M0 0 C1.875 0.1875 1.875 0.1875 4 1 C5.25 3.5625 5.25 3.5625 6 6 C4.125 6.625 4.125 6.625 2 7 C0 5 0 5 -0.125 2.375 C-0.08375 1.59125 -0.0425 0.8075 0 0 Z " fill="#FC8F4B" transform="translate(141,181)"/>
<path d="M0 0 C0.598125 0.350625 1.19625 0.70125 1.8125 1.0625 C1.1525 1.7225 0.4925 2.3825 -0.1875 3.0625 C0.4725 3.3925 1.1325 3.7225 1.8125 4.0625 C1.8125 4.7225 1.8125 5.3825 1.8125 6.0625 C-0.35624252 5.55646008 -2.18717627 5.06266187 -4.1875 4.0625 C-4.8125 2 -4.8125 2 -5.1875 0.0625 C-2.1875 -0.9375 -2.1875 -0.9375 0 0 Z " fill="#F1945B" transform="translate(24.1875,149.9375)"/>
<path d="M0 0 C0.66 0 1.32 0 2 0 C2.49230769 6.4 2.49230769 6.4 0 9.4375 C-0.99 10.2109375 -0.99 10.2109375 -2 11 C-2 9.68 -2 8.36 -2 7 C-1.34 7 -0.68 7 0 7 C0 4.69 0 2.38 0 0 Z " fill="#D79A7C" transform="translate(173,127)"/>
<path d="M0 0 C0.66 0 1.32 0 2 0 C3.47075246 4.41225737 4.36884358 7.48281619 3 12 C2.34 12 1.68 12 1 12 C0.67 8.04 0.34 4.08 0 0 Z " fill="#F79258" transform="translate(30,11)"/>
<path d="M0 0 C-0.66 0.66 -1.32 1.32 -2 2 C-3.36125 1.9690625 -3.36125 1.9690625 -4.75 1.9375 C-8.55437889 2.01066113 -10.73121321 3.13212183 -14 5 C-14 3.68 -14 2.36 -14 1 C-9.32798795 -0.20568053 -4.78503708 -0.09382426 0 0 Z " fill="#DE9B7A" transform="translate(159,160)"/>
<path d="M0 0 C2.7972908 2.06756277 3.02692273 3.14440371 3.6875 6.6875 C3.790625 7.780625 3.89375 8.87375 4 10 C3.34 10 2.68 10 2 10 C0.68373308 6.38026598 0 3.90432869 0 0 Z " fill="#D89B76" transform="translate(67,161)"/>
<path d="M0 0 C0.33 0 0.66 0 1 0 C1.25 3.3125 1.25 3.3125 1 7 C-1 8.9375 -1 8.9375 -3 10 C-3.66 9.67 -4.32 9.34 -5 9 C-4.0409375 7.88625 -4.0409375 7.88625 -3.0625 6.75 C-1.21666593 4.2888879 -0.43930826 2.96533074 0 0 Z " fill="#DC9576" transform="translate(64,174)"/>
<path d="" fill="#0000FF" transform="translate(0,0)"/>
<path d="" fill="#0000FF" transform="translate(0,0)"/>
<path d="" fill="#0000FF" transform="translate(0,0)"/>
<path d="" fill="#0000FF" transform="translate(0,0)"/>
<path d="" fill="#0000FF" transform="translate(0,0)"/>
<path d="" fill="#0000FF" transform="translate(0,0)"/>
<path d="" fill="#0000FF" transform="translate(0,0)"/>
<path d="" fill="#0000FF" transform="translate(0,0)"/>
<path d="" fill="#0000FF" transform="translate(0,0)"/>
<path d="" fill="#0000FF" transform="translate(0,0)"/>
</svg>
