<?xml version="1.0" encoding="UTF-8"?>
<svg version="1.1" xmlns="http://www.w3.org/2000/svg" width="189" height="197">
<path d="M0 0 C1.3912047 0.00025098 2.78241565 0.0058083 4.17358398 0.01586914 C4.82129761 0.01687622 5.46901123 0.0178833 6.13635254 0.0189209 C8.56414552 0.02416696 10.99191334 0.03812814 13.41967773 0.05102539 C21.55624023 0.08196289 21.55624023 0.08196289 29.85717773 0.11352539 C29.85717773 11.66352539 29.85717773 23.21352539 29.85717773 35.11352539 C34.13259521 35.09257813 38.4080127 35.07163086 42.81298828 35.05004883 C56.92249186 34.98383639 71.03200147 34.9394093 85.14161968 34.9062767 C93.69817205 34.88564999 102.25457725 34.85752739 110.81103516 34.81176758 C118.26870964 34.77190305 125.72627755 34.74609337 133.18405563 34.73717141 C137.13307342 34.73195597 141.08178632 34.71969584 145.03070641 34.69060516 C148.74812922 34.66344191 152.46512172 34.65508208 156.18263435 34.66109467 C158.196336 34.65947065 160.20999084 34.63795259 162.22357178 34.61584473 C163.42525497 34.62134338 164.62693817 34.62684204 165.86503601 34.63250732 C167.42885781 34.62697657 167.42885781 34.62697657 169.02427197 34.62133408 C172.59322971 35.24140765 174.26712711 36.63362903 176.85717773 39.11352539 C180.83098173 47.06113339 176.00129123 64.08759393 174.89624023 72.89868164 C174.70301784 74.45469984 174.50985293 76.01072517 174.31674194 77.5667572 C173.91483015 80.79491845 173.50916786 84.0225839 173.10131836 87.25 C172.58091111 91.3741173 172.0748843 95.49986792 171.57212257 99.62616825 C171.17979293 102.82621437 170.77752493 106.02495441 170.372509 109.22341728 C170.18152804 110.74472686 169.99415332 112.26649394 169.81056595 113.78871346 C169.55352249 115.91155611 169.28249594 118.03217776 169.00805664 120.15283203 C168.85785065 121.35557266 168.70764465 122.55831329 168.55288696 123.79750061 C167.69304435 127.89584987 166.75862411 131.86853586 163.09457207 134.26760769 C160.38680622 135.29136422 158.2759734 135.35271975 155.38079834 135.33816528 C154.26777847 135.33776749 153.15475861 135.33736969 152.00801086 135.33695984 C150.7913121 135.32655167 149.57461334 135.31614349 148.32104492 135.30541992 C146.34856051 135.30111452 144.37607604 135.29682113 142.40359068 135.292979 C140.28493981 135.28725904 138.16635012 135.27691157 136.04772186 135.26565933 C131.62611471 135.24370617 127.20467031 135.24327676 122.78302002 135.24752808 C121.26768114 135.24872143 119.75234224 135.24989043 118.23700333 135.25103569 C117.47816864 135.25161594 116.71933396 135.25219619 115.93750429 135.25279403 C105.64642776 135.25881421 95.35564108 135.24648522 85.06469727 135.19262695 C78.11915091 135.15644984 71.17419294 135.14877569 64.22858739 135.17312515 C60.55584004 135.18479211 56.8844097 135.18181835 53.21181488 135.14361954 C49.11071788 135.10109807 45.0121335 135.12079146 40.91088867 135.14526367 C39.09798592 135.11143333 39.09798592 135.11143333 37.24845886 135.07691956 C31.20570226 135.16571557 27.64549723 135.600682 23.2288208 139.92404175 C20.96493088 142.56191963 18.9456276 145.32892556 16.85717773 148.11352539 C67.67717773 148.44352539 118.49717773 148.77352539 170.85717773 149.11352539 C171.18717773 150.76352539 171.51717773 152.41352539 171.85717773 154.11352539 C169.29171833 156.67898479 167.38031106 156.65398626 163.85717773 157.11352539 C164.35217773 158.08290039 164.84717773 159.05227539 165.35717773 160.05102539 C167.49711525 165.12953739 167.84457568 170.00629004 166.16577148 175.28930664 C163.50177541 181.20805942 159.90322155 184.75252709 153.91967773 187.42602539 C147.42622675 188.88373888 141.63899887 188.46768532 135.85717773 185.11352539 C131.79988418 181.40553526 128.20637458 177.11571125 127.55639648 171.52758789 C127.5525293 170.60719727 127.54866211 169.68680664 127.54467773 168.73852539 C127.52791992 167.82329102 127.51116211 166.90805664 127.49389648 165.96508789 C127.85717773 163.11352539 127.85717773 163.11352539 130.85717773 157.11352539 C96.20717773 156.61852539 96.20717773 156.61852539 60.85717773 156.11352539 C61.84717773 158.09352539 62.83717773 160.07352539 63.85717773 162.11352539 C65.53049484 168.2772631 64.99524628 173.54559053 61.85717773 179.11352539 C58.00729439 183.95337874 52.96599295 187.32367547 46.84545898 188.50024414 C41.50641194 188.80443346 37.18568151 187.19256416 32.85717773 184.11352539 C27.84328734 179.23014841 25.70411517 175.93995839 25.60717773 168.86352539 C25.58139648 167.74461914 25.55561523 166.62571289 25.52905273 165.47290039 C25.85717773 162.11352539 25.85717773 162.11352539 28.85717773 156.11352539 C19.28717773 156.11352539 9.71717773 156.11352539 -0.14282227 156.11352539 C2.06628034 152.43168772 3.67813131 150.02668482 6.54467773 147.04711914 C7.24334961 146.31428711 7.94202148 145.58145508 8.66186523 144.82641602 C9.74854492 143.70009766 9.74854492 143.70009766 10.85717773 142.55102539 C12.29652382 141.05149312 13.73408924 139.55024916 15.16967773 138.04711914 C15.80518555 137.38768311 16.44069336 136.72824707 17.09545898 136.04882812 C20.50822622 132.29979738 22.22932946 130.17178679 22.25590515 124.96295166 C22.2684433 123.92251205 22.28098145 122.88207245 22.29389954 121.81010437 C22.29246445 120.67434464 22.29102936 119.5385849 22.28955078 118.3684082 C22.29974243 117.16813492 22.30993408 115.96786163 22.32043457 114.73121643 C22.345445 111.44430515 22.35728942 108.15766231 22.36328864 104.87067127 C22.37267149 101.43395446 22.39887476 97.99736692 22.42329407 94.56072998 C22.46696534 88.05497564 22.49550837 81.54924637 22.51861745 75.04339004 C22.54566582 67.63586691 22.58957751 60.2284738 22.63490617 52.82104349 C22.72776139 37.58527095 22.79943803 22.34947392 22.85717773 7.11352539 C21.68360718 7.12138062 21.68360718 7.12138062 20.48632812 7.12939453 C16.9641194 7.15009645 13.44192343 7.16316377 9.91967773 7.17602539 C8.68797852 7.1844043 7.4562793 7.1927832 6.18725586 7.20141602 C5.01743164 7.20463867 3.84760742 7.20786133 2.64233398 7.21118164 C1.01630249 7.21903687 1.01630249 7.21903687 -0.64257812 7.22705078 C-3.14282227 7.11352539 -3.14282227 7.11352539 -4.14282227 6.11352539 C-4.26782227 3.61352539 -4.26782227 3.61352539 -4.14282227 1.11352539 C-3.14282227 0.11352539 -3.14282227 0.11352539 0 0 Z M29.85717773 42.11352539 C29.83405491 53.17887397 29.81626296 64.24421684 29.80536556 75.30958462 C29.8001366 80.44712105 29.79303872 85.58464102 29.78173828 90.72216797 C29.77090986 95.67583949 29.764901 100.62949513 29.76230049 105.58317757 C29.76044616 107.47750155 29.7568254 109.37182463 29.75144768 111.26614189 C29.74423784 113.90986925 29.74318677 116.5535301 29.74365234 119.19726562 C29.74005707 119.98848312 29.73646179 120.77970062 29.73275757 121.59489441 C29.40862879 125.14868094 29.40862879 125.14868094 30.85717773 128.11352539 C32.52742443 128.20966672 34.2017605 128.23540261 35.87477112 128.23377991 C37.50497192 128.2358419 37.50497192 128.2358419 39.16810608 128.23794556 C40.97208107 128.23255264 40.97208107 128.23255264 42.8125 128.22705078 C44.07085663 128.22719681 45.32921326 128.22734283 46.6257019 128.22749329 C50.08629026 128.22778124 53.54684425 128.22188488 57.00742459 128.21491933 C60.62025864 128.20868542 64.23309341 128.20808196 67.84593201 128.20689392 C74.69181282 128.20378071 81.53767774 128.19556747 88.38355154 128.18554443 C96.17544363 128.17438296 103.96733646 128.16887276 111.75923455 128.163849 C127.79189159 128.15338485 143.82453264 128.13578562 159.85717773 128.11352539 C161.44641304 120.42509891 161.44641304 120.42509891 162.63500977 112.66723633 C162.81496994 111.25592438 162.81496994 111.25592438 162.99856567 109.81610107 C163.11948578 108.83659485 163.24040588 107.85708862 163.36499023 106.84790039 C163.49533661 105.81086975 163.62568298 104.77383911 163.75997925 103.7053833 C164.03231098 101.53078464 164.30280528 99.35595515 164.5715332 97.1809082 C164.98283061 93.85825116 165.4020472 90.5366581 165.82202148 87.21508789 C166.08681825 85.09275112 166.35115715 82.97035717 166.61499023 80.84790039 C166.7399588 79.86029724 166.86492737 78.87269409 166.99368286 77.85516357 C167.5592936 73.23616787 167.95593117 68.7760654 167.85717773 64.11352539 C168.12205696 62.54225155 168.43368312 60.97803872 168.79467773 59.42602539 C169.9389039 54.04816243 170.72731162 48.61785066 170.85717773 43.11352539 C169.81998533 41.85350486 169.81998533 41.85350486 167.54769802 41.99047756 C166.51621167 41.99139935 165.48472532 41.99232115 164.42198181 41.99327087 C162.65294746 41.99120888 162.65294746 41.99120888 160.84817505 41.98910522 C158.88991287 41.99449814 158.88991287 41.99449814 156.89208984 42 C155.51264956 42.00028187 154.13320912 42.00012414 152.75376892 41.9995575 C148.99773655 41.99926951 145.24173584 42.00516634 141.48571086 42.01213145 C137.56457729 42.01836488 133.64344306 42.01896878 129.7223053 42.02015686 C122.29206163 42.02327021 114.8618326 42.03148364 107.43159539 42.04150635 C98.97466135 42.05266738 90.51772664 42.05817791 82.06078708 42.06320179 C64.65957549 42.07366625 47.25837816 42.09126576 29.85717773 42.11352539 Z M34.54467773 161.23852539 C32.19125461 165.24806108 31.92985479 168.57284062 32.85717773 173.11352539 C34.59721465 176.47949845 36.98518751 178.58574183 40.23217773 180.55102539 C45.37305109 181.65264111 48.77167229 180.80988737 53.16967773 177.98852539 C56.33144439 174.60617036 57.31210963 172.70767087 57.85717773 168.11352539 C57.0880856 163.49897257 55.57286454 160.76414976 52.10717773 157.61352539 C44.85119631 154.26461089 40.12801321 156.10789279 34.54467773 161.23852539 Z M135.98217773 162.42602539 C134.5060053 165.95243731 134.39098879 168.31741539 134.85717773 172.11352539 C136.6794296 175.75802912 138.27919699 177.70631168 141.60717773 180.05102539 C145.7386491 181.40169872 148.74136377 181.57001622 152.85717773 180.11352539 C156.10502222 178.07923835 158.26431592 175.78885962 159.55249023 172.14868164 C160.19486851 168.58826588 159.92932797 166.33422021 158.79467773 162.86352539 C156.44996403 159.53554465 154.50168146 157.93577725 150.85717773 156.11352539 C144.19265822 155.16145117 140.17741679 157.25189722 135.98217773 162.42602539 Z " fill="#F99150" transform="translate(8.142822265625,5.886474609375)"/>
<path d="M0 0 C29 0 29 0 37 4 C42.91220654 10.16378979 43.30264791 14.56892331 43.2109375 22.83203125 C42.84481765 28.33060901 40.94914502 31.32435086 36.9375 34.875 C34 37 34 37 32 37 C32.38857178 37.71655762 32.77714355 38.43311523 33.17749023 39.17138672 C34.93116137 42.40574322 36.68433686 45.64036812 38.4375 48.875 C39.04916016 50.00292969 39.66082031 51.13085938 40.29101562 52.29296875 C40.87431641 53.36933594 41.45761719 54.44570312 42.05859375 55.5546875 C42.59798584 56.54968262 43.13737793 57.54467773 43.69311523 58.56982422 C44.48168022 60.03617502 45.25541697 61.51083395 46 63 C40.72 63 35.44 63 30 63 C28.16169564 59.54422654 26.32917481 56.08560099 24.5 52.625 C23.97535156 51.64015625 23.45070313 50.6553125 22.91015625 49.640625 C22.41386719 48.69960937 21.91757813 47.75859375 21.40625 46.7890625 C20.94541016 45.91975098 20.48457031 45.05043945 20.00976562 44.15478516 C19 42 19 42 19 40 C17.02 40 15.04 40 13 40 C13 47.59 13 55.18 13 63 C8.38 63 3.76 63 -1 63 C-0.67 42.21 -0.34 21.42 0 0 Z M13 14 C13 18.29 13 22.58 13 27 C14.7325 27.04125 16.465 27.0825 18.25 27.125 C19.22453125 27.14820313 20.1990625 27.17140625 21.203125 27.1953125 C24.05069951 26.99645953 25.63037132 26.55438946 28 25 C29.39935013 22.20129973 29.25265405 20.09501208 29 17 C27.96595688 15.18792065 27.96595688 15.18792065 26 14 C21.63769798 13.59256208 17.39034742 13.86959364 13 14 Z " fill="#000000" transform="translate(63,58)"/>
<path d="M0 0 C1.3912047 0.00025098 2.78241565 0.0058083 4.17358398 0.01586914 C4.82129761 0.01687622 5.46901123 0.0178833 6.13635254 0.0189209 C8.56414552 0.02416696 10.99191334 0.03812814 13.41967773 0.05102539 C21.55624023 0.08196289 21.55624023 0.08196289 29.85717773 0.11352539 C29.85717773 11.66352539 29.85717773 23.21352539 29.85717773 35.11352539 C34.13259521 35.09257813 38.4080127 35.07163086 42.81298828 35.05004883 C56.92249186 34.98383639 71.03200147 34.9394093 85.14161968 34.9062767 C93.69817205 34.88564999 102.25457725 34.85752739 110.81103516 34.81176758 C118.26870964 34.77190305 125.72627755 34.74609337 133.18405563 34.73717141 C137.13307342 34.73195597 141.08178632 34.71969584 145.03070641 34.69060516 C148.74812922 34.66344191 152.46512172 34.65508208 156.18263435 34.66109467 C158.196336 34.65947065 160.20999084 34.63795259 162.22357178 34.61584473 C163.42525497 34.62134338 164.62693817 34.62684204 165.86503601 34.63250732 C167.42885781 34.62697657 167.42885781 34.62697657 169.02427197 34.62133408 C172.59322971 35.24140765 174.26712711 36.63362903 176.85717773 39.11352539 C180.83098173 47.06113339 176.00129123 64.08759393 174.89624023 72.89868164 C174.70301784 74.45469984 174.50985293 76.01072517 174.31674194 77.5667572 C173.91483015 80.79491845 173.50916786 84.0225839 173.10131836 87.25 C172.58091111 91.3741173 172.0748843 95.49986792 171.57212257 99.62616825 C171.17979293 102.82621437 170.77752493 106.02495441 170.372509 109.22341728 C170.18152804 110.74472686 169.99415332 112.26649394 169.81056595 113.78871346 C169.55352249 115.91155611 169.28249594 118.03217776 169.00805664 120.15283203 C168.85785065 121.35557266 168.70764465 122.55831329 168.55288696 123.79750061 C167.69338668 127.89421821 166.75965027 131.86878874 163.09583378 134.26592541 C160.38687873 135.29159001 158.25776635 135.3640804 155.36061096 135.36508179 C153.68457794 135.37315605 153.68457794 135.37315605 151.97468567 135.38139343 C150.75327377 135.37726944 149.53186188 135.37314545 148.2734375 135.36889648 C146.29363135 135.37445387 144.31382521 135.38001559 142.33401954 135.38574052 C140.20800725 135.39007856 138.08204166 135.38961125 135.95602608 135.38792038 C131.5226147 135.38508576 127.08936248 135.39944451 122.6559906 135.41690063 C110.05014428 135.46391417 97.44430901 135.48787014 84.83837891 135.49438477 C77.87427404 135.49813565 70.91034948 135.51616612 63.9463219 135.54947913 C59.54032142 135.56969324 55.13478593 135.57206378 50.72875798 135.56119895 C47.34250527 135.55797866 43.95651344 135.58068429 40.5703125 135.59936523 C39.35092484 135.59119278 38.13153717 135.58302032 36.87519836 135.57460022 C30.3823681 135.56850979 30.3823681 135.56850979 24.56260681 138.1456604 C23.99981522 138.79505585 23.43702362 139.44445129 22.85717773 140.11352539 C22.85717773 139.45352539 22.85717773 138.79352539 22.85717773 138.11352539 C22.19717773 137.78352539 21.53717773 137.45352539 20.85717773 137.11352539 C22.17717773 137.11352539 23.49717773 137.11352539 24.85717773 137.11352539 C25.18717773 136.12352539 25.51717773 135.13352539 25.85717773 134.11352539 C26.54409069 134.11021524 27.23100365 134.1069051 27.93873215 134.10349464 C44.64730411 134.02229969 61.35577691 133.93021879 78.06422043 133.82599831 C86.14427545 133.77586115 94.22432027 133.72941837 102.30444336 133.69165039 C109.34648682 133.65872524 116.38845137 133.61889115 123.43040776 133.57073534 C127.15960302 133.54547551 130.88874597 133.52369273 134.61800385 133.51018143 C138.7795497 133.49497455 142.9408441 133.46434427 147.10229492 133.43237305 C148.34091278 133.43021286 149.57953064 133.42805267 150.85568237 133.42582703 C152.55517532 133.4090818 152.55517532 133.4090818 154.28900146 133.39199829 C155.27347637 133.38646753 156.25795128 133.38093678 157.27225876 133.37523842 C159.97254569 133.10184483 161.61271289 132.62843975 163.85717773 131.11352539 C164.66889002 128.55832618 164.66889002 128.55832618 164.85717773 126.11352539 C164.19717773 125.78352539 163.53717773 125.45352539 162.85717773 125.11352539 C161.86717773 126.10352539 160.87717773 127.09352539 159.85717773 128.11352539 C159.94487427 127.40022064 160.0325708 126.68691589 160.1229248 125.95199585 C160.95063193 119.21430698 161.77486305 112.47620091 162.59523773 105.73761559 C163.01707366 102.27365248 163.44022977 98.80986152 163.86645508 95.34643555 C164.35693236 91.36042456 164.84157297 87.37372252 165.32592773 83.38696289 C165.47904419 82.1492514 165.63216064 80.91153992 165.78991699 79.63632202 C165.93006226 78.47557159 166.07020752 77.31482117 166.21459961 76.11889648 C166.33895386 75.10185638 166.46330811 74.08481628 166.59143066 73.03695679 C166.86333157 70.04582828 166.87342535 67.11514054 166.85717773 64.11352539 C167.12205696 62.54225155 167.43368312 60.97803872 167.79467773 59.42602539 C169.13645728 53.20762393 169.13645728 53.20762393 169.85717773 43.11352539 C101.05217773 42.61852539 101.05217773 42.61852539 30.85717773 42.11352539 C30.85717773 41.78352539 30.85717773 41.45352539 30.85717773 41.11352539 C76.39717773 40.78352539 121.93717773 40.45352539 168.85717773 40.11352539 C168.85717773 39.45352539 168.85717773 38.79352539 168.85717773 38.11352539 C100.05217773 37.61852539 100.05217773 37.61852539 29.85717773 37.11352539 C27.86627832 33.13172655 27.57008238 31.35228328 27.44311523 27.03540039 C27.40444336 25.87524414 27.36577148 24.71508789 27.32592773 23.51977539 C27.29499023 22.31321289 27.26405273 21.10665039 27.23217773 19.86352539 C27.19350586 18.64149414 27.15483398 17.41946289 27.11499023 16.16040039 C27.02075666 13.14492599 26.93514318 10.12945711 26.85717773 7.11352539 C25.86717773 7.44352539 24.87717773 7.77352539 23.85717773 8.11352539 C24.18717773 49.69352539 24.51717773 91.27352539 24.85717773 134.11352539 C23.53717773 133.78352539 22.21717773 133.45352539 20.85717773 133.11352539 C20.56842773 134.18602539 20.27967773 135.25852539 19.98217773 136.36352539 C19.12897664 139.20752903 18.29352743 141.54861522 16.85717773 144.11352539 C17.51717773 144.11352539 18.17717773 144.11352539 18.85717773 144.11352539 C17.86717773 146.09352539 17.86717773 146.09352539 16.85717773 148.11352539 C16.52717773 148.11352539 16.19717773 148.11352539 15.85717773 148.11352539 C15.52717773 146.46352539 15.19717773 144.81352539 14.85717773 143.11352539 C14.17655273 143.81477539 13.49592773 144.51602539 12.79467773 145.23852539 C9.62067996 148.3449913 6.22919969 151.22322086 2.85717773 154.11352539 C10.77717773 154.44352539 18.69717773 154.77352539 26.85717773 155.11352539 C26.85717773 155.44352539 26.85717773 155.77352539 26.85717773 156.11352539 C17.94717773 156.11352539 9.03717773 156.11352539 -0.14282227 156.11352539 C2.06628034 152.43168772 3.67813131 150.02668482 6.54467773 147.04711914 C7.24334961 146.31428711 7.94202148 145.58145508 8.66186523 144.82641602 C9.74854492 143.70009766 9.74854492 143.70009766 10.85717773 142.55102539 C12.29652382 141.05149312 13.73408924 139.55024916 15.16967773 138.04711914 C15.80518555 137.38768311 16.44069336 136.72824707 17.09545898 136.04882812 C20.50822622 132.29979738 22.22932946 130.17178679 22.25590515 124.96295166 C22.2684433 123.92251205 22.28098145 122.88207245 22.29389954 121.81010437 C22.29246445 120.67434464 22.29102936 119.5385849 22.28955078 118.3684082 C22.29974243 117.16813492 22.30993408 115.96786163 22.32043457 114.73121643 C22.345445 111.44430515 22.35728942 108.15766231 22.36328864 104.87067127 C22.37267149 101.43395446 22.39887476 97.99736692 22.42329407 94.56072998 C22.46696534 88.05497564 22.49550837 81.54924637 22.51861745 75.04339004 C22.54566582 67.63586691 22.58957751 60.2284738 22.63490617 52.82104349 C22.72776139 37.58527095 22.79943803 22.34947392 22.85717773 7.11352539 C21.68360718 7.12138062 21.68360718 7.12138062 20.48632812 7.12939453 C16.9641194 7.15009645 13.44192343 7.16316377 9.91967773 7.17602539 C8.68797852 7.1844043 7.4562793 7.1927832 6.18725586 7.20141602 C5.01743164 7.20463867 3.84760742 7.20786133 2.64233398 7.21118164 C1.01630249 7.21903687 1.01630249 7.21903687 -0.64257812 7.22705078 C-3.14282227 7.11352539 -3.14282227 7.11352539 -4.14282227 6.11352539 C-4.26782227 3.61352539 -4.26782227 3.61352539 -4.14282227 1.11352539 C-3.14282227 0.11352539 -3.14282227 0.11352539 0 0 Z " fill="#EF9358" transform="translate(8.142822265625,5.886474609375)"/>
<path d="M0 0 C10.56 0 21.12 0 32 0 C32 4.29 32 8.58 32 13 C31 14 31 14 29.23413086 14.11352539 C28.48526611 14.10828857 27.73640137 14.10305176 26.96484375 14.09765625 C26.15595703 14.09443359 25.34707031 14.09121094 24.51367188 14.08789062 C23.66353516 14.07951172 22.81339844 14.07113281 21.9375 14.0625 C21.08349609 14.05798828 20.22949219 14.05347656 19.34960938 14.04882812 C17.23304337 14.03700373 15.11651315 14.01906769 13 14 C13 17.63 13 21.26 13 25 C18.61 25 24.22 25 30 25 C30.09765625 35.05859375 30.09765625 35.05859375 30 38 C29 39 29 39 25.40234375 39.09765625 C23.91403133 39.0909822 22.42573568 39.07902183 20.9375 39.0625 C19.79958008 39.05573242 19.79958008 39.05573242 18.63867188 39.04882812 C16.75908129 39.0370068 14.87953101 39.01907078 13 39 C13 42.63 13 46.26 13 50 C19.6 50 26.2 50 33 50 C33 54.29 33 58.58 33 63 C22.11 63 11.22 63 0 63 C0 42.21 0 21.42 0 0 Z " fill="#000000" transform="translate(116,58)"/>
<path d="M0 0 C0.9583374 0.00523682 1.9166748 0.01047363 2.90405273 0.01586914 C4.45576172 0.02070313 4.45576172 0.02070313 6.03881836 0.02563477 C7.12743164 0.03401367 8.21604492 0.04239258 9.33764648 0.05102539 C10.97636719 0.05779297 10.97636719 0.05779297 12.64819336 0.06469727 C15.35723144 0.07652713 18.06616248 0.09300996 20.77514648 0.11352539 C21.10514648 0.77352539 21.43514648 1.43352539 21.77514648 2.11352539 C20.12514648 2.44352539 18.47514648 2.77352539 16.77514648 3.11352539 C17.10514648 3.77352539 17.43514648 4.43352539 17.77514648 5.11352539 C16.75420898 4.61852539 16.75420898 4.61852539 15.71264648 4.11352539 C11.16154759 2.56421513 7.44464089 2.3546643 3.02514648 4.36352539 C-0.03226041 6.74150853 -1.93363704 8.22061829 -2.54516602 12.19555664 C-2.74402317 16.19258552 -2.56008224 18.5299791 -0.53735352 22.05102539 C3.11373686 25.30740329 5.35762366 26.16415121 10.27514648 25.98852539 C14.21859274 25.00266383 16.02631794 24.09796781 18.77514648 21.11352539 C21.30888525 15.38507253 20.58617645 11.8484536 18.77514648 6.11352539 C20.42514648 6.11352539 22.07514648 6.11352539 23.77514648 6.11352539 C24.10514648 4.79352539 24.43514648 3.47352539 24.77514648 2.11352539 C27.98169143 7.5507103 29.59705455 13.01866197 28.33764648 19.29321289 C26.27919706 25.49195263 22.6293677 29.2371058 16.96264648 32.42602539 C12.05011384 34.68413139 7.87901911 35.10325081 2.70483398 33.45336914 C-3.04979282 30.9261471 -7.40472545 26.75378151 -10.22485352 21.11352539 C-10.37386843 19.01298823 -10.44623804 16.90664714 -10.47485352 14.80102539 C-10.50063477 13.67051758 -10.52641602 12.54000977 -10.55297852 11.37524414 C-10.19691085 7.83576202 -9.2691564 5.98092918 -7.22485352 3.11352539 C-6.23485352 4.59852539 -6.23485352 4.59852539 -5.22485352 6.11352539 C-4.23485352 6.44352539 -3.24485352 6.77352539 -2.22485352 7.11352539 C-2.41047852 6.14415039 -2.59610352 5.17477539 -2.78735352 4.17602539 C-2.93172852 3.16540039 -3.07610352 2.15477539 -3.22485352 1.11352539 C-2.22485352 0.11352539 -2.22485352 0.11352539 0 0 Z " fill="#F69150" transform="translate(44.224853515625,159.886474609375)"/>
<path d="M0 0 C44.22 0 88.44 0 134 0 C133.34 1.32 132.68 2.64 132 4 C87.78 4 43.56 4 -2 4 C-2 3.34 -2 2.68 -2 2 C-1.34 2 -0.68 2 0 2 C0 1.34 0 0.68 0 0 Z " fill="#FE914A" transform="translate(45,43)"/>
<path d="M0 0 C3.63224086 5.08513721 3.34849551 9.76922276 2.6953125 15.86328125 C1.66318167 20.51946696 -0.14630056 23.22233352 -4 26 C-8.76035583 28.66926835 -13.56869213 29.85757493 -19 29 C-22.34295724 27.39280902 -25.42549216 25.69126557 -28 23 C-28.25390625 20.29296875 -28.25390625 20.29296875 -28 18 C-27.3709375 18.22816406 -26.741875 18.45632812 -26.09375 18.69140625 C-20.224603 20.66252038 -16.03759459 21.63731379 -10 20 C-6.8213759 17.4300486 -5.29271891 15.87815673 -4 12 C-3.9314505 10.10529184 -3.91519628 8.2083166 -3.9375 6.3125 C-3.94652344 5.31863281 -3.95554688 4.32476562 -3.96484375 3.30078125 C-3.97644531 2.54152344 -3.98804688 1.78226563 -4 1 C-2 0 -2 0 0 0 Z " fill="#F6914F" transform="translate(171,165)"/>
<path d="M0 0 C0.33 0 0.66 0 1 0 C1.33 41.91 1.66 83.82 2 127 C0.68 126.67 -0.64 126.34 -2 126 C-2.28875 127.0725 -2.5775 128.145 -2.875 129.25 C-3.72820109 132.09400364 -4.5636503 134.43508983 -6 137 C-5.34 137 -4.68 137 -4 137 C-4.99 138.98 -4.99 138.98 -6 141 C-6.33 141 -6.66 141 -7 141 C-7.33 139.35 -7.66 137.7 -8 136 C-8.680625 136.70125 -9.36125 137.4025 -10.0625 138.125 C-13.23649778 141.23146591 -16.62797804 144.10969547 -20 147 C-12.08 147.33 -4.16 147.66 4 148 C4 148.33 4 148.66 4 149 C-4.91 149 -13.82 149 -23 149 C-20.7908974 145.31816233 -19.17904642 142.91315943 -16.3125 139.93359375 C-15.61382812 139.20076172 -14.91515625 138.46792969 -14.1953125 137.71289062 C-13.10863281 136.58657227 -13.10863281 136.58657227 -12 135.4375 C-10.56065391 133.93796773 -9.1230885 132.43672377 -7.6875 130.93359375 C-7.05199219 130.27415771 -6.41648437 129.61472168 -5.76171875 128.93530273 C-2.34895152 125.18627199 -0.62784827 123.0582614 -0.60127258 117.84942627 C-0.58873444 116.80898666 -0.57619629 115.76854706 -0.5632782 114.69657898 C-0.56471329 113.56081924 -0.56614838 112.42505951 -0.56762695 111.25488281 C-0.5574353 110.05460953 -0.54724365 108.85433624 -0.53674316 107.61769104 C-0.51173273 104.33077976 -0.49988832 101.04413692 -0.49388909 97.75714588 C-0.48450624 94.32042907 -0.45830297 90.88384153 -0.43388367 87.44720459 C-0.3902124 80.94145024 -0.36166937 74.43572098 -0.33856028 67.92986465 C-0.31151191 60.52234152 -0.26760023 53.11494841 -0.22227156 45.7075181 C-0.12941635 30.47174556 -0.05773971 15.23594853 0 0 Z " fill="#E79767" transform="translate(31,13)"/>
<path d="M0 0 C44.55 0 89.1 0 135 0 C135 0.33 135 0.66 135 1 C134.31916257 1.00146656 133.63832514 1.00293312 132.93685627 1.00444412 C116.36974131 1.04149753 99.80286453 1.10049255 83.23592091 1.18390274 C75.2242531 1.22371037 67.21268377 1.25609405 59.20092773 1.27099609 C52.21778085 1.28400374 45.23485047 1.31094549 38.25182551 1.35461307 C34.55438908 1.37724814 30.85721989 1.39290948 27.15970802 1.39188385 C23.03170236 1.39099991 18.90448617 1.42122474 14.77661133 1.45410156 C13.55093948 1.4490712 12.32526764 1.44404083 11.06245422 1.43885803 C4.54440321 1.44857578 4.54440321 1.44857578 -1.29853821 4.03411865 C-1.8600206 4.6828595 -2.42150299 5.33160034 -3 6 C-3 5.34 -3 4.68 -3 4 C-3.66 3.67 -4.32 3.34 -5 3 C-3.68 3 -2.36 3 -1 3 C-0.67 2.01 -0.34 1.02 0 0 Z " fill="#D99669" transform="translate(34,140)"/>
<path d="M0 0 C0.99 0 1.98 0 3 0 C2.67 1.32 2.34 2.64 2 4 C1.01 3.67 0.02 3.34 -1 3 C-1.28875 4.0725 -1.5775 5.145 -1.875 6.25 C-2.72820109 9.09400364 -3.5636503 11.43508983 -5 14 C-4.34 14 -3.68 14 -3 14 C-3.66 15.32 -4.32 16.64 -5 18 C-5.33 18 -5.66 18 -6 18 C-6.33 16.35 -6.66 14.7 -7 13 C-7.680625 13.70125 -8.36125 14.4025 -9.0625 15.125 C-12.23649778 18.23146591 -15.62797804 21.10969547 -19 24 C-11.08 24.33 -3.16 24.66 5 25 C5 25.33 5 25.66 5 26 C-3.91 26 -12.82 26 -22 26 C-19.7908974 22.31816233 -18.17904642 19.91315943 -15.3125 16.93359375 C-14.61382812 16.20076172 -13.91515625 15.46792969 -13.1953125 14.71289062 C-12.10863281 13.58657227 -12.10863281 13.58657227 -11 12.4375 C-9.56065391 10.93796773 -8.1230885 9.43672377 -6.6875 7.93359375 C-5.73423828 6.9444397 -5.73423828 6.9444397 -4.76171875 5.93530273 C-2.94128525 4.02367825 -2.94128525 4.02367825 -1.45703125 1.75415039 C-0.73580078 0.88584595 -0.73580078 0.88584595 0 0 Z " fill="#EA955A" transform="translate(30,136)"/>
<path d="M0 0 C0.9583374 0.00523682 1.9166748 0.01047363 2.90405273 0.01586914 C4.45576172 0.02070313 4.45576172 0.02070313 6.03881836 0.02563477 C7.12743164 0.03401367 8.21604492 0.04239258 9.33764648 0.05102539 C10.97636719 0.05779297 10.97636719 0.05779297 12.64819336 0.06469727 C15.35723144 0.07652713 18.06616248 0.09300996 20.77514648 0.11352539 C21.10514648 0.77352539 21.43514648 1.43352539 21.77514648 2.11352539 C20.12514648 2.44352539 18.47514648 2.77352539 16.77514648 3.11352539 C17.10514648 3.77352539 17.43514648 4.43352539 17.77514648 5.11352539 C16.75420898 4.61852539 16.75420898 4.61852539 15.71264648 4.11352539 C11.16154759 2.56421513 7.44464089 2.3546643 3.02514648 4.36352539 C-0.08805895 6.7849074 -1.91355273 8.3666142 -2.62719727 12.37133789 C-2.88433489 14.61865027 -3.08497179 16.85612378 -3.22485352 19.11352539 C-3.55485352 19.11352539 -3.88485352 19.11352539 -4.22485352 19.11352539 C-4.55485352 15.15352539 -4.88485352 11.19352539 -5.22485352 7.11352539 C-4.23485352 7.11352539 -3.24485352 7.11352539 -2.22485352 7.11352539 C-2.41047852 6.14415039 -2.59610352 5.17477539 -2.78735352 4.17602539 C-2.93172852 3.16540039 -3.07610352 2.15477539 -3.22485352 1.11352539 C-2.22485352 0.11352539 -2.22485352 0.11352539 0 0 Z " fill="#F2975C" transform="translate(44.224853515625,159.886474609375)"/>
<path d="M0 0 C0.99 0.33 1.98 0.66 3 1 C2.525625 1.598125 2.05125 2.19625 1.5625 2.8125 C-0.39110974 6.79786388 -0.45111689 10.18230767 -0.59375 14.57421875 C-0.7278125 15.37472656 -0.861875 16.17523438 -1 17 C-1.99 17.66 -2.98 18.32 -4 19 C-6.33368594 15.49947109 -6.24221979 14.00385663 -6.1875 9.875 C-6.18105469 8.79992187 -6.17460937 7.72484375 -6.16796875 6.6171875 C-6 4 -6 4 -5 3 C-3.33382885 2.95936168 -1.66611905 2.957279 0 3 C0 2.01 0 1.02 0 0 Z " fill="#F79052" transform="translate(144,165)"/>
<path d="M0 0 C1.65 0.33 3.3 0.66 5 1 C5.12375 1.804375 5.2475 2.60875 5.375 3.4375 C5.684375 4.7059375 5.684375 4.7059375 6 6 C6.66 6.33 7.32 6.66 8 7 C7 8 7 8 5.15234375 8.09765625 C3.1015625 8.06510417 1.05078125 8.03255208 -1 8 C-1.625 5.6875 -1.625 5.6875 -2 3 C-1.34 2.01 -0.68 1.02 0 0 Z " fill="#FC954B" transform="translate(50,186)"/>
<path d="M0 0 C2.41486943 2.41486943 2.2961925 3.12707789 2.3125 6.4375 C2.32925781 7.21996094 2.34601563 8.00242187 2.36328125 8.80859375 C1.9214645 11.47374643 1.09333919 12.35182662 -1 14 C-1.33 14 -1.66 14 -2 14 C-2 9.71 -2 5.42 -2 1 C-1.34 0.67 -0.68 0.34 0 0 Z " fill="#FD8F4B" transform="translate(176,89)"/>
<path d="M0 0 C8.58 0 17.16 0 26 0 C25.67 0.66 25.34 1.32 25 2 C24.04738281 1.97679687 23.09476563 1.95359375 22.11328125 1.9296875 C20.85902344 1.91164062 19.60476562 1.89359375 18.3125 1.875 C17.07113281 1.85179687 15.82976562 1.82859375 14.55078125 1.8046875 C11.18762143 1.98967979 9.0014413 2.54232105 6 4 C6 3.34 6 2.68 6 2 C4.35 2 2.7 2 1 2 C0.67 1.34 0.34 0.68 0 0 Z " fill="#F39C64" transform="translate(141,161)"/>
<path d="M0 0 C3.465 1.98 3.465 1.98 7 4 C6.34 6.31 5.68 8.62 5 11 C2.97954558 10.39816251 0.97888961 9.72693904 -1 9 C-1.33 8.34 -1.66 7.68 -2 7 C-0.68 7.33 0.64 7.66 2 8 C1.47731534 5.23723823 0.89130413 2.6739124 0 0 Z " fill="#ED9259" transform="translate(43,182)"/>
<path d="M0 0 C2.89932357 2.39509338 3.50168276 4.31245243 4 8 C1.525 7.01 1.525 7.01 -1 6 C-1.33 7.98 -1.66 9.96 -2 12 C-3.41377341 9.36095629 -4.37240135 6.92879371 -5 4 C-3.35 4 -1.7 4 0 4 C0 2.68 0 1.36 0 0 Z " fill="#EC915B" transform="translate(68,162)"/>
<path d="M0 0 C0 1.32 0 2.64 0 4 C-4.75 5.125 -4.75 5.125 -7 4 C-7 2.68 -7 1.36 -7 0 C-3.98968256 -0.93423645 -3.13349732 -1.04449911 0 0 Z " fill="#F19359" transform="translate(180,156)"/>
<path d="M0 0 C1.875 0.25 1.875 0.25 4 1 C5.3125 2.9375 5.3125 2.9375 6 5 C5.67 5.66 5.34 6.32 5 7 C3.68 6.67 2.36 6.34 1 6 C0.67 4.02 0.34 2.04 0 0 Z " fill="#FD8F48" transform="translate(40,183)"/>
<path d="M0 0 C2 3 2 3 2 5 C3.32 5.33 4.64 5.66 6 6 C6.33 7.98 6.66 9.96 7 12 C1.30837004 7.8061674 1.30837004 7.8061674 0 4 C0 2.68 0 1.36 0 0 Z " fill="#E7925C" transform="translate(34,177)"/>
<path d="M0 0 C-0.33 0.66 -0.66 1.32 -1 2 C-3.64 2 -6.28 2 -9 2 C-9.33 1.34 -9.66 0.68 -10 0 C-6.22996568 -2.61002376 -4.07631429 -1.66758312 0 0 Z " fill="#F1953D" transform="translate(58,192)"/>
<path d="M0 0 C0.95465783 2.16967689 1.14401212 3.56328793 0.3984375 5.82421875 C-0.35870385 7.5684743 -1.17609198 9.28627131 -2 11 C-2.33 11 -2.66 11 -3 11 C-3.32613618 6.32538149 -2.70582788 3.83325617 0 0 Z " fill="#EC935C" transform="translate(37,163)"/>
<path d="M0 0 C0.33 1.65 0.66 3.3 1 5 C-1.31 4.67 -3.62 4.34 -6 4 C-2.25 0 -2.25 0 0 0 Z " fill="#FC9643" transform="translate(166,186)"/>
<path d="" fill="#FFFFFF" transform="translate(0,0)"/>
<path d="" fill="#FFFFFF" transform="translate(0,0)"/>
<path d="" fill="#FFFFFF" transform="translate(0,0)"/>
<path d="" fill="#FFFFFF" transform="translate(0,0)"/>
<path d="" fill="#FFFFFF" transform="translate(0,0)"/>
<path d="" fill="#FFFFFF" transform="translate(0,0)"/>
<path d="" fill="#FFFFFF" transform="translate(0,0)"/>
<path d="" fill="#FFFFFF" transform="translate(0,0)"/>
<path d="" fill="#FFFFFF" transform="translate(0,0)"/>
</svg>
