<?xml version="1.0" encoding="UTF-8"?>
<svg version="1.1" xmlns="http://www.w3.org/2000/svg" width="385" height="189">
<path d="M0 0 C1.30066406 -0.00128906 2.60132813 -0.00257812 3.94140625 -0.00390625 C4.96258545 -0.00076416 4.96258545 -0.00076416 6.00439453 0.00244141 C8.08503515 0.0077901 10.16545989 0.0024957 12.24609375 -0.00390625 C14.19708984 -0.00197266 14.19708984 -0.00197266 16.1875 0 C17.39083984 0.00112793 18.59417969 0.00225586 19.83398438 0.00341797 C22.59375 0.1328125 22.59375 0.1328125 23.59375 1.1328125 C23.75233842 3.27667907 23.84504298 5.42548088 23.91015625 7.57421875 C23.95205078 8.87939453 23.99394531 10.18457031 24.03710938 11.52929688 C24.07692608 12.9179658 24.11663825 14.30663772 24.15625 15.6953125 C24.19942989 17.08790433 24.243044 18.48048278 24.28710938 19.87304688 C24.39360876 23.29286051 24.49561923 26.71275013 24.59375 30.1328125 C25.20758891 30.13004712 25.82142782 30.12728174 26.45386791 30.12443256 C41.39350542 30.05816454 56.33311254 30.00852796 71.27286053 29.97737598 C78.49763456 29.96191049 85.72231045 29.94082713 92.94702148 29.90649414 C99.24446596 29.87658195 105.54183936 29.85723518 111.83935291 29.85054702 C115.17353295 29.84663779 118.50746235 29.83588195 121.84158897 29.81562233 C125.56468213 29.7938957 129.28735186 29.79084366 133.01049805 29.79223633 C134.66666641 29.77605759 134.66666641 29.77605759 136.35629272 29.759552 C142.97830196 29.78641594 146.77591017 30.31497267 151.59375 35.1328125 C152.90086421 44.49834927 150.62024048 54.47246567 149.28125 63.7578125 C148.81544048 67.05419092 148.35452357 70.35124282 147.89453125 73.6484375 C147.78065063 74.4602951 147.66677002 75.27215271 147.54943848 76.10861206 C146.42125818 84.22194137 145.48102466 92.35485805 144.6706543 100.50634766 C143.33139722 112.752523 143.33139722 112.752523 138.673172 116.8026886 C134.01913528 118.81295074 129.61208817 118.50545782 124.59643555 118.43823242 C122.93212494 118.43424438 122.93212494 118.43424438 121.23419189 118.43017578 C118.82679886 118.42322445 116.41941778 118.40980236 114.01209068 118.3906765 C110.19936045 118.36305589 106.38724018 118.35814093 102.57441711 118.36018372 C91.73467759 118.36371674 80.89539867 118.34116503 70.0559082 118.2668457 C63.42341806 118.22163739 56.7916676 118.21859619 50.15900612 118.23842812 C47.63405804 118.23833062 45.10906514 118.2234714 42.58429527 118.19347191 C39.04824147 118.15257622 35.51541378 118.16106135 31.97924805 118.18041992 C30.94053055 118.15629532 29.90181305 118.13217072 28.83161926 118.10731506 C23.08728272 118.19646641 20.11393473 118.97938295 15.94465637 123.06733704 C14.18713404 125.05579895 12.77878056 126.76275139 11.59375 129.1328125 C55.81375 129.1328125 100.03375 129.1328125 145.59375 129.1328125 C145.92375 130.7828125 146.25375 132.4328125 146.59375 134.1328125 C143.94636084 135.593441 142.69926666 136.1328125 139.59375 136.1328125 C139.83351563 136.67808594 140.07328125 137.22335938 140.3203125 137.78515625 C142.65722319 143.72903779 143.18372812 148.18344852 140.59375 154.1328125 C137.9507489 158.17822234 135.16904882 161.36280639 130.59375 163.1328125 C124.43984818 163.84859866 118.77181479 163.83143021 113.59375 160.1328125 C109.5626134 156.28490938 107.92760804 153.03193158 106.5625 147.671875 C106.59375 145.1328125 106.59375 145.1328125 109.59375 137.1328125 C90.45375 136.8028125 71.31375 136.4728125 51.59375 136.1328125 C52.25375 138.4428125 52.91375 140.7528125 53.59375 143.1328125 C53.88094716 149.11608668 52.47756764 153.4938081 48.59375 158.1328125 C43.58640215 162.65163861 39.74278686 163.49078232 33.1640625 163.4140625 C27.97334865 162.84608165 24.75486903 160.38559882 21.21875 156.5703125 C18.87340902 153.05230103 18.43735954 150.33288172 18.40625 146.1953125 C18.39207031 145.34066406 18.37789062 144.48601562 18.36328125 143.60546875 C18.60671444 140.99371947 19.2759232 139.37780598 20.59375 137.1328125 C9.10688072 136.27472513 9.10688072 136.27472513 -2.40625 136.1328125 C-2.40625 132.1328125 -2.40625 132.1328125 -1.12109375 130.4921875 C-0.53457031 129.96109375 0.05195313 129.43 0.65625 128.8828125 C4.00463816 125.73138835 7.02671034 122.42141023 10.015625 118.9296875 C11.59375 117.1328125 11.59375 117.1328125 13.14985752 115.80586815 C14.99182112 113.67156269 15.07624566 112.35788054 15.27415466 109.56704712 C15.33844099 108.67620045 15.40272732 107.78535378 15.46896172 106.86751175 C15.66202293 102.63663104 15.72494457 98.42002047 15.70727539 94.18505859 C15.70742142 93.24725555 15.70756744 92.30945251 15.7077179 91.3432312 C15.70702798 88.28087959 15.69927924 85.21859082 15.69140625 82.15625 C15.68953879 80.01819899 15.68811644 77.88014754 15.68711853 75.74209595 C15.68331917 70.14278969 15.67351117 64.54350979 15.66241455 58.94421387 C15.65214469 53.21932329 15.64760901 47.49442841 15.64257812 41.76953125 C15.63188637 30.55728015 15.61484127 19.34504853 15.59375 8.1328125 C14.60193726 8.09522827 14.60193726 8.09522827 13.59008789 8.05688477 C10.61192695 7.94128148 7.6341108 7.81839496 4.65625 7.6953125 C3.61533203 7.65599609 2.57441406 7.61667969 1.50195312 7.57617188 C0.51259766 7.53427734 -0.47675781 7.49238281 -1.49609375 7.44921875 C-2.41253662 7.41256104 -3.32897949 7.37590332 -4.27319336 7.33813477 C-6.40625 7.1328125 -6.40625 7.1328125 -7.40625 6.1328125 C-7.53125 3.6328125 -7.53125 3.6328125 -7.40625 1.1328125 C-5.54910943 -0.72432807 -2.48117951 0.00232569 0 0 Z M23.59375 37.1328125 C23.59375 61.5528125 23.59375 85.9728125 23.59375 111.1328125 C60.55375 110.8028125 97.51375 110.4728125 135.59375 110.1328125 C143.41124839 74.73022172 143.41124839 74.73022172 143.59375 37.1328125 C103.99375 37.1328125 64.39375 37.1328125 23.59375 37.1328125 Z M26.71875 139.8203125 C25.05970024 143.23058145 24.91632438 146.46160269 25.59375 150.1328125 C27.38738911 152.9428471 28.61255935 154.64221718 31.59375 156.1328125 C37.40720947 156.66646763 37.40720947 156.66646763 42.53125 154.2578125 C45.89167854 150.79555279 46.05307458 148.07915648 46.0078125 143.39453125 C45.52543849 140.75967697 44.90239642 139.87816103 42.90625 138.1328125 C36.42404763 134.21902993 32.49302808 134.62346223 26.71875 139.8203125 Z M115.71875 139.8203125 C114.05970024 143.23058145 113.91632438 146.46160269 114.59375 150.1328125 C116.38738911 152.9428471 117.61255935 154.64221718 120.59375 156.1328125 C126.28839625 156.60894826 126.28839625 156.60894826 131.46875 154.5703125 C134.19202621 151.44655449 135.02766675 149.23691604 135.59375 145.1328125 C134.1485697 140.95784719 132.47431003 138.30136075 128.59375 136.1328125 C123.33535862 134.19551041 119.72767021 136.21228431 115.71875 139.8203125 Z " fill="#EC9359" transform="translate(223.40625,14.8671875)"/>
<path d="M0 0 C4.04152915 -0.08746928 8.08281305 -0.14054982 12.125 -0.1875 C13.26710938 -0.21263672 14.40921875 -0.23777344 15.5859375 -0.26367188 C22.34237079 -0.32259426 27.46237944 -0.30233939 32.64453125 4.53515625 C37.4075258 10.76368758 37.73449925 15.2061468 37 23 C34.79253037 27.57845553 31.94278794 29.91377129 28 33 C28.33322266 33.56509277 28.66644531 34.13018555 29.00976562 34.71240234 C30.51100669 37.26398724 32.0055726 39.819419 33.5 42.375 C34.02464844 43.26445313 34.54929688 44.15390625 35.08984375 45.0703125 C35.58613281 45.92109375 36.08242188 46.771875 36.59375 47.6484375 C37.05458984 48.43395996 37.51542969 49.21948242 37.99023438 50.02880859 C39 52 39 52 39 54 C32.565 54.495 32.565 54.495 26 55 C24.32553841 52.0667021 22.66024616 49.128828 21 46.1875 C20.52304687 45.35412109 20.04609375 44.52074219 19.5546875 43.66210938 C19.10351562 42.85966797 18.65234375 42.05722656 18.1875 41.23046875 C17.76855469 40.49207764 17.34960938 39.75368652 16.91796875 38.99291992 C16 37 16 37 16 34 C12.88214887 34.64644661 12.88214887 34.64644661 12 37 C11.76725791 39.87910588 11.58027243 42.74146495 11.4375 45.625 C11.39431641 46.42679688 11.35113281 47.22859375 11.30664062 48.0546875 C11.20048543 50.0362511 11.09973145 52.01810271 11 54 C9.18818595 54.19401633 7.37551468 54.38004375 5.5625 54.5625 C4.04849609 54.71912109 4.04849609 54.71912109 2.50390625 54.87890625 C1.26447266 54.93884766 1.26447266 54.93884766 0 55 C-2.12054673 52.87945327 -1.46358777 48.4386521 -1.625 45.5 C-1.70234375 44.30310547 -1.70234375 44.30310547 -1.78125 43.08203125 C-1.89815938 41.05674813 -1.95390612 39.02813088 -2 37 C-1.505 36.505 -1.505 36.505 -1 36 C-0.83996512 33.33573315 -0.74057111 30.69439572 -0.68359375 28.02734375 C-0.66281265 27.22970108 -0.64203156 26.43205841 -0.62062073 25.61024475 C-0.55503842 23.05275389 -0.49620033 20.4951572 -0.4375 17.9375 C-0.39432301 16.20767118 -0.35070899 14.47785321 -0.30664062 12.74804688 C-0.19934828 8.4988074 -0.09810574 4.2494611 0 0 Z M11 12 C11 15.63 11 19.26 11 23 C12.753125 23.061875 14.50625 23.12375 16.3125 23.1875 C17.29863281 23.22230469 18.28476562 23.25710937 19.30078125 23.29296875 C22.04574389 23.24278108 22.04574389 23.24278108 23.85546875 21.48828125 C24.23316406 20.99714844 24.61085938 20.50601563 25 20 C24.1395861 15.66770285 24.1395861 15.66770285 22 12 C18.3308423 11.85689713 14.67284559 11.95778338 11 12 Z " fill="#FBFDFD" transform="translate(9,23)"/>
<path d="M0 0 C28.80769231 0 28.80769231 0 37.375 8.25 C42.80000955 15.24223454 44.04910597 23.34487575 43 32 C41.21703656 39.87475521 38.33529438 44.9930738 32 50 C22 54 22 54 0 54 C0 36.18 0 18.36 0 0 Z M11 11 C10.97526132 14.93268867 10.95712165 18.86534713 10.94506836 22.7980957 C10.93757271 24.79314768 10.92486655 26.78817786 10.91210938 28.78320312 C10.90888672 30.03681641 10.90566406 31.29042969 10.90234375 32.58203125 C10.89710693 33.73936768 10.89187012 34.8967041 10.88647461 36.08911133 C10.86700539 39.06604411 10.86700539 39.06604411 12 42 C17.5363887 41.64321051 22.33059565 41.25772396 27 38 C30.49124366 33.70308473 31.30828756 30.96411837 31 25.4375 C30.34075117 20.72580986 29.35248749 17.5289342 26 14 C22.16265482 11.78614701 19.13750933 10.84805481 14.765625 10.9296875 C12.90164062 10.96449219 12.90164062 10.96449219 11 11 Z " fill="#FAFDFD" transform="translate(46,97)"/>
<path d="M0 0 C-0.11351517 1.81325551 -0.24112961 3.62563357 -0.375 5.4375 C-0.44460937 6.44683594 -0.51421875 7.45617187 -0.5859375 8.49609375 C-0.72257812 9.32238281 -0.85921875 10.14867188 -1 11 C-3.87038534 12.43519267 -5.84614432 11.52564261 -9 11 C-15.44834688 10.48822644 -18.76502423 11.09942982 -24 15 C-27.36967157 19.67406056 -27.87427448 24.41435747 -27 30 C-25.6694879 33.71255796 -23.77818167 36.36904189 -20.6875 38.875 C-17.39359015 40.38639706 -17.39359015 40.38639706 -11 41 C-11 35.72 -11 30.44 -11 25 C-7.04 25 -3.08 25 1 25 C1 32.92 1 40.84 1 49 C-7.43747532 53.21873766 -13.47015081 54.81708601 -22.625 52.26953125 C-29.97976869 49.22575029 -34.87743119 45.1561197 -38.23828125 37.8671875 C-41.09222519 30.87136594 -41.21366833 22.30455264 -39.1640625 15.03515625 C-35.82619458 7.76577276 -31.12874771 2.85081794 -23.828125 -0.421875 C-15.112169 -3.40466883 -8.66110526 -2.93499248 0 0 Z " fill="#FAFDFD" transform="translate(136,98)"/>
<path d="M0 0 C0.99 0.33 1.98 0.66 3 1 C4.2109375 3.5546875 4.2109375 3.5546875 5.375 6.875 C6.8485359 11.03498229 8.44576984 15.03297616 10.30078125 19.0390625 C13.11306496 25.15012989 15.62115328 31.36613556 18.0769043 37.62792969 C18.82340783 39.52776012 19.5785313 41.42402566 20.33398438 43.3203125 C21.04458008 45.12628906 21.04458008 45.12628906 21.76953125 46.96875 C22.19854736 48.05607422 22.62756348 49.14339844 23.06958008 50.26367188 C24 53 24 53 24 56 C19.71 56 15.42 56 11 56 C10.34 54.68 9.68 53.36 9 52 C4.05 52 -0.9 52 -6 52 C-6.66 53.32 -7.32 54.64 -8 56 C-12.62 56 -17.24 56 -22 56 C-19.79895298 49.15058795 -17.26578252 42.50060176 -14.55078125 35.83984375 C-14.13330124 34.80936417 -13.71582123 33.77888458 -13.28569031 32.71717834 C-11.96388689 29.45622644 -10.63825802 26.19684586 -9.3125 22.9375 C-8.41055316 20.71429579 -7.50885791 18.4909895 -6.60742188 16.26757812 C-4.40785593 10.84386816 -2.20515495 5.42143984 0 0 Z M1 29 C0.67 29.66 0.34 30.32 0 31 C0.33 31.66 0.66 32.32 1 33 C0.34 33 -0.32 33 -1 33 C-1.99 36.465 -1.99 36.465 -3 40 C0.465 39.505 0.465 39.505 4 39 C3.41825155 33.6913151 3.41825155 33.6913151 1 29 Z " fill="#FBFDFD" transform="translate(144,21)"/>
<path d="M0 0 C1.12591553 0.00523682 2.25183105 0.01047363 3.41186523 0.01586914 C4.62680664 0.0190918 5.84174805 0.02231445 7.09350586 0.02563477 C8.37290039 0.03401367 9.65229492 0.04239258 10.97045898 0.05102539 C12.2537207 0.05553711 13.53698242 0.06004883 14.85913086 0.06469727 C18.04211921 0.07652994 21.22501661 0.09301471 24.40795898 0.11352539 C26.23471318 3.76703377 24.86305066 8.16939751 24.40795898 12.11352539 C19.45795898 12.44352539 14.50795898 12.77352539 9.40795898 13.11352539 C9.40795898 15.75352539 9.40795898 18.39352539 9.40795898 21.11352539 C16.33795898 21.60852539 16.33795898 21.60852539 23.40795898 22.11352539 C23.40795898 25.74352539 23.40795898 29.37352539 23.40795898 33.11352539 C18.78795898 33.44352539 14.16795898 33.77352539 9.40795898 34.11352539 C9.40795898 36.09352539 9.40795898 38.07352539 9.40795898 40.11352539 C12.26589214 42.97145855 14.55461482 42.5215248 18.53295898 42.73852539 C19.81428711 42.81329102 21.09561523 42.88805664 22.41577148 42.96508789 C23.40319336 43.01407227 24.39061523 43.06305664 25.40795898 43.11352539 C25.40795898 46.74352539 25.40795898 50.37352539 25.40795898 54.11352539 C15.83795898 54.44352539 6.26795898 54.77352539 -3.59204102 55.11352539 C-3.61494297 47.44136934 -3.63487222 39.76933092 -3.64697266 32.09716797 C-3.65201478 29.4848592 -3.65884827 26.87255328 -3.66748047 24.26025391 C-3.67955137 20.51472271 -3.68527037 16.76922867 -3.68969727 13.02368164 C-3.69485855 11.84765884 -3.70001984 10.67163605 -3.70533752 9.4599762 C-3.70545082 7.83840858 -3.70545082 7.83840858 -3.70556641 6.18408203 C-3.70778702 5.22699844 -3.71000763 4.26991486 -3.71229553 3.28382874 C-3.53559202 0.09475747 -3.21481474 0.14080144 0 0 Z " fill="#FBFDFD" transform="translate(11.592041015625,95.886474609375)"/>
<path d="M0 0 C9.24 0 18.48 0 28 0 C28 3.63 28 7.26 28 11 C22.72 11 17.44 11 12 11 C12 14.3 12 17.6 12 21 C13.19625 20.814375 14.3925 20.62875 15.625 20.4375 C19.28283707 19.9688803 22.37862166 20.18518987 26 21 C26 24.63 26 28.26 26 32 C21.38 32 16.76 32 12 32 C12 35.3 12 38.6 12 42 C17.61 42 23.22 42 29 42 C29 45.96 29 49.92 29 54 C19.43 53.67 9.86 53.34 0 53 C0 35.51 0 18.02 0 0 Z " fill="#FBFDFD" transform="translate(147,97)"/>
<path d="M0 0 C9.24 0 18.48 0 28 0 C28 3.63 28 7.26 28 11 C22.72 11 17.44 11 12 11 C12 14.3 12 17.6 12 21 C16.62 20.67 21.24 20.34 26 20 C26 23.96 26 27.92 26 32 C21.38 32 16.76 32 12 32 C12 35.3 12 38.6 12 42 C12.99 41.505 12.99 41.505 14 41 C16.37402501 40.92883618 18.75000677 40.91590915 21.125 40.9375 C22.40632813 40.94652344 23.68765625 40.95554688 25.0078125 40.96484375 C25.99523437 40.97644531 26.98265625 40.98804688 28 41 C29 44 29 44 28 53 C18.76 53.33 9.52 53.66 0 54 C-1.26218322 51.47563356 -1.08309335 49.82229412 -1.02172852 46.99951172 C-0.99158409 45.43811966 -0.99158409 45.43811966 -0.96083069 43.84518433 C-0.93379562 42.71807037 -0.90676056 41.59095642 -0.87890625 40.4296875 C-0.85529526 39.27832306 -0.83168427 38.12695862 -0.80735779 36.94070435 C-0.7305941 33.25201473 -0.64662433 29.56352839 -0.5625 25.875 C-0.50929205 23.3789163 -0.45655158 20.88282259 -0.40429688 18.38671875 C-0.27584325 12.25764595 -0.13765672 6.12890075 0 0 Z " fill="#FAFDFD" transform="translate(54,24)"/>
<path d="M0 0 C1.60279192 0.00015914 3.20558896 0.00585476 4.80834961 0.01586914 C5.65038437 0.01728409 6.49241913 0.01869904 7.35997009 0.02015686 C10.06024671 0.02577276 12.76044163 0.03832791 15.46069336 0.05102539 C17.28686404 0.05603834 19.11303602 0.06060161 20.93920898 0.06469727 C25.42556878 0.07574735 29.9118672 0.0930226 34.39819336 0.11352539 C34.39819336 4.07352539 34.39819336 8.03352539 34.39819336 12.11352539 C27.96319336 12.60852539 27.96319336 12.60852539 21.39819336 13.11352539 C21.06819336 26.64352539 20.73819336 40.17352539 20.39819336 54.11352539 C14.95319336 54.60852539 14.95319336 54.60852539 9.39819336 55.11352539 C7.67832821 51.67379508 8.40415277 47.72481421 8.51928711 43.94946289 C8.5428981 43.04225494 8.56650909 42.135047 8.59083557 41.2003479 C8.66754857 38.29625088 8.75154001 35.39241542 8.83569336 32.48852539 C8.8889064 30.52239245 8.94164685 28.55624667 8.99389648 26.59008789 C9.12317405 21.76440071 9.25898062 16.93893577 9.39819336 12.11352539 C4.77819336 12.11352539 0.15819336 12.11352539 -4.60180664 12.11352539 C-4.69946289 3.61743164 -4.69946289 3.61743164 -4.60180664 1.11352539 C-3.60180664 0.11352539 -3.60180664 0.11352539 0 0 Z " fill="#FCFDFD" transform="translate(90.601806640625,22.886474609375)"/>
<path d="M0 0 C1.51400391 0.01740234 1.51400391 0.01740234 3.05859375 0.03515625 C4.07050781 0.04417969 5.08242187 0.05320312 6.125 0.0625 C7.29869141 0.07990234 7.29869141 0.07990234 8.49609375 0.09765625 C9.81197465 4.04529895 9.61909648 7.80854981 9.59375 11.921875 C9.59233505 12.78327591 9.5909201 13.64467682 9.58946228 14.53218079 C9.58386515 17.28320794 9.57131321 20.03415369 9.55859375 22.78515625 C9.55357838 24.65038945 9.54901554 26.51562392 9.54492188 28.38085938 C9.53389667 32.95315636 9.51663402 37.5253925 9.49609375 42.09765625 C14.77609375 42.09765625 20.05609375 42.09765625 25.49609375 42.09765625 C26.49609375 45.09765625 26.49609375 45.09765625 26.49609375 54.09765625 C16.92609375 54.42765625 7.35609375 54.75765625 -2.50390625 55.09765625 C-3.4933548 52.1293106 -3.63055242 50.18767061 -3.63330078 47.09130859 C-3.63645294 46.07370453 -3.6396051 45.05610046 -3.64285278 44.00765991 C-3.64082855 42.91071808 -3.63880432 41.81377625 -3.63671875 40.68359375 C-3.63767548 39.55821198 -3.6386322 38.4328302 -3.63961792 37.27334595 C-3.64029863 34.89446965 -3.63845193 32.51559149 -3.63427734 30.13671875 C-3.62891764 26.48042672 -3.63423117 22.82425699 -3.640625 19.16796875 C-3.6399644 16.86067681 -3.6386836 14.55338495 -3.63671875 12.24609375 C-3.63874298 11.14510345 -3.64076721 10.04411316 -3.64285278 8.90975952 C-3.63970062 7.89845978 -3.63654846 6.88716003 -3.63330078 5.84521484 C-3.63250519 4.95047455 -3.63170959 4.05573425 -3.63088989 3.13388062 C-3.44106762 0.09001819 -3.06531887 0.11955222 0 0 Z " fill="#FBFDFD" transform="translate(199.50390625,22.90234375)"/>
<path d="M0 0 C0 17.49 0 34.98 0 53 C-4.29 53 -8.58 53 -13 53 C-13 35.51 -13 18.02 -13 0 C-4 -1 -4 -1 0 0 Z " fill="#FBFEFD" transform="translate(187,24)"/>
<path d="M0 0 C3.88061528 0.14361496 7.76197481 0.26252224 11.64343262 0.38082886 C12.51198883 0.40747116 13.38054504 0.43411346 14.27542114 0.46156311 C27.16109441 0.84052857 40.05153302 1.02594872 52.94087601 1.23459625 C54.98096324 1.26763667 57.02104549 1.30097137 59.06112671 1.3343811 C66.78252969 1.4606664 74.50397206 1.58431451 82.22546387 1.70504761 C82.22546387 3.02504761 82.22546387 4.34504761 82.22546387 5.70504761 C45.59546387 5.70504761 8.96546387 5.70504761 -28.77453613 5.70504761 C-27.77453613 2.70504761 -27.77453613 2.70504761 -25.83703613 1.58004761 C-17.40604745 -0.8288063 -8.67658931 -0.32405835 0 0 Z " fill="#FA924C" transform="translate(272.7745361328125,125.29495239257813)"/>
<path d="M0 0 C1.65 0.33 3.3 0.66 5 1 C6.00970658 4.02911974 6.13246359 6.08139639 6.14526367 9.25 C6.15164352 10.32121094 6.15802338 11.39242187 6.16459656 12.49609375 C6.16570938 13.65238281 6.1668222 14.80867188 6.16796875 16 C6.17129715 17.18722656 6.17462555 18.37445313 6.17805481 19.59765625 C6.18312041 22.10937105 6.18546325 24.62109259 6.18530273 27.1328125 C6.18749119 30.98448702 6.20565647 34.83587611 6.22460938 38.6875 C6.22754291 41.12499902 6.22952797 43.5624994 6.23046875 46 C6.23765427 47.15628906 6.24483978 48.31257813 6.25224304 49.50390625 C6.24916641 50.57511719 6.24608978 51.64632812 6.24291992 52.75 C6.24434494 53.69359375 6.24576996 54.6371875 6.24723816 55.609375 C6 58 6 58 4 61 C-0.875 60.125 -0.875 60.125 -2 59 C-2.10403092 57.30287021 -2.13853193 55.60142498 -2.14526367 53.90112305 C-2.15164352 52.81296799 -2.15802338 51.72481293 -2.16459656 50.60368347 C-2.16570938 49.41833511 -2.1668222 48.23298676 -2.16796875 47.01171875 C-2.17129715 45.80183792 -2.17462555 44.59195709 -2.17805481 43.34541321 C-2.18313 40.77886334 -2.18546295 38.21230684 -2.18530273 35.64575195 C-2.18748479 31.71489572 -2.20562235 27.78432197 -2.22460938 23.85351562 C-2.22754402 21.3645843 -2.22952834 18.87565163 -2.23046875 16.38671875 C-2.23765427 15.20744308 -2.24483978 14.02816742 -2.25224304 12.81315613 C-2.24916641 11.71554459 -2.24608978 10.61793304 -2.24291992 9.48706055 C-2.24434494 8.52189011 -2.24576996 7.55671967 -2.24723816 6.56230164 C-1.99141045 3.91098046 -1.35066875 2.27264179 0 0 Z " fill="#F8914E" transform="translate(300,55)"/>
<path d="M0 0 C2.4375 0.375 2.4375 0.375 5 1 C6.27899046 3.55798092 6.13396991 5.38026857 6.14526367 8.24414062 C6.15483345 9.88594299 6.15483345 9.88594299 6.16459656 11.56091309 C6.16570938 12.74737427 6.1668222 13.93383545 6.16796875 15.15625 C6.17129715 16.36945923 6.17462555 17.58266846 6.17805481 18.8326416 C6.18312476 21.40160746 6.18546311 23.97057992 6.18530273 26.53955078 C6.18749085 30.48350788 6.20565065 34.42718613 6.22460938 38.37109375 C6.22754287 40.86197821 6.22952796 43.352864 6.23046875 45.84375 C6.23765427 47.03021118 6.24483978 48.21667236 6.25224304 49.43908691 C6.24916641 50.53362183 6.24608978 51.62815674 6.24291992 52.75585938 C6.24434494 53.72245483 6.24576996 54.68905029 6.24723816 55.68493652 C6 58 6 58 4 60 C1.4375 59.75 1.4375 59.75 -1 59 C-2.25304614 56.49390772 -2.13370764 54.77556734 -2.14526367 51.97119141 C-2.15164352 50.92315338 -2.15802338 49.87511536 -2.16459656 48.7953186 C-2.16570938 47.65887909 -2.1668222 46.52243958 -2.16796875 45.3515625 C-2.17129715 44.18748871 -2.17462555 43.02341492 -2.17805481 41.82406616 C-2.18312524 39.3576497 -2.1854631 36.89122636 -2.18530273 34.42480469 C-2.18748689 30.64767151 -2.20563526 26.87083137 -2.22460938 23.09375 C-2.2275437 20.70052184 -2.22952823 18.30729228 -2.23046875 15.9140625 C-2.23765427 14.78167145 -2.24483978 13.6492804 -2.25224304 12.48257446 C-2.24916641 11.42823212 -2.24608978 10.37388977 -2.24291992 9.28759766 C-2.24434494 8.36097321 -2.24576996 7.43434875 -2.24723816 6.47964478 C-1.98754151 3.87504911 -1.32050965 2.23861178 0 0 Z " fill="#EB9257" transform="translate(339,56)"/>
<path d="M0 0 C4.70588235 0.70588235 4.70588235 0.70588235 6 2 C6.10416793 3.76900035 6.1385382 5.54215708 6.14526367 7.31420898 C6.15483345 9.0161869 6.15483345 9.0161869 6.16459656 10.75254822 C6.16570938 11.98791824 6.1668222 13.22328827 6.16796875 14.49609375 C6.17129715 15.75511002 6.17462555 17.01412628 6.17805481 18.31129456 C6.18312943 20.98043335 6.18589414 23.64947041 6.18530273 26.31860352 C6.1852011 29.74312715 6.19885201 33.16744351 6.21607494 36.59191799 C6.22985116 39.85163564 6.22928326 43.11135092 6.23046875 46.37109375 C6.23765427 47.60443954 6.24483978 48.83778534 6.25224304 50.10850525 C6.24916641 51.24630936 6.24608978 52.38411346 6.24291992 53.55639648 C6.24434494 54.56153793 6.24576996 55.56667938 6.24723816 56.60227966 C6 59 6 59 4 61 C1.375 60.625 1.375 60.625 -1 60 C-1.02312821 52.32463373 -1.04091753 44.64927104 -1.05181217 36.97387791 C-1.05703995 33.41022578 -1.06413569 29.84659743 -1.07543945 26.28295898 C-1.08834176 22.18993903 -1.09322906 18.0969442 -1.09765625 14.00390625 C-1.10281754 12.71851456 -1.10797882 11.43312286 -1.11329651 10.10877991 C-1.11337204 8.92763107 -1.11344757 7.74648224 -1.11352539 6.52954102 C-1.115746 5.48363297 -1.11796661 4.43772491 -1.12025452 3.36012268 C-1 1 -1 1 0 0 Z " fill="#F9924E" transform="translate(280,55)"/>
<path d="M0 0 C1.98 0 3.96 0 6 0 C6.33 0.66 6.66 1.32 7 2 C7.99 1.34 8.98 0.68 10 0 C13.07853413 2.6049135 14.80166363 4.35540678 16 8.25 C16 13.80385346 15.12702774 18.64700626 11.30859375 22.87109375 C6.04965337 27.44933621 2.73015219 28.30196021 -4.2421875 28.2109375 C-9.40901087 27.81574138 -12.07684044 25.88119776 -15.75 22.375 C-18.59221471 18.64690019 -19.85850078 14.67733531 -20 10 C-19.30856804 7.06384879 -18.30082192 4.75173867 -17 2 C-16.12159004 5.09720845 -16.00564594 6.90645403 -17 10 C-16.01 10.33 -15.02 10.66 -14 11 C-13.34 9.02 -12.68 7.04 -12 5 C-11 7 -11 7 -11.25 10.8125 C-11.27502623 14.24735051 -11.02413195 14.96380208 -9 18 C-5.66771696 20.22152203 -3.85911608 20.7480039 0.06640625 20.48828125 C3.45966968 19.63139654 4.98413808 17.74890261 7 15 C8.37916208 11.63829242 8.13568258 10.36935813 6.875 6.9375 C4.91080969 3.86026852 2.96972694 2.08683515 0 0 Z " fill="#F8904D" transform="translate(350,150)"/>
<path d="M0 0 C1.66611905 -0.042721 3.33382885 -0.04063832 5 0 C6.69771344 1.69771344 6.18603169 3.88041296 6.23706055 6.20654297 C6.26346115 7.31794647 6.28986176 8.42934998 6.31706238 9.57443237 C6.34004898 10.78479156 6.36303558 11.99515076 6.38671875 13.2421875 C6.41224319 14.47663605 6.43776764 15.71108459 6.46406555 16.98294067 C6.51618793 19.60071804 6.56560077 22.21855051 6.61254883 24.83642578 C6.66088634 27.52542382 6.71635144 30.21411953 6.77856445 32.90283203 C6.86656453 36.76582197 6.94092952 40.62884818 7.01171875 44.4921875 C7.04077805 45.69849823 7.06983734 46.90480896 7.09977722 48.14767456 C7.11672134 49.26538239 7.13366547 50.38309021 7.15112305 51.53466797 C7.17031296 52.51982391 7.18950287 53.50497986 7.20927429 54.51998901 C7 57 7 57 5 60 C0.125 59.125 0.125 59.125 -1 58 C-1.0988747 56.26147108 -1.12799029 54.51892561 -1.12939453 52.77758789 C-1.13254669 51.6629567 -1.13569885 50.5483255 -1.13894653 49.3999176 C-1.1369223 48.18642136 -1.13489807 46.97292511 -1.1328125 45.72265625 C-1.13376923 44.48583603 -1.13472595 43.24901581 -1.13571167 41.97471619 C-1.13656897 38.67927314 -1.13252865 35.38387678 -1.12695312 32.08843994 C-1.12500355 30.06618752 -1.12694386 28.04397855 -1.13037109 26.02172852 C-1.13653099 22.15118375 -1.1358042 18.28070366 -1.1328125 14.41015625 C-1.13483673 13.19868423 -1.13686096 11.98721222 -1.13894653 10.73902893 C-1.13579437 9.62124557 -1.13264221 8.50346222 -1.12939453 7.35180664 C-1.12820114 5.87074181 -1.12820114 5.87074181 -1.12698364 4.35975647 C-1 2 -1 2 0 0 Z " fill="#EA935B" transform="translate(260,56)"/>
<path d="M0 0 C1.9375 0.375 1.9375 0.375 4 1 C5.30760893 3.61521785 5.11997548 5.53113401 5.11352539 8.45947266 C5.11344986 9.60050446 5.11337433 10.74153625 5.11329651 11.91714478 C5.10813522 13.15362762 5.10297394 14.39011047 5.09765625 15.6640625 C5.0962413 16.92640717 5.09482635 18.18875183 5.09336853 19.48934937 C5.08871078 22.84638299 5.07972408 26.203349 5.06866455 29.56036377 C5.0584377 32.98554906 5.05386818 36.41074134 5.04882812 39.8359375 C5.03778238 46.55731043 5.02103194 53.27865131 5 60 C2.625 60.625 2.625 60.625 0 61 C-2.60529263 58.39470737 -2.252907 57.30761847 -2.25878906 53.67993164 C-2.26824554 52.01293968 -2.26824554 52.01293968 -2.27789307 50.31227112 C-2.2738446 49.10707321 -2.26979614 47.90187531 -2.265625 46.66015625 C-2.26753845 45.42712265 -2.2694519 44.19408905 -2.27142334 42.9236908 C-2.27313621 39.64174412 -2.26506755 36.35998562 -2.25390625 33.07806396 C-2.2500069 31.06605997 -2.25388805 29.05423069 -2.26074219 27.04223633 C-2.27307499 23.18562678 -2.27160516 19.32927647 -2.265625 15.47265625 C-2.26967346 14.26948257 -2.27372192 13.0663089 -2.27789307 11.82667542 C-2.27158875 10.71219528 -2.26528442 9.59771515 -2.25878906 8.44946289 C-2.25719788 7.46732315 -2.25560669 6.48518341 -2.25396729 5.47328186 C-2 3 -2 3 0 0 Z " fill="#FD914B" transform="translate(320,55)"/>
<path d="M0 0 C44.22 0 88.44 0 134 0 C134.33 1.65 134.66 3.3 135 5 C132.35261084 6.4606285 131.10551666 7 128 7 C128 6.34 128 5.68 128 5 C129.65 5 131.3 5 133 5 C133 4.01 133 3.02 133 2 C98.02 2 63.04 2 27 2 C27.33 2.99 27.66 3.98 28 5 C24.37 6.32 20.74 7.64 17 9 C17 7.02 17 5.04 17 3 C15.94039062 2.95101562 14.88078125 2.90203125 13.7890625 2.8515625 C12.40101503 2.77653291 11.01299549 2.70098515 9.625 2.625 C8.92632812 2.5940625 8.22765625 2.563125 7.5078125 2.53125 C2.2265625 2.2265625 2.2265625 2.2265625 0 0 Z " fill="#DD9468" transform="translate(235,144)"/>
<path d="M0 0 C6.48302134 -0.04685525 12.78896305 0.00705879 19.01586914 2.05322266 C21.01586914 4.05322266 21.01586914 4.05322266 21.01586914 8.05322266 C20.02586914 8.05322266 19.03586914 8.05322266 18.01586914 8.05322266 C18.01586914 7.39322266 18.01586914 6.73322266 18.01586914 6.05322266 C-15.14913086 5.55822266 -15.14913086 5.55822266 -48.98413086 5.05322266 C-47.64329287 2.37154667 -46.81495075 2.08144644 -43.98413086 1.05322266 C-41.06162285 0.81549015 -38.22591399 0.6806975 -35.30053711 0.63916016 C-34.44918686 0.61979401 -33.59783661 0.60042786 -32.72068787 0.58047485 C-29.99610401 0.52082368 -27.2714712 0.47450035 -24.54663086 0.42822266 C-22.74778467 0.39000102 -20.94895597 0.35094691 -19.15014648 0.31103516 C-12.76713907 0.17472233 -6.38385683 0.08527978 0 0 Z " fill="#F9904C" transform="translate(350.984130859375,44.94677734375)"/>
<path d="M0 0 C0.99 0.33 1.98 0.66 3 1 C3.33 2.65 3.66 4.3 4 6 C22.36095594 6.10451547 40.66683312 6.18006591 59 5 C58.6875 6.9375 58.6875 6.9375 58 9 C55.05226348 9.98257884 53.18606819 10.1160752 50.1171875 10.09765625 C48.63049561 10.09270142 48.63049561 10.09270142 47.11376953 10.08764648 C46.04497559 10.07934814 44.97618164 10.0710498 43.875 10.0625 C42.22733643 10.05682007 42.22733643 10.05682007 40.54638672 10.05102539 C35.83882155 10.0346402 31.13134246 10.00648776 26.42382812 9.97949219 C22.99088946 9.96146404 19.55796468 9.94933434 16.125 9.9375 C15.05620605 9.92920166 13.98741211 9.92090332 12.88623047 9.91235352 C11.39953857 9.90739868 11.39953857 9.90739868 9.8828125 9.90234375 C9.01027832 9.89710693 8.13774414 9.89187012 7.23876953 9.88647461 C4.8280654 9.90854649 4.8280654 9.90854649 2 11 C1.34 10.67 0.68 10.34 0 10 C0 6.7 0 3.4 0 0 Z " fill="#FC914E" transform="translate(242,41)"/>
<path d="M0 0 C1.9375 0.375 1.9375 0.375 4 1 C5.30760893 3.61521785 5.11997548 5.53113401 5.11352539 8.45947266 C5.11344986 9.60050446 5.11337433 10.74153625 5.11329651 11.91714478 C5.10813522 13.15362762 5.10297394 14.39011047 5.09765625 15.6640625 C5.0962413 16.92640717 5.09482635 18.18875183 5.09336853 19.48934937 C5.08871078 22.84638299 5.07972408 26.203349 5.06866455 29.56036377 C5.0584377 32.98554906 5.05386818 36.41074134 5.04882812 39.8359375 C5.03778238 46.55731043 5.02103194 53.27865131 5 60 C2.625 60.625 2.625 60.625 0 61 C-2.60529263 58.39470737 -2.252907 57.30761847 -2.25878906 53.67993164 C-2.26824554 52.01293968 -2.26824554 52.01293968 -2.27789307 50.31227112 C-2.2738446 49.10707321 -2.26979614 47.90187531 -2.265625 46.66015625 C-2.26753845 45.42712265 -2.2694519 44.19408905 -2.27142334 42.9236908 C-2.27313621 39.64174412 -2.26506755 36.35998562 -2.25390625 33.07806396 C-2.2500069 31.06605997 -2.25388805 29.05423069 -2.26074219 27.04223633 C-2.27307499 23.18562678 -2.27160516 19.32927647 -2.265625 15.47265625 C-2.26967346 14.26948257 -2.27372192 13.0663089 -2.27789307 11.82667542 C-2.27158875 10.71219528 -2.26528442 9.59771515 -2.25878906 8.44946289 C-2.25719788 7.46732315 -2.25560669 6.48518341 -2.25396729 5.47328186 C-2 3 -2 3 0 0 Z M1 4 C-0.23842645 5.01636959 -0.23842645 5.01636959 -0.12025452 7.13233948 C-0.11803391 8.07165817 -0.11581329 9.01097687 -0.11352539 9.97875977 C-0.11344986 11.03978409 -0.11337433 12.10080841 -0.11329651 13.19398499 C-0.10813522 14.348134 -0.10297394 15.50228302 -0.09765625 16.69140625 C-0.0962413 17.86638168 -0.09482635 19.04135712 -0.09336853 20.25193787 C-0.08774992 24.02215064 -0.07519426 27.79230504 -0.0625 31.5625 C-0.0574874 34.11132727 -0.05292408 36.66015547 -0.04882812 39.20898438 C-0.03777444 45.47267633 -0.02101821 51.73633399 0 58 C1.32 58 2.64 58 4 58 C4 40.18 4 22.36 4 4 C3.01 4 2.02 4 1 4 Z " fill="#DF996F" transform="translate(320,55)"/>
<path d="M0 0 C1.65 0.33 3.3 0.66 5 1 C6.00970658 4.02911974 6.13246359 6.08139639 6.14526367 9.25 C6.15164352 10.32121094 6.15802338 11.39242187 6.16459656 12.49609375 C6.16570938 13.65238281 6.1668222 14.80867188 6.16796875 16 C6.17129715 17.18722656 6.17462555 18.37445313 6.17805481 19.59765625 C6.18312041 22.10937105 6.18546325 24.62109259 6.18530273 27.1328125 C6.18749119 30.98448702 6.20565647 34.83587611 6.22460938 38.6875 C6.22754291 41.12499902 6.22952797 43.5624994 6.23046875 46 C6.23765427 47.15628906 6.24483978 48.31257813 6.25224304 49.50390625 C6.24916641 50.57511719 6.24608978 51.64632812 6.24291992 52.75 C6.24434494 53.69359375 6.24576996 54.6371875 6.24723816 55.609375 C6 58 6 58 4 61 C-0.875 60.125 -0.875 60.125 -2 59 C-2.10403092 57.30287021 -2.13853193 55.60142498 -2.14526367 53.90112305 C-2.15164352 52.81296799 -2.15802338 51.72481293 -2.16459656 50.60368347 C-2.16570938 49.41833511 -2.1668222 48.23298676 -2.16796875 47.01171875 C-2.17129715 45.80183792 -2.17462555 44.59195709 -2.17805481 43.34541321 C-2.18313 40.77886334 -2.18546295 38.21230684 -2.18530273 35.64575195 C-2.18748479 31.71489572 -2.20562235 27.78432197 -2.22460938 23.85351562 C-2.22754402 21.3645843 -2.22952834 18.87565163 -2.23046875 16.38671875 C-2.23765427 15.20744308 -2.24483978 14.02816742 -2.25224304 12.81315613 C-2.24916641 11.71554459 -2.24608978 10.61793304 -2.24291992 9.48706055 C-2.24434494 8.52189011 -2.24576996 7.55671967 -2.24723816 6.56230164 C-1.99141045 3.91098046 -1.35066875 2.27264179 0 0 Z M0 3 C-0.91463407 6.1155829 -1.12154961 8.89395628 -1.11352539 12.13574219 C-1.11344986 13.15649841 -1.11337433 14.17725464 -1.11329651 15.22894287 C-1.10813522 16.32386047 -1.10297394 17.41877808 -1.09765625 18.546875 C-1.0962413 19.6732135 -1.09482635 20.799552 -1.09336853 21.96002197 C-1.08777199 25.55670835 -1.0752201 29.15333244 -1.0625 32.75 C-1.05748455 35.18880118 -1.05292172 37.62760334 -1.04882812 40.06640625 C-1.0378037 46.04429208 -1.02106898 52.02214159 -1 58 C0.65 58.33 2.3 58.66 4 59 C4 40.52 4 22.04 4 3 C2.68 3 1.36 3 0 3 Z " fill="#D3976F" transform="translate(300,55)"/>
<path d="M0 0 C0.87840996 3.09720845 0.99435406 4.90645403 0 8 C0.99 8.33 1.98 8.66 3 9 C3.66 7.02 4.32 5.04 5 3 C6 5 6 5 5.75 8.8125 C5.69117846 12.41368566 5.89079819 12.86423558 8.3125 15.875 C10.99625809 18.05597052 10.99625809 18.05597052 14 20 C13.34 20.66 12.68 21.32 12 22 C11.01 22 10.02 22 9 22 C9 22.66 9 23.32 9 24 C11.10448938 23.85890014 13.2085877 23.71195825 15.3125 23.5625 C17.07013672 23.44068359 17.07013672 23.44068359 18.86328125 23.31640625 C22.02590958 23.1132629 22.02590958 23.1132629 25 22 C24.67 21.01 24.34 20.02 24 19 C24.61875 18.855625 25.2375 18.71125 25.875 18.5625 C28.03258322 18.06847775 28.03258322 18.06847775 30 17 C28.27592413 21.38855677 25.17026127 23.91486937 21 26 C14.7882863 26.52779267 9.241651 26.74403643 4 23 C-0.53939079 18.66694516 -2.80727393 14.37066733 -3 8 C-2.30856804 5.06384879 -1.30082192 2.75173867 0 0 Z " fill="#EB945D" transform="translate(333,152)"/>
<path d="M0 0 C0.66 0.33 1.32 0.66 2 1 C2.14643105 8.3540929 1.97413108 15.70003006 1 23 C0.67 23.33 0.34 23.66 0 24 C-0.23280365 25.9289445 -0.46359534 27.85817447 -0.6796875 29.7890625 C-1.14158065 32.97725182 -2.03994169 35.92781342 -3 39 C-3.66 39 -4.32 39 -5 39 C-5.02684312 36.18743719 -5.04676188 33.37512759 -5.0625 30.5625 C-5.07087891 29.76005859 -5.07925781 28.95761719 -5.08789062 28.13085938 C-5.0965143 26.08704779 -5.0522815 24.04316098 -5 22 C-4.67 21.67 -4.34 21.34 -4 21 C-3.76572222 18.98405418 -3.58663876 16.961526 -3.4375 14.9375 C-3.35371094 13.83277344 -3.26992188 12.72804688 -3.18359375 11.58984375 C-3.12300781 10.73519531 -3.06242187 9.88054687 -3 9 C-2.34 9 -1.68 9 -1 9 C-1.020625 7.88625 -1.04125 6.7725 -1.0625 5.625 C-1 2 -1 2 0 0 Z " fill="#FC914C" transform="translate(369,66)"/>
<path d="M0 0 C4.70588235 0.70588235 4.70588235 0.70588235 6 2 C6.09370624 3.77991924 6.11744271 5.56356739 6.11352539 7.34594727 C6.11344986 8.4870546 6.11337433 9.62816193 6.11329651 10.80384827 C6.10813522 12.0454924 6.10297394 13.28713654 6.09765625 14.56640625 C6.0962413 15.83016586 6.09482635 17.09392548 6.09336853 18.39598083 C6.08870582 21.76124889 6.0797148 25.1264499 6.06866455 28.49169922 C6.05844846 31.9234967 6.05387049 35.35530109 6.04882812 38.78710938 C6.0377738 45.52475824 6.0210171 52.26237525 6 59 C5.67 59 5.34 59 5 59 C5 40.52 5 22.04 5 3 C3.68 3.33 2.36 3.66 1 4 C0.92413598 11.79616078 0.87147886 19.59222693 0.83520508 27.38867188 C0.82008855 30.04267941 0.79959505 32.69666186 0.77368164 35.35058594 C0.73742479 39.158266 0.72030237 42.96561675 0.70703125 46.7734375 C0.69154739 47.96617279 0.67606354 49.15890808 0.66011047 50.38778687 C0.65988388 51.48877716 0.65965729 52.58976746 0.65942383 53.72412109 C0.65276199 54.69674896 0.64610016 55.66937683 0.63923645 56.67147827 C0.75828842 57.43989044 0.87734039 58.20830261 1 59 C1.99 59.66 2.98 60.32 4 61 C2.35 60.67 0.7 60.34 -1 60 C-1.02312821 52.32463373 -1.04091753 44.64927104 -1.05181217 36.97387791 C-1.05703995 33.41022578 -1.06413569 29.84659743 -1.07543945 26.28295898 C-1.08834176 22.18993903 -1.09322906 18.0969442 -1.09765625 14.00390625 C-1.10281754 12.71851456 -1.10797882 11.43312286 -1.11329651 10.10877991 C-1.11337204 8.92763107 -1.11344757 7.74648224 -1.11352539 6.52954102 C-1.115746 5.48363297 -1.11796661 4.43772491 -1.12025452 3.36012268 C-1 1 -1 1 0 0 Z " fill="#D69B77" transform="translate(280,55)"/>
<path d="M0 0 C5.37656087 -0.27338445 8.56699758 -0.38994303 13 3 C15 5 15 5 15.1953125 7.3828125 C15.17210937 8.28773437 15.14890625 9.19265625 15.125 10.125 C15.10695313 11.03507812 15.08890625 11.94515625 15.0703125 12.8828125 C15.04710937 13.58148438 15.02390625 14.28015625 15 15 C14.01 13.02 14.01 13.02 13 11 C12.01 11 11.02 11 10 11 C7.91858446 13.08141554 8.26911239 17.18606953 7.9375 20.0625 C7.84662109 20.82111328 7.75574219 21.57972656 7.66210938 22.36132812 C7.4375626 24.2404301 7.21829022 26.12016095 7 28 C6.67 28 6.34 28 6 28 C6.33 21.4 6.66 14.8 7 8 C3.9371875 8.01160156 0.874375 8.02320313 -2.28125 8.03515625 C-5.30322161 8.04299246 -8.32519201 8.04904314 -11.34716797 8.05493164 C-13.42041545 8.05990846 -15.49365953 8.06669232 -17.56689453 8.07543945 C-29.7571084 8.12552008 -41.84451396 7.98447006 -54 7 C-54 6.67 -54 6.34 -54 6 C-33.21 6 -12.42 6 9 6 C9 6.66 9 7.32 9 8 C9.99 8 10.98 8 12 8 C11.75568004 5.45748398 11.75568004 5.45748398 10 3 C6.72174346 1.91991217 3.41943506 1.42269769 0 1 C0 0.67 0 0.34 0 0 Z " fill="#DA9B77" transform="translate(360,45)"/>
<path d="M0 0 C0.33 0 0.66 0 1 0 C1 5.61 1 11.22 1 17 C0.34 17 -0.32 17 -1 17 C-0.97679687 18.00160156 -0.95359375 19.00320312 -0.9296875 20.03515625 C-0.91091211 21.37759664 -0.89271382 22.72004518 -0.875 24.0625 C-0.85179687 25.37347656 -0.82859375 26.68445313 -0.8046875 28.03515625 C-1.00582478 32.11824299 -1.72834538 35.14999053 -3 39 C-1.68 39.33 -0.36 39.66 1 40 C1 38.02 1 36.04 1 34 C1.66 34.33 2.32 34.66 3 35 C2.67264472 37.94619748 2.37532687 40.35360372 0.875 42.9375 C-2.13768486 44.64468809 -4.7310945 43.67845209 -8 43 C-8 41.68 -8 40.36 -8 39 C-11.63 39 -15.26 39 -19 39 C-19 38.67 -19 38.34 -19 38 C-13.91913204 37.15318867 -9.15171623 36.90961901 -4 37 C-3.96261719 36.34 -3.92523438 35.68 -3.88671875 35 C-3.10815549 23.27575326 -1.51381155 11.64766199 0 0 Z " fill="#E79464" transform="translate(363,88)"/>
<path d="M0 0 C2.625 0.375 2.625 0.375 5 1 C4.01 2.485 4.01 2.485 3 4 C2.34 3.67 1.68 3.34 1 3 C1 4.32 1 5.64 1 7 C0.34 7 -0.32 7 -1 7 C-1.33 7.99 -1.66 8.98 -2 10 C-3.58294782 10.05437607 -5.16644256 10.09296271 -6.75 10.125 C-7.63171875 10.14820313 -8.5134375 10.17140625 -9.421875 10.1953125 C-12.1135858 9.99139502 -13.69904974 9.36551721 -16 8 C-16 7.34 -16 6.68 -16 6 C-15.01257813 5.73445312 -14.02515625 5.46890625 -13.0078125 5.1953125 C-11.71344502 4.83889247 -10.41917941 4.48210234 -9.125 4.125 C-8.47402344 3.95097656 -7.82304687 3.77695313 -7.15234375 3.59765625 C-3.1931563 2.50470421 -3.1931563 2.50470421 0 0 Z " fill="#F59153" transform="translate(267,167)"/>
<path d="M0 0 C2.16311438 1.72400465 2.93875073 2.57555794 3.34057617 5.36010742 C3.32486572 6.26607666 3.30915527 7.1720459 3.29296875 8.10546875 C3.28330078 9.08837891 3.27363281 10.07128906 3.26367188 11.08398438 C3.23853516 12.10814453 3.21339844 13.13230469 3.1875 14.1875 C3.17396484 15.22326172 3.16042969 16.25902344 3.14648438 17.32617188 C3.11111389 19.88463699 3.06175544 22.4420578 3 25 C1.35 25.33 -0.3 25.66 -2 26 C-2.02687279 24.18757948 -2.04633715 22.37504767 -2.0625 20.5625 C-2.07410156 19.55316406 -2.08570313 18.54382813 -2.09765625 17.50390625 C-2 15 -2 15 -1 14 C-0.76472227 11.65012738 -0.58613583 9.29443961 -0.4375 6.9375 C-0.35371094 5.64714844 -0.26992188 4.35679688 -0.18359375 3.02734375 C-0.12300781 2.02832031 -0.06242187 1.02929688 0 0 Z " fill="#FB914D" transform="translate(341,88)"/>
<path d="M0 0 C1.60279192 0.00015914 3.20558896 0.00585476 4.80834961 0.01586914 C5.65038437 0.01728409 6.49241913 0.01869904 7.35997009 0.02015686 C10.06024671 0.02577276 12.76044163 0.03832791 15.46069336 0.05102539 C17.28686404 0.05603834 19.11303602 0.06060161 20.93920898 0.06469727 C25.42556878 0.07574735 29.9118672 0.0930226 34.39819336 0.11352539 C34.39819336 4.07352539 34.39819336 8.03352539 34.39819336 12.11352539 C30.10819336 12.11352539 25.81819336 12.11352539 21.39819336 12.11352539 C21.39819336 11.78352539 21.39819336 11.45352539 21.39819336 11.11352539 C25.02819336 10.78352539 28.65819336 10.45352539 32.39819336 10.11352539 C32.72819336 7.47352539 33.05819336 4.83352539 33.39819336 2.11352539 C16.07319336 2.60852539 16.07319336 2.60852539 -1.60180664 3.11352539 C-1.60180664 5.42352539 -1.60180664 7.73352539 -1.60180664 10.11352539 C1.69819336 10.44352539 4.99819336 10.77352539 8.39819336 11.11352539 C8.39819336 11.44352539 8.39819336 11.77352539 8.39819336 12.11352539 C4.10819336 12.11352539 -0.18180664 12.11352539 -4.60180664 12.11352539 C-4.69946289 3.61743164 -4.69946289 3.61743164 -4.60180664 1.11352539 C-3.60180664 0.11352539 -3.60180664 0.11352539 0 0 Z " fill="#EFFAFE" transform="translate(90.601806640625,22.886474609375)"/>
<path d="M0 0 C0.33 0 0.66 0 1 0 C1 8.58 1 17.16 1 26 C18.16 26 35.32 26 53 26 C53 26.33 53 26.66 53 27 C35.33568845 28.20194587 17.6942504 28.10354036 0 28 C-0.73080266 26.02253397 -1.39421747 24.01927511 -2 22 C-1.67 21.34 -1.34 20.68 -1 20 C-0.84876169 18.4804236 -0.75118307 16.95527498 -0.68359375 15.4296875 C-0.64169922 14.53378906 -0.59980469 13.63789062 -0.55664062 12.71484375 C-0.49766602 11.30912109 -0.49766602 11.30912109 -0.4375 9.875 C-0.39431641 8.93011719 -0.35113281 7.98523438 -0.30664062 7.01171875 C-0.20040928 4.67462908 -0.09836824 2.3374317 0 0 Z " fill="#E48F56" transform="translate(246,20)"/>
<path d="M0 0 C6.27 0 12.54 0 19 0 C18.67 1.32 18.34 2.64 18 4 C12.06 4 6.12 4 0 4 C0 2.68 0 1.36 0 0 Z " fill="#FC914B" transform="translate(218,16)"/>
<path d="M0 0 C0 4.29 0 8.58 0 13 C-0.33 13 -0.66 13 -1 13 C-1.33 14.65 -1.66 16.3 -2 18 C-3.32 17.67 -4.64 17.34 -6 17 C-6.04254356 15.00045254 -6.04080783 12.99958364 -6 11 C-5.67 10.67 -5.34 10.34 -5 10 C-4.71898054 7.68047431 -4.55217375 5.36114486 -4.37890625 3.03125 C-4.25386719 2.3609375 -4.12882812 1.690625 -4 1 C-2 0 -2 0 0 0 Z " fill="#FB914B" transform="translate(366,110)"/>
<path d="M0 0 C1.98 0 3.96 0 6 0 C6.33 0.66 6.66 1.32 7 2 C7.99 1.34 8.98 0.68 10 0 C13.22965775 2.73278733 14.83483739 4.33934955 15.875 8.5 C15.98545475 11.59273293 15.80986267 14.03050353 15 17 C14.67 17 14.34 17 14 17 C14 13.7 14 10.4 14 7 C13.34 7 12.68 7 12 7 C12 5.68 12 4.36 12 3 C11.01 3.495 11.01 3.495 10 4 C10.02320313 4.62648437 10.04640625 5.25296875 10.0703125 5.8984375 C10.09738281 7.12433594 10.09738281 7.12433594 10.125 8.375 C10.14820313 9.18710938 10.17140625 9.99921875 10.1953125 10.8359375 C10 13 10 13 8 15 C7.938125 13.783125 7.87625 12.56625 7.8125 11.3125 C7.27099343 6.81321743 5.50330482 4.90517961 2 2 C1.34 1.34 0.68 0.68 0 0 Z " fill="#DF9262" transform="translate(350,150)"/>
<path d="M0 0 C3.96 0 7.92 0 12 0 C11.67 2.31 11.34 4.62 11 7 C8.36 7.66 5.72 8.32 3 9 C3 7.02 3 5.04 3 3 C2.01 3 1.02 3 0 3 C0 2.01 0 1.02 0 0 Z " fill="#FB8F4A" transform="translate(241,146)"/>
<path d="M0 0 C1.98 0.495 1.98 0.495 4 1 C3.01 2.485 3.01 2.485 2 4 C1.6595426 7.01547986 1.43252553 9.0945307 2 12 C4.44298288 15.03722197 6.7663665 16.84424433 10 19 C7.69 19.33 5.38 19.66 3 20 C2.8453125 19.0409375 2.8453125 19.0409375 2.6875 18.0625 C2.460625 17.381875 2.23375 16.70125 2 16 C1.01 15.67 0.02 15.34 -1 15 C-0.67 10.05 -0.34 5.1 0 0 Z M-1 20 C0.32 20 1.64 20 3 20 C3.33 20.66 3.66 21.32 4 22 C6.80980673 22.69227032 6.80980673 22.69227032 10.0625 23.125 C11.71958984 23.37636719 11.71958984 23.37636719 13.41015625 23.6328125 C14.26480469 23.75398437 15.11945313 23.87515625 16 24 C16 24.33 16 24.66 16 25 C9.01370081 25.50604984 4.79799884 25.0333905 -1 21 C-1 20.67 -1 20.34 -1 20 Z " fill="#D6956E" transform="translate(248,153)"/>
<path d="M0 0 C2 2 2 2 2 6 C3.32 6 4.64 6 6 6 C6 5.01 6 4.02 6 3 C5.34 3 4.68 3 4 3 C4 2.01 4 1.02 4 0 C4.66 0 5.32 0 6 0 C8.94611386 5.53869405 9.66485444 9.85380806 8 16 C7.34 16.66 6.68 17.32 6 18 C6.33 15.03 6.66 12.06 7 9 C6.34 9 5.68 9 5 9 C5 9.66 5 10.32 5 11 C4.34 10.67 3.68 10.34 3 10 C2.34 10 1.68 10 1 10 C0.566875 8.6078125 0.566875 8.6078125 0.125 7.1875 C-0.8875 3.90208333 -0.8875 3.90208333 -3 1 C-2.01 0.67 -1.02 0.34 0 0 Z " fill="#E59262" transform="translate(268,151)"/>
<path d="M0 0 C1.65 0.33 3.3 0.66 5 1 C5 4.96 5 8.92 5 13 C4.01 13 3.02 13 2 13 C2 11.35 2 9.7 2 8 C1.01 8.33 0.02 8.66 -1 9 C-1.80967438 6.08517222 -2.21845993 4.53886783 -1.0625 1.6875 C-0.711875 1.130625 -0.36125 0.57375 0 0 Z " fill="#F9914C" transform="translate(339,56)"/>
<path d="M0 0 C0.66 0 1.32 0 2 0 C2.18451025 16.70842825 2.18451025 16.70842825 1 25 C0.67 25 0.34 25 0 25 C0 20.71 0 16.42 0 12 C-1.32 12.33 -2.64 12.66 -4 13 C-4.1875 10.125 -4.1875 10.125 -4 7 C-3.01 6.34 -2.02 5.68 -1 5 C-0.27034634 2.43717258 -0.27034634 2.43717258 0 0 Z " fill="#ED9157" transform="translate(366,98)"/>
<path d="M0 0 C0.33 0.99 0.66 1.98 1 3 C-2.24099496 5.16066331 -3.76279759 5.37886905 -7.5625 5.6875 C-9.01849609 5.81705078 -9.01849609 5.81705078 -10.50390625 5.94921875 C-13 6 -13 6 -15 5 C-15 4.34 -15 3.68 -15 3 C-10.48779109 -0.91058106 -5.62104043 -0.29469532 0 0 Z " fill="#FA914A" transform="translate(357,171)"/>
<path d="M0 0 C0 0.99 0 1.98 0 3 C-5.75349242 8.25318873 -8.63520531 9.28633697 -16.2265625 9.2265625 C-19.71993601 8.94118833 -22.11452449 7.97427272 -25 6 C-25.33 5.34 -25.66 4.68 -26 4 C-23.03 4.495 -23.03 4.495 -20 5 C-20 5.66 -20 6.32 -20 7 C-17.89551062 6.85890014 -15.7914123 6.71195825 -13.6875 6.5625 C-11.92986328 6.44068359 -11.92986328 6.44068359 -10.13671875 6.31640625 C-6.97409042 6.1132629 -6.97409042 6.1132629 -4 5 C-4.33 4.01 -4.66 3.02 -5 2 C-4.360625 1.855625 -3.72125 1.71125 -3.0625 1.5625 C-1.02454854 1.18992819 -1.02454854 1.18992819 0 0 Z " fill="#D3926A" transform="translate(362,169)"/>
<path d="M0 0 C0 0.66 0 1.32 0 2 C0.66 2.33 1.32 2.66 2 3 C-11.04119828 3.10531468 -24.00156173 3.16652651 -37 2 C-37 1.67 -37 1.34 -37 1 C-24.65415863 0.32292352 -12.36592489 -0.1574163 0 0 Z " fill="#CF916D" transform="translate(301,50)"/>
<path d="M0 0 C10.56 0 21.12 0 32 0 C32 0.33 32 0.66 32 1 C30.96359375 1.06058594 29.9271875 1.12117188 28.859375 1.18359375 C27.48957127 1.26803371 26.11978025 1.35267997 24.75 1.4375 C23.72712891 1.49647461 23.72712891 1.49647461 22.68359375 1.55664062 C18.77026938 1.79341167 18.77026938 1.79341167 14.9375 2.5625 C11.99096804 3.22784593 9.24489676 2.83204071 6.25 2.5625 C5.07953125 2.46066406 3.9090625 2.35882813 2.703125 2.25390625 C1.36507812 2.12822266 1.36507812 2.12822266 0 2 C0 1.34 0 0.68 0 0 Z " fill="#E39A5E" transform="translate(247,50)"/>
<path d="M0 0 C1.32 0.33 2.64 0.66 4 1 C3.67 2.32 3.34 3.64 3 5 C2.01 4.67 1.02 4.34 0 4 C0 2.68 0 1.36 0 0 Z M-1 4 C0.43088528 6.86177057 -0.40008303 8.93375773 -1 12 C-2.32 11.67 -3.64 11.34 -5 11 C-3.92598892 8.08482708 -3.22189824 6.22189824 -1 4 Z " fill="#FB8F4A" transform="translate(235,133)"/>
<path d="M0 0 C-0.33 0.99 -0.66 1.98 -1 3 C-4.96 3 -8.92 3 -13 3 C-12.67 2.01 -12.34 1.02 -12 0 C-10.37585622 -0.19477739 -8.75063577 -0.38059458 -7.125 -0.5625 C-6.22007812 -0.66691406 -5.31515625 -0.77132812 -4.3828125 -0.87890625 C-2 -1 -2 -1 0 0 Z " fill="#FD8F49" transform="translate(301,47)"/>
<path d="M0 0 C3 2 3 2 3.6875 4.625 C3.790625 5.40875 3.89375 6.1925 4 7 C1.625 7.625 1.625 7.625 -1 8 C-1.66 7.34 -2.32 6.68 -3 6 C-2.63318342 3.06546739 -2.13562754 2.13562754 0 0 Z " fill="#F7934B" transform="translate(371,54)"/>
<path d="M0 0 C1.98 0.495 1.98 0.495 4 1 C3.01 2.485 3.01 2.485 2 4 C1.56237071 9.4266032 1.63110992 12.50814656 5 17 C3.02 16.34 1.04 15.68 -1 15 C-0.67 10.05 -0.34 5.1 0 0 Z " fill="#E19668" transform="translate(248,153)"/>
<path d="M0 0 C0.66 0 1.32 0 2 0 C2 1.32 2 2.64 2 4 C2.66 4 3.32 4 4 4 C3.67 5.65 3.34 7.3 3 9 C2.01 9.33 1.02 9.66 0 10 C-0.19412181 8.52168779 -0.38012131 7.04230684 -0.5625 5.5625 C-0.66691406 4.73878906 -0.77132813 3.91507813 -0.87890625 3.06640625 C-0.91886719 2.38449219 -0.95882813 1.70257813 -1 1 C-0.67 0.67 -0.34 0.34 0 0 Z " fill="#FD914A" transform="translate(360,153)"/>
<path d="M0 0 C-1.49097658 3.7952131 -3.75700849 5.61042731 -7 8 C-7.66 7.67 -8.32 7.34 -9 7 C-8.67 6.34 -8.34 5.68 -8 5 C-7.34 5 -6.68 5 -6 5 C-6 3.68 -6 2.36 -6 1 C-3 0 -3 0 0 0 Z " fill="#DF9362" transform="translate(274,169)"/>
<path d="M0 0 C1.67542976 0.28604898 3.34385343 0.61781233 5 1 C5.33 3.64 5.66 6.28 6 9 C4 6 4 6 4 3 C2.68 3 1.36 3 0 3 C-0.33 4.32 -0.66 5.64 -1 7 C-1.04254356 5.00045254 -1.04080783 2.99958364 -1 1 C-0.67 0.67 -0.34 0.34 0 0 Z " fill="#C79463" transform="translate(300,55)"/>
<path d="M0 0 C0.66 0.33 1.32 0.66 2 1 C1.38461538 6.53846154 1.38461538 6.53846154 -0.5625 8.875 C-1.2740625 9.431875 -1.2740625 9.431875 -2 10 C-2.99 9.67 -3.98 9.34 -5 9 C-4.34 9 -3.68 9 -3 9 C-3 8.34 -3 7.68 -3 7 C-3.66 6.67 -4.32 6.34 -5 6 C-4.01 5.67 -3.02 5.34 -2 5 C-1.34 5.33 -0.68 5.66 0 6 C0 4.02 0 2.04 0 0 Z " fill="#E19265" transform="translate(364,122)"/>
<path d="M0 0 C1.65 0.33 3.3 0.66 5 1 C4.67 1.66 4.34 2.32 4 3 C3.01 2.67 2.02 2.34 1 2 C0.77390663 4.12364481 0.77390663 4.12364481 2.5 5.625 C2.995 6.07875 3.49 6.5325 4 7 C1.03 6.505 1.03 6.505 -2 6 C-1.34 4.02 -0.68 2.04 0 0 Z " fill="#DE9C72" transform="translate(339,56)"/>
<path d="M0 0 C2.19726562 1.85546875 2.19726562 1.85546875 4.39453125 3.7109375 C5.8655046 4.89201099 7.43037794 5.95358529 9 7 C7.02 7.99 7.02 7.99 5 9 C4.54625 8.525625 4.0925 8.05125 3.625 7.5625 C2.06741796 5.90972192 2.06741796 5.90972192 0 5 C0 3.35 0 1.7 0 0 Z " fill="#E49464" transform="translate(338,165)"/>
<path d="M0 0 C0 1.66666667 0 3.33333333 0 5 C1.32 5.66 2.64 6.32 4 7 C1.69 7 -0.62 7 -3 7 C-3 3 -3 3 -1.5 1.25 C-1.005 0.8375 -0.51 0.425 0 0 Z " fill="#C98F6D" transform="translate(224,144)"/>
<path d="M0 0 C0.99 0.99 1.98 1.98 3 3 C3 2.34 3 1.68 3 1 C3.66 1 4.32 1 5 1 C5 2.32 5 3.64 5 5 C3.35 5.33 1.7 5.66 0 6 C-1.125 2.25 -1.125 2.25 0 0 Z " fill="#F69244" transform="translate(270,159)"/>
<path d="M0 0 C1.98 0 3.96 0 6 0 C5.67 1.65 5.34 3.3 5 5 C4.67 3.68 4.34 2.36 4 1 C3.34 1 2.68 1 2 1 C2 1.66 2 2.32 2 3 C1.01 3 0.02 3 -1 3 C-0.67 2.01 -0.34 1.02 0 0 Z " fill="#F39057" transform="translate(241,16)"/>
<path d="M0 0 C1 3 1 3 0 6 C-2.64 6.33 -5.28 6.66 -8 7 C-7.01 6.34 -6.02 5.68 -5 5 C-3.31384218 3.35305515 -1.64429829 1.68873879 0 0 Z " fill="#DB976B" transform="translate(357,165)"/>
<path d="M0 0 C0.33 0 0.66 0 1 0 C1 2.97 1 5.94 1 9 C0.34 9 -0.32 9 -1 9 C-1.33 6.69 -1.66 4.38 -2 2 C-1.34 2 -0.68 2 0 2 C0 1.34 0 0.68 0 0 Z " fill="#F09157" transform="translate(363,160)"/>
<path d="M0 0 C1.98 0 3.96 0 6 0 C6.66 1.98 7.32 3.96 8 6 C7.01 5.67 6.02 5.34 5 5 C4.67 4.01 4.34 3.02 4 2 C1.99983534 0.79117904 1.99983534 0.79117904 0 0 Z " fill="#EFF8FE" transform="translate(149,71)"/>
<path d="" fill="#000000" transform="translate(0,0)"/>
<path d="" fill="#000000" transform="translate(0,0)"/>
<path d="" fill="#000000" transform="translate(0,0)"/>
<path d="" fill="#000000" transform="translate(0,0)"/>
<path d="" fill="#000000" transform="translate(0,0)"/>
<path d="" fill="#000000" transform="translate(0,0)"/>
<path d="" fill="#000000" transform="translate(0,0)"/>
<path d="" fill="#FFFFFF" transform="translate(0,0)"/>
<path d="" fill="#000000" transform="translate(0,0)"/>
<path d="" fill="#000000" transform="translate(0,0)"/>
</svg>
