<?xml version="1.0" encoding="UTF-8"?>
<svg version="1.1" xmlns="http://www.w3.org/2000/svg" width="370" height="165">
<path d="M0 0 C1.63702881 0.00374634 1.63702881 0.00374634 3.30712891 0.00756836 C5.39420166 0.02122437 5.39420166 0.02122437 7.5234375 0.03515625 C11.9371875 0.05578125 16.3509375 0.07640625 20.8984375 0.09765625 C21.2284375 9.99765625 21.5584375 19.89765625 21.8984375 30.09765625 C25.60352539 30.11223877 29.30861328 30.12682129 33.12597656 30.1418457 C45.35167597 30.19212621 57.5772425 30.2585586 69.80281448 30.33337116 C77.21699859 30.37834506 84.63113449 30.41775597 92.04541016 30.4440918 C98.5073745 30.46705906 104.96918649 30.50044266 111.43103004 30.54635781 C114.85284932 30.57030744 118.27451756 30.5890247 121.69641876 30.59527016 C125.51561572 30.6048582 129.33425869 30.63285514 133.15332031 30.6652832 C134.28908005 30.66384811 135.42483978 30.66241302 136.59501648 30.66093445 C138.15567589 30.67974167 138.15567589 30.67974167 139.74786377 30.69892883 C140.65122089 30.7035378 141.55457802 30.70814676 142.4853096 30.71289539 C145.40090593 31.17777226 146.77393052 32.07285149 148.8984375 34.09765625 C150.19842986 38.60174538 149.80577693 42.60639629 149.23339844 47.21704102 C149.15058121 47.90238922 149.06776398 48.58773743 148.98243713 49.29385376 C148.70805262 51.54344779 148.42101264 53.79119974 148.1328125 56.0390625 C147.93636865 57.61029411 147.74035068 59.18157903 147.54473877 60.75291443 C147.13345826 64.03941029 146.71564574 67.32499572 146.29345703 70.61010742 C145.75395358 74.81377667 145.23291094 79.01949867 144.71700668 83.22612095 C144.31683994 86.46914237 143.90581959 89.71071913 143.49164581 92.95197868 C143.295106 94.50202385 143.10217056 96.05253058 142.91295624 97.60348701 C142.64682324 99.77314507 142.36584135 101.94038828 142.08105469 104.10766602 C141.84669708 105.95582664 141.84669708 105.95582664 141.60760498 107.84132385 C140.87910878 111.18640923 139.90786881 113.34390985 137.8984375 116.09765625 C135.46790958 117.31292021 133.89534275 117.23568349 131.17819214 117.25587463 C129.68476288 117.27055786 129.68476288 117.27055786 128.16116333 117.28553772 C127.06496674 117.29129318 125.96877014 117.29704865 124.83935547 117.30297852 C123.68814209 117.31287811 122.53692871 117.32277771 121.35083008 117.33297729 C117.53078292 117.36466358 113.7107233 117.3893779 109.890625 117.4140625 C107.24789093 117.43462587 104.60516019 117.45562217 101.96243286 117.47703552 C95.70806492 117.52698034 89.45367134 117.57191251 83.1992532 117.61505789 C76.07960203 117.66441499 68.95999724 117.71933877 61.84039092 117.77473748 C47.19311702 117.88858497 32.54579697 117.99541798 17.8984375 118.09765625 C17.6921875 118.63390625 17.4859375 119.17015625 17.2734375 119.72265625 C15.8984375 122.09765625 15.8984375 122.09765625 9.8984375 128.09765625 C75.7334375 128.59265625 75.7334375 128.59265625 142.8984375 129.09765625 C143.2284375 130.74765625 143.5584375 132.39765625 143.8984375 134.09765625 C142.8984375 135.09765625 142.8984375 135.09765625 139.8359375 135.16015625 C138.8665625 135.13953125 137.8971875 135.11890625 136.8984375 135.09765625 C137.6409375 136.58265625 137.6409375 136.58265625 138.3984375 138.09765625 C140.41658593 142.8967939 140.80390313 147.2891781 139.20703125 152.2421875 C137.06807067 157.06603583 134.64817724 159.57119894 129.8984375 162.09765625 C124.50113279 163.89675782 119.79795466 163.79234529 114.6484375 161.47265625 C109.88860826 158.84493127 107.60227369 155.20916481 105.8984375 150.09765625 C105.45562917 143.45553137 106.00925946 141.83907169 108.8984375 135.09765625 C88.7684375 135.09765625 68.6384375 135.09765625 47.8984375 135.09765625 C48.8884375 137.07765625 49.8784375 139.05765625 50.8984375 141.09765625 C51.86819605 146.25353919 51.44827857 150.85537647 48.8984375 155.47265625 C45.56581727 160.11016159 41.46952035 162.43197867 35.88671875 163.47265625 C30.58956493 163.80567967 26.17307885 162.19700818 21.8984375 159.09765625 C18.0419151 154.25228196 16.82037008 150.57719779 16.5703125 144.42578125 C16.8984375 142.09765625 16.8984375 142.09765625 19.8984375 135.09765625 C11.9784375 135.42765625 4.0584375 135.75765625 -4.1015625 136.09765625 C-4.4315625 135.43765625 -4.7615625 134.77765625 -5.1015625 134.09765625 C-4.18779264 133.03266392 -3.2701945 131.97095749 -2.3515625 130.91015625 C-1.74391052 130.18575851 -1.13625854 129.46136078 -0.51019287 128.7150116 C1.8984375 126.09765625 1.8984375 126.09765625 4.8895874 123.64375305 C11.27331656 118.21390972 14.52340828 113.41638793 15.23772049 104.93864727 C15.44266883 99.49930958 15.38889268 94.08168535 15.2890625 88.640625 C15.28911892 86.28265301 15.29447397 83.92467576 15.30487061 81.56672668 C15.3179839 75.39922348 15.25972548 69.23443832 15.18597412 63.06744385 C15.12336922 56.75921072 15.12911839 50.4510673 15.12890625 44.14257812 C15.11852167 31.79341806 15.03264511 19.44604853 14.8984375 7.09765625 C13.91447998 7.1133667 13.91447998 7.1133667 12.91064453 7.12939453 C9.94828092 7.17088128 6.98597834 7.19695887 4.0234375 7.22265625 C2.99089844 7.23941406 1.95835937 7.25617187 0.89453125 7.2734375 C-0.09160156 7.27988281 -1.07773438 7.28632813 -2.09375 7.29296875 C-3.46055908 7.3086792 -3.46055908 7.3086792 -4.85498047 7.32470703 C-7.1015625 7.09765625 -7.1015625 7.09765625 -9.1015625 5.09765625 C-8.8515625 3.03515625 -8.8515625 3.03515625 -8.1015625 1.09765625 C-5.33538687 -0.28543156 -3.0913825 -0.01444571 0 0 Z M20.8984375 37.09765625 C20.8778125 49.12203125 20.8571875 61.14640625 20.8359375 73.53515625 C20.8268335 77.33716553 20.81772949 81.1391748 20.80834961 85.05639648 C20.80500596 88.45331528 20.80500596 88.45331528 20.80299377 91.85023499 C20.80145439 93.36769402 20.79792958 94.8851518 20.79286194 96.40260315 C20.78558312 98.69607684 20.78453013 100.98947554 20.78491211 103.28295898 C20.7826915 104.57757553 20.78047089 105.87219208 20.77818298 107.20603943 C20.56715638 109.99208008 20.56715638 109.99208008 21.8984375 111.09765625 C23.35325245 111.19327235 24.81269236 111.21953976 26.27064514 111.21791077 C27.21440506 111.21928543 28.15816498 111.2206601 29.13052368 111.22207642 C30.69605484 111.2166835 30.69605484 111.2166835 32.29321289 111.21118164 C33.38575882 111.21132767 34.47830475 111.21147369 35.60395813 111.21162415 C39.23468983 111.21092447 42.86537096 111.20312954 46.49609375 111.1953125 C49.00573193 111.19344851 51.51537048 111.19202452 54.02500916 111.19102478 C59.96778343 111.18758973 65.91054134 111.17969898 71.85330719 111.16967529 C79.28045675 111.15741878 86.70760855 111.15203417 94.13476562 111.14648438 C107.38933223 111.13574436 120.64388371 111.11885707 133.8984375 111.09765625 C135.49188502 102.53818638 135.49188502 102.53818638 136.76806641 93.92700195 C136.97805771 92.31526848 136.97805771 92.31526848 137.19229126 90.67097473 C137.33508514 89.54978745 137.47787903 88.42860016 137.625 87.2734375 C137.77754242 86.08719284 137.93008484 84.90094818 138.08724976 83.67875671 C138.40636155 81.18894497 138.72393662 78.69893583 139.04003906 76.20874023 C139.52347359 72.40987262 140.01541172 68.61216767 140.5078125 64.81445312 C140.81822615 62.38418067 141.12813922 59.95384421 141.4375 57.5234375 C141.58434235 56.39617752 141.73118469 55.26891754 141.88247681 54.10749817 C142.01616669 53.04246567 142.14985657 51.97743317 142.28759766 50.88012695 C142.40591949 49.95400101 142.52424133 49.02787506 142.64614868 48.07368469 C142.95528115 44.42712187 142.8984375 40.75729876 142.8984375 37.09765625 C102.6384375 37.09765625 62.3784375 37.09765625 20.8984375 37.09765625 Z M25.1484375 139.41015625 C23.23969524 141.9869583 23.02129113 143.90346189 22.8984375 147.09765625 C24.12307367 151.34786413 25.04816776 153.47927826 28.6484375 156.09765625 C32.64136559 157.32624951 34.88695928 157.26463173 38.8984375 156.09765625 C42.40882401 153.50302274 43.67655565 151.86037511 44.8984375 147.66015625 C44.8984375 143.47955316 44.30259219 141.51000484 41.8984375 138.09765625 C35.16943919 133.80255095 31.22780864 134.8506279 25.1484375 139.41015625 Z M115.8984375 138.09765625 C115.3209375 138.51015625 114.7434375 138.92265625 114.1484375 139.34765625 C112.12545934 142.17982567 112.01663605 144.66989844 111.8984375 148.09765625 C113.03592945 150.88273941 113.03592945 150.88273941 114.8984375 153.09765625 C115.5171875 153.96390625 115.5171875 153.96390625 116.1484375 154.84765625 C118.99414006 156.88030094 121.44844191 156.98070725 124.8984375 157.09765625 C128.81752425 155.81641635 130.45776115 154.72313237 132.8359375 151.34765625 C134.14487826 147.34383745 134.07428501 145.13963206 132.8984375 141.09765625 C130.27983597 137.55484242 128.64502098 136.31096582 124.3984375 135.09765625 C120.45334243 135.09765625 118.97412071 135.7054582 115.8984375 138.09765625 Z " fill="#F89151" transform="translate(218.1015625,1.90234375)"/>
<path d="M0 0 C28.71153846 0 28.71153846 0 37.4375 8.25 C42.83087288 15.339306 43.89437913 23.29554957 43 32 C41.76199549 38.90382693 38.53360832 44.62000833 33 49 C24 53 24 53 0 53 C0 35.51 0 18.02 0 0 Z M11 11 C11 21.23 11 31.46 11 42 C19.9954338 42.25031429 19.9954338 42.25031429 27 38 C30.30871911 34.13330163 31.69669338 30.22803415 31.375 25.05078125 C30.53171029 20.43904067 28.98661155 16.56467635 25.234375 13.609375 C20.01224865 10.68991854 17.63602226 11 11 11 Z " fill="#010101" transform="translate(39,84)"/>
<path d="M0 0 C4.37477474 -0.11651725 8.74914827 -0.18736 13.125 -0.25 C14.3625 -0.28351562 15.6 -0.31703125 16.875 -0.3515625 C28.23242294 -0.47368533 28.23242294 -0.47368533 33 4 C36.62833663 7.81930172 37.31000458 10.88279006 37.5 16 C37.31630179 21.11821229 36.56996587 24.14057744 33 28 C31.34580127 29.3487706 29.68071315 30.68441691 28 32 C28.33322266 32.56509277 28.66644531 33.13018555 29.00976562 33.71240234 C30.51100669 36.26398724 32.0055726 38.819419 33.5 41.375 C34.02464844 42.26445313 34.54929688 43.15390625 35.08984375 44.0703125 C35.58613281 44.92109375 36.08242188 45.771875 36.59375 46.6484375 C37.05458984 47.43395996 37.51542969 48.21948242 37.99023438 49.02880859 C39 51 39 51 39 53 C34.71 53 30.42 53 26 53 C24.32818524 50.04447033 22.66237821 47.08583038 21 44.125 C20.52304687 43.28324219 20.04609375 42.44148438 19.5546875 41.57421875 C19.10351562 40.76855469 18.65234375 39.96289062 18.1875 39.1328125 C17.76855469 38.38918457 17.34960938 37.64555664 16.91796875 36.87939453 C16 35 16 35 16 33 C14.35 33 12.7 33 11 33 C11 39.6 11 46.2 11 53 C7.37 53 3.74 53 0 53 C-0.79996123 35.25029332 -1.13348985 17.75219492 0 0 Z M11 11 C11 14.63 11 18.26 11 22 C12.753125 22.061875 14.50625 22.12375 16.3125 22.1875 C17.29863281 22.22230469 18.28476562 22.25710937 19.30078125 22.29296875 C22.01383779 22.22815851 22.01383779 22.22815851 23.83203125 20.64453125 C25.49776873 18.2991283 25.42147552 16.80983677 25 14 C23.88235062 12.24574907 23.88235062 12.24574907 22 11 C19.25756437 10.63729516 19.25756437 10.63729516 16.3125 10.8125 C14.559375 10.874375 12.80625 10.93625 11 11 Z " fill="#000000" transform="translate(2,11)"/>
<path d="M0 0 C-0.11351517 1.81325551 -0.24112961 3.62563357 -0.375 5.4375 C-0.44460937 6.44683594 -0.51421875 7.45617187 -0.5859375 8.49609375 C-0.72257812 9.32238281 -0.85921875 10.14867188 -1 11 C-3.5522107 12.27610535 -4.29869767 11.7226105 -7 11 C-13.83466283 10.30165087 -18.50299235 10.73701447 -24 15 C-27.4016598 19.71843133 -27.72710557 24.37503051 -27 30 C-25.23702858 35.1909714 -22.84320077 37.48526114 -18 40 C-14.535 40.495 -14.535 40.495 -11 41 C-11 35.72 -11 30.44 -11 25 C-7.04 25 -3.08 25 1 25 C1.13457737 28.93863115 1.23392846 32.87269827 1.3125 36.8125 C1.35439453 37.93205078 1.39628906 39.05160156 1.43945312 40.20507812 C1.45556641 41.27822266 1.47167969 42.35136719 1.48828125 43.45703125 C1.51446533 44.44678955 1.54064941 45.43654785 1.56762695 46.45629883 C1 49 1 49 -1.38989258 50.8034668 C-9.84417849 54.67910567 -17.96227299 53.38232048 -26.421875 50.265625 C-32.87274164 47.09883592 -35.82082413 42.85248066 -38.8203125 36.48828125 C-41.5050039 28.54977325 -41.4009963 20.1149168 -37.9375 12.4375 C-33.51440704 5.0081823 -27.99312232 1.37170694 -19.83984375 -1.3125 C-12.89027487 -2.99492658 -6.68651801 -2.3257454 0 0 Z " fill="#000000" transform="translate(129,85)"/>
<path d="M0 0 C0.99 0 1.98 0 3 0 C5.83607114 7.02677899 8.66537312 14.05625547 11.48999023 21.08764648 C12.45164921 23.47922374 13.41485489 25.87017966 14.37963867 28.26049805 C15.76628403 31.6967808 17.14734803 35.13526107 18.52734375 38.57421875 C19.1758152 40.17604256 19.1758152 40.17604256 19.83738708 41.81022644 C20.43789635 43.31121635 20.43789635 43.31121635 21.05053711 44.8425293 C21.40361435 45.71967087 21.75669159 46.59681244 22.12046814 47.50053406 C23 50 23 50 24 55 C19.71 55 15.42 55 11 55 C10.67 53.35 10.34 51.7 10 50 C1.585 50.495 1.585 50.495 -7 51 C-7.66 52.32 -8.32 53.64 -9 55 C-13.29 55 -17.58 55 -22 55 C-19.92505517 48.57878319 -17.60318388 42.32273253 -15.05859375 36.07421875 C-14.69024918 35.16420609 -14.3219046 34.25419342 -13.94239807 33.31660461 C-13.16970701 31.4093458 -12.39567706 29.50262891 -11.62036133 27.59643555 C-10.43428038 24.6795822 -9.25295875 21.7608347 -8.07226562 18.84179688 C-7.317987 16.98165781 -6.56343919 15.12162787 -5.80859375 13.26171875 C-5.45647324 12.39189865 -5.10435272 11.52207855 -4.74156189 10.62590027 C-4.41104324 9.81438004 -4.0805246 9.0028598 -3.73999023 8.16674805 C-3.30722023 7.10160225 -3.30722023 7.10160225 -2.8657074 6.01493835 C-1.98563822 3.96657287 -1.01637143 1.98379403 0 0 Z M1 28 C-0.32 31.63 -1.64 35.26 -3 39 C-0.36 39 2.28 39 5 39 C4.01 35.37 3.02 31.74 2 28 C1.67 28 1.34 28 1 28 Z " fill="#000000" transform="translate(137,9)"/>
<path d="M0 0 C9.24 0 18.48 0 28 0 C28 3.63 28 7.26 28 11 C22.72 11 17.44 11 12 11 C12 14.3 12 17.6 12 21 C16.62 21 21.24 21 26 21 C26 24.63 26 28.26 26 32 C21.38 32 16.76 32 12 32 C12 35.3 12 38.6 12 42 C17.61 42 23.22 42 29 42 C29 45.63 29 49.26 29 53 C19.43 53 9.86 53 0 53 C0 35.51 0 18.02 0 0 Z " fill="#000000" transform="translate(140,84)"/>
<path d="M0 0 C9.24 0 18.48 0 28 0 C28 3.63 28 7.26 28 11 C22.72 11 17.44 11 12 11 C12 14.3 12 17.6 12 21 C16.62 21 21.24 21 26 21 C26 24.63 26 28.26 26 32 C21.38 32 16.76 32 12 32 C12 35.3 12 38.6 12 42 C13.14339844 41.98839844 14.28679688 41.97679687 15.46484375 41.96484375 C16.95572754 41.95546712 18.44661309 41.94636679 19.9375 41.9375 C20.69224609 41.92912109 21.44699219 41.92074219 22.22460938 41.91210938 C24.14994313 41.90347559 26.07535581 41.94775667 28 42 C29 43 29 43 29.1328125 45.03125 C29.13023438 45.8459375 29.12765625 46.660625 29.125 47.5 C29.12886719 48.72203125 29.12886719 48.72203125 29.1328125 49.96875 C29 52 29 52 28 53 C25.92737924 53.08767112 23.85179706 53.10695873 21.77734375 53.09765625 C20.64288818 53.09515869 19.50843262 53.09266113 18.33959961 53.09008789 C16.1605603 53.07643188 16.1605603 53.07643188 13.9375 53.0625 C7.0384375 53.0315625 7.0384375 53.0315625 0 53 C0 35.51 0 18.02 0 0 Z " fill="#000000" transform="translate(47,11)"/>
<path d="M0 0 C8.91 0 17.82 0 27 0 C27 3.63 27 7.26 27 11 C21.72 11 16.44 11 11 11 C11 14.3 11 17.6 11 21 C15.62 21 20.24 21 25 21 C25 24.63 25 28.26 25 32 C20.38 32 15.76 32 11 32 C11 35.3 11 38.6 11 42 C16.61 42 22.22 42 28 42 C28 45.63 28 49.26 28 53 C18.76 53 9.52 53 0 53 C0 35.51 0 18.02 0 0 Z " fill="#000000" transform="translate(2,84)"/>
<path d="M0 0 C12.54 0 25.08 0 38 0 C38 3.63 38 7.26 38 11 C33.38 11 28.76 11 24 11 C24.12568359 12.90845703 24.12568359 12.90845703 24.25390625 14.85546875 C25.02073524 27.66089947 24.84274095 40.20330284 24 53 C20.37 53 16.74 53 13 53 C13 39.14 13 25.28 13 11 C8.71 11 4.42 11 0 11 C-1 7 -1 7 0 0 Z " fill="#000000" transform="translate(80,11)"/>
<path d="M0 0 C3.63 0 7.26 0 11 0 C11 13.86 11 27.72 11 42 C16.61 42 22.22 42 28 42 C28 45.63 28 49.26 28 53 C18.76 53 9.52 53 0 53 C0 35.51 0 18.02 0 0 Z " fill="#000000" transform="translate(190,11)"/>
<path d="M0 0 C33.33 0 66.66 0 101 0 C101.495 1.98 101.495 1.98 102 4 C96.87847878 9.12152122 74.88728581 6.16493268 67.6171875 6.16796875 C65.78589859 6.17118973 63.95460993 6.1745544 62.12332153 6.17805481 C58.31625775 6.18399497 54.50921652 6.18589954 50.70214844 6.18530273 C45.82428121 6.18520028 40.94655684 6.19896011 36.06872368 6.21607494 C32.30096772 6.22717516 28.53324686 6.22922271 24.76547623 6.22869301 C22.9657351 6.22987196 21.16599304 6.23428895 19.36626816 6.24202538 C16.86109906 6.25180447 14.35624825 6.2489578 11.85107422 6.24291992 C11.11133865 6.24853943 10.37160309 6.25415894 9.60945129 6.25994873 C5.91126519 6.23725847 3.14149466 6.04981304 0 4 C0 2.68 0 1.36 0 0 Z " fill="#FB914F" transform="translate(246,113)"/>
<path d="M0 0 C3.63 0 7.26 0 11 0 C11 17.49 11 34.98 11 53 C7.37 53 3.74 53 0 53 C0 35.51 0 18.02 0 0 Z " fill="#000000" transform="translate(168,11)"/>
<path d="M0 0 C43.89 0 87.78 0 133 0 C133 0.33 133 0.66 133 1 C131.82606689 1.02505615 130.65213379 1.0501123 129.44262695 1.07592773 C125.02734101 1.17112228 120.61217214 1.27105471 116.19702148 1.37231445 C114.29731004 1.41524488 112.39757028 1.45694295 110.49780273 1.49731445 C99.96712385 1.72196154 89.4912958 2.00333301 79 3 C80.32 3.99 81.64 4.98 83 6 C68.15 6 53.3 6 38 6 C38.495 7.98 38.495 7.98 39 10 C38.443125 9.525625 37.88625 9.05125 37.3125 8.5625 C34.81653926 6.87604004 32.9553763 6.41046893 30 6 C29.67 6.66 29.34 7.32 29 8 C27.948125 7.79375 26.89625 7.5875 25.8125 7.375 C22.00375113 7.00036896 20.33164248 7.28369933 17 9 C16.67 7.68 16.34 6.36 16 5 C17.32 4.34 18.64 3.68 20 3 C13.73 2.67 7.46 2.34 1 2 C0.67 1.34 0.34 0.68 0 0 Z " fill="#EA9864" transform="translate(228,131)"/>
<path d="M0 0 C1.65 0 3.3 0 5 0 C6.27899046 2.55798092 6.13396991 4.38026857 6.14526367 7.24414062 C6.15483345 8.88594299 6.15483345 8.88594299 6.16459656 10.56091309 C6.16570938 11.74737427 6.1668222 12.93383545 6.16796875 14.15625 C6.17129715 15.36945923 6.17462555 16.58266846 6.17805481 17.8326416 C6.18312476 20.40160746 6.18546311 22.97057992 6.18530273 25.53955078 C6.18749085 29.48350788 6.20565065 33.42718613 6.22460938 37.37109375 C6.22754287 39.86197821 6.22952796 42.352864 6.23046875 44.84375 C6.23765427 46.03021118 6.24483978 47.21667236 6.25224304 48.43908691 C6.24916641 49.53362183 6.24608978 50.62815674 6.24291992 51.75585938 C6.24434494 52.72245483 6.24576996 53.68905029 6.24723816 54.68493652 C6 57 6 57 4 59 C0.46428571 58.46428571 0.46428571 58.46428571 -1 57 C-1.09881245 55.29210719 -1.12798966 53.58013307 -1.12939453 51.86938477 C-1.13412277 50.2274691 -1.13412277 50.2274691 -1.13894653 48.55238342 C-1.1369223 47.36076096 -1.13489807 46.16913849 -1.1328125 44.94140625 C-1.13376923 43.72678207 -1.13472595 42.5121579 -1.13571167 41.26072693 C-1.13639377 38.68578032 -1.13453741 36.110832 -1.13037109 33.53588867 C-1.12502789 29.58313142 -1.13031274 25.63048804 -1.13671875 21.67773438 C-1.13605788 19.18229141 -1.13477654 16.68684853 -1.1328125 14.19140625 C-1.13483673 13.00180801 -1.13686096 11.81220978 -1.13894653 10.58656311 C-1.13579437 9.48880051 -1.13264221 8.3910379 -1.12939453 7.26000977 C-1.12859894 6.2903981 -1.12780334 5.32078644 -1.12698364 4.3217926 C-1 2 -1 2 0 0 Z " fill="#FD904C" transform="translate(312,44)"/>
<path d="M0 0 C3 1 3 1 4 3 C4.10576162 4.70973245 4.14876668 6.42351879 4.16113281 8.13647461 C4.17074036 9.20776108 4.1803479 10.27904755 4.19024658 11.38279724 C4.19449646 12.54424759 4.19874634 13.70569794 4.203125 14.90234375 C4.20882507 16.09098526 4.21452515 17.27962677 4.22039795 18.50428772 C4.22985676 21.02197374 4.23638542 23.5396722 4.24023438 26.05737305 C4.24995098 29.91802416 4.28097142 33.77814556 4.3125 37.63867188 C4.31902867 40.08072599 4.32427968 42.52278393 4.328125 44.96484375 C4.3404718 46.12426987 4.3528186 47.28369598 4.36553955 48.47825623 C4.36253845 49.55269485 4.35953735 50.62713348 4.35644531 51.73413086 C4.36191376 53.15404579 4.36191376 53.15404579 4.36749268 54.60264587 C3.93884501 57.3989472 3.18165484 58.271351 1 60 C-0.32 59.34 -1.64 58.68 -3 58 C-3.0694429 50.73311247 -3.12278189 43.46629622 -3.15543652 36.19914436 C-3.17110744 32.82486394 -3.19237093 29.45081013 -3.22631836 26.07666016 C-3.2625736 22.19948252 -3.27969728 18.32262828 -3.29296875 14.4453125 C-3.30845261 13.23070343 -3.32393646 12.01609436 -3.33988953 10.76467896 C-3.34022942 9.08316238 -3.34022942 9.08316238 -3.34057617 7.36767578 C-3.34723801 6.37728302 -3.35389984 5.38689026 -3.36076355 4.3664856 C-3.24171158 3.58554535 -3.12265961 2.8046051 -3 2 C-2.01 1.34 -1.02 0.68 0 0 Z " fill="#FD914C" transform="translate(275,43)"/>
<path d="M0 0 C1.21171875 0.00322266 2.4234375 0.00644531 3.671875 0.00976562 C4.94289062 0.01814453 6.21390625 0.02652344 7.5234375 0.03515625 C8.8021875 0.03966797 10.0809375 0.04417969 11.3984375 0.04882812 C14.56515042 0.06064422 17.73177106 0.0771181 20.8984375 0.09765625 C20.95629397 4.0559286 20.99198467 8.01409295 21.0234375 11.97265625 C21.04019531 13.10058594 21.05695313 14.22851562 21.07421875 15.390625 C21.08066406 16.46699219 21.08710938 17.54335938 21.09375 18.65234375 C21.10422363 19.64733887 21.11469727 20.64233398 21.12548828 21.66748047 C20.8984375 24.09765625 20.8984375 24.09765625 18.8984375 26.09765625 C18.5684375 25.76765625 18.2384375 25.43765625 17.8984375 25.09765625 C17.87861816 25.90509277 17.85879883 26.7125293 17.83837891 27.54443359 C17.74337851 31.187515 17.63359838 34.83000311 17.5234375 38.47265625 C17.47703125 40.37917969 17.47703125 40.37917969 17.4296875 42.32421875 C17.39101562 43.5359375 17.35234375 44.74765625 17.3125 45.99609375 C17.2810791 47.11677246 17.2496582 48.23745117 17.21728516 49.39208984 C16.8984375 52.09765625 16.8984375 52.09765625 14.8984375 54.09765625 C14.8984375 38.58765625 14.8984375 23.07765625 14.8984375 7.09765625 C7.6384375 7.09765625 0.3784375 7.09765625 -7.1015625 7.09765625 C-7.7615625 6.43765625 -8.4215625 5.77765625 -9.1015625 5.09765625 C-8.8515625 3.03515625 -8.8515625 3.03515625 -8.1015625 1.09765625 C-5.33538687 -0.28543156 -3.0913825 -0.01444571 0 0 Z " fill="#EF945B" transform="translate(218.1015625,1.90234375)"/>
<path d="M0 0 C1.32 0.66 2.64 1.32 4 2 C4 20.48 4 38.96 4 58 C2.68 58.66 1.36 59.32 0 60 C-0.66 59.67 -1.32 59.34 -2 59 C-2 39.86 -2 20.72 -2 1 C-1.34 0.67 -0.68 0.34 0 0 Z " fill="#F59253" transform="translate(255,43)"/>
<path d="M0 0 C1.32 0.66 2.64 1.32 4 2 C4 20.48 4 38.96 4 58 C2.68 58.66 1.36 59.32 0 60 C-0.66 59.67 -1.32 59.34 -2 59 C-2.04629419 51.6026924 -2.08185426 44.20541593 -2.10362434 36.80799294 C-2.1140717 33.37324541 -2.12824805 29.93859683 -2.15087891 26.50390625 C-2.17672063 22.55730362 -2.18646493 18.61074137 -2.1953125 14.6640625 C-2.20563507 13.42757965 -2.21595764 12.1910968 -2.22659302 10.91714478 C-2.22674408 9.77611298 -2.22689514 8.63508118 -2.22705078 7.45947266 C-2.231492 6.451315 -2.23593323 5.44315735 -2.24050903 4.40444946 C-2 2 -2 2 0 0 Z " fill="#FD904D" transform="translate(294,43)"/>
<path d="M0 0 C1.65 0.33 3.3 0.66 5 1 C5 19.81 5 38.62 5 58 C3.02 58.495 3.02 58.495 1 59 C-1 57 -1 57 -1.24723816 54.64024353 C-1.24581314 53.65286697 -1.24438812 52.66549042 -1.24291992 51.64819336 C-1.24599655 50.53041 -1.24907318 49.41262665 -1.25224304 48.26097107 C-1.24505753 47.04949905 -1.23787201 45.83802704 -1.23046875 44.58984375 C-1.23001053 43.3520668 -1.22955231 42.11428986 -1.2290802 40.83900452 C-1.2252786 37.54641953 -1.21225824 34.25402641 -1.19561768 30.96148682 C-1.18216164 27.60648353 -1.18534184 24.2515137 -1.18554688 20.89648438 C-1.18063168 18.35676883 -1.17480335 15.81705485 -1.16796875 13.27734375 C-1.16685593 12.0638475 -1.1657431 10.85035126 -1.16459656 9.6000824 C-1.15821671 8.4854512 -1.15183685 7.37082001 -1.14526367 6.22241211 C-1.14145187 5.23583115 -1.13764008 4.24925018 -1.13371277 3.23277283 C-1 1 -1 1 0 0 Z " fill="#E39462" transform="translate(332,44)"/>
<path d="M0 0 C8.12628256 -0.46882399 8.12628256 -0.46882399 11.5625 1.375 C13 3 13 3 13 5 C10.61435923 4.42415568 8.33317216 3.77772405 6 3 C4.00326516 2.64763503 2.00349261 2.31165441 0 2 C0 1.34 0 0.68 0 0 Z M-114 4 C-73.41 4 -32.82 4 9 4 C8.67 6.97 8.34 9.94 8 13 C7.67 13 7.34 13 7 13 C7 10.69 7 8.38 7 6 C-32.93 6 -72.86 6 -114 6 C-114 5.34 -114 4.68 -114 4 Z " fill="#E79562" transform="translate(354,33)"/>
<path d="M0 0 C1.76234991 0.05339471 3.52471984 0.1061329 5.28710938 0.15820312 C9.54584083 0.28542749 13.80420524 0.42144179 18.0625 0.5625 C17.4025 0.8925 16.7425 1.2225 16.0625 1.5625 C16.0625 2.2225 16.0625 2.8825 16.0625 3.5625 C9.92230501 3.65192032 4.12359064 3.62319086 -1.9375 2.5625 C-4.21400745 2.9202614 -4.21400745 2.9202614 -5.9375 3.5625 C-5.875625 4.305 -5.81375 5.0475 -5.75 5.8125 C-5.96989994 9.03769908 -6.72002188 10.25973426 -8.9375 12.5625 C-9.5975 12.5625 -10.2575 12.5625 -10.9375 12.5625 C-10.6075 15.8625 -10.2775 19.1625 -9.9375 22.5625 C-10.9275 22.8925 -11.9175 23.2225 -12.9375 23.5625 C-14.73635972 19.73992309 -15.30453674 16.7834225 -14.9375 12.5625 C-14.2775 11.5725 -13.6175 10.5825 -12.9375 9.5625 C-12.77036431 6.93718476 -12.77036431 6.93718476 -12.9375 4.5625 C-14.03449219 4.57410156 -15.13148438 4.58570313 -16.26171875 4.59765625 C-17.71614412 4.60703964 -19.17057135 4.61613925 -20.625 4.625 C-21.7068457 4.63756836 -21.7068457 4.63756836 -22.81054688 4.65039062 C-26.65305382 4.66793632 -30.20389526 4.49774221 -33.9375 3.5625 C-34.2675 2.5725 -34.5975 1.5825 -34.9375 0.5625 C-23.23568878 -0.49928796 -11.73155277 -0.3910889 0 0 Z " fill="#FB914C" transform="translate(339.9375,132.4375)"/>
<path d="M0 0 C1.65 0 3.3 0 5 0 C6.27899046 2.55798092 6.13396991 4.38026857 6.14526367 7.24414062 C6.15483345 8.88594299 6.15483345 8.88594299 6.16459656 10.56091309 C6.16570938 11.74737427 6.1668222 12.93383545 6.16796875 14.15625 C6.17129715 15.36945923 6.17462555 16.58266846 6.17805481 17.8326416 C6.18312476 20.40160746 6.18546311 22.97057992 6.18530273 25.53955078 C6.18749085 29.48350788 6.20565065 33.42718613 6.22460938 37.37109375 C6.22754287 39.86197821 6.22952796 42.352864 6.23046875 44.84375 C6.23765427 46.03021118 6.24483978 47.21667236 6.25224304 48.43908691 C6.24916641 49.53362183 6.24608978 50.62815674 6.24291992 51.75585938 C6.24434494 52.72245483 6.24576996 53.68905029 6.24723816 54.68493652 C6 57 6 57 4 59 C0.46428571 58.46428571 0.46428571 58.46428571 -1 57 C-1.09881245 55.29210719 -1.12798966 53.58013307 -1.12939453 51.86938477 C-1.13412277 50.2274691 -1.13412277 50.2274691 -1.13894653 48.55238342 C-1.1369223 47.36076096 -1.13489807 46.16913849 -1.1328125 44.94140625 C-1.13376923 43.72678207 -1.13472595 42.5121579 -1.13571167 41.26072693 C-1.13639377 38.68578032 -1.13453741 36.110832 -1.13037109 33.53588867 C-1.12502789 29.58313142 -1.13031274 25.63048804 -1.13671875 21.67773438 C-1.13605788 19.18229141 -1.13477654 16.68684853 -1.1328125 14.19140625 C-1.13483673 13.00180801 -1.13686096 11.81220978 -1.13894653 10.58656311 C-1.13579437 9.48880051 -1.13264221 8.3910379 -1.12939453 7.26000977 C-1.12859894 6.2903981 -1.12780334 5.32078644 -1.12698364 4.3217926 C-1 2 -1 2 0 0 Z M1 2 C1 19.82 1 37.64 1 56 C2.98 55.505 2.98 55.505 5 55 C5 37.51 5 20.02 5 2 C3.68 2 2.36 2 1 2 Z " fill="#E0915F" transform="translate(312,44)"/>
<path d="M0 0 C0.66 0 1.32 0 2 0 C3.26451011 2.52902022 3.1406959 4.30555522 3.16113281 7.13647461 C3.17074036 8.20776108 3.1803479 9.27904755 3.19024658 10.38279724 C3.19449646 11.54424759 3.19874634 12.70569794 3.203125 13.90234375 C3.20882507 15.09098526 3.21452515 16.27962677 3.22039795 17.50428772 C3.22985676 20.02197374 3.23638542 22.5396722 3.24023438 25.05737305 C3.24995098 28.91802416 3.28097142 32.77814556 3.3125 36.63867188 C3.31902867 39.08072599 3.32427968 41.52278393 3.328125 43.96484375 C3.3404718 45.12426987 3.3528186 46.28369598 3.36553955 47.47825623 C3.36253845 48.55269485 3.35953735 49.62713348 3.35644531 50.73413086 C3.36191376 52.15404579 3.36191376 52.15404579 3.36749268 53.60264587 C2.93884501 56.3989472 2.18165484 57.271351 0 59 C-1.32 58.34 -2.64 57.68 -4 57 C-4 38.52 -4 20.04 -4 1 C-3.67 1 -3.34 1 -3 1 C-2.67 18.82 -2.34 36.64 -2 55 C-1.34 55 -0.68 55 0 55 C0 36.85 0 18.7 0 0 Z " fill="#E08E5D" transform="translate(276,44)"/>
<path d="M0 0 C1.32 0 2.64 0 4 0 C3.90150757 0.81368042 3.90150757 0.81368042 3.80102539 1.64379883 C2.70422571 11.9601617 2.65027119 22.32424037 2.4375 32.6875 C2.39422484 34.66081488 2.35060796 36.6341223 2.30664062 38.60742188 C2.2004845 43.40487089 2.09896229 48.20239742 2 53 C1.01 53.495 1.01 53.495 0 54 C-1.03041123 48.06822849 -1.14539966 42.30165346 -1.1328125 36.2890625 C-1.13376923 35.28032074 -1.13472595 34.27157898 -1.13571167 33.23226929 C-1.13638926 31.1126906 -1.13456444 28.9931098 -1.13037109 26.87353516 C-1.12498324 23.61486225 -1.13034746 20.35632509 -1.13671875 17.09765625 C-1.13605855 15.03645803 -1.1347786 12.97525989 -1.1328125 10.9140625 C-1.13483673 9.93498932 -1.13686096 8.95591614 -1.13894653 7.94717407 C-1.13579437 7.04888885 -1.13264221 6.15060364 -1.12939453 5.22509766 C-1.12820114 4.03432114 -1.12820114 4.03432114 -1.12698364 2.81948853 C-1 1 -1 1 0 0 Z " fill="#FA9150" transform="translate(333,45)"/>
<path d="M0 0 C14.52 0 29.04 0 44 0 C43.34 1.32 42.68 2.64 42 4 C38.37501758 4.02946035 34.75006668 4.04695131 31.125 4.0625 C30.11179687 4.07087891 29.09859375 4.07925781 28.0546875 4.08789062 C22.3518491 4.10616895 16.79220626 3.86464426 11.12548828 3.22485352 C8.69917719 2.96817622 6.31391937 2.89816259 3.875 2.9375 C1.956875 2.9684375 1.956875 2.9684375 0 3 C0 2.01 0 1.02 0 0 Z " fill="#FC904C" transform="translate(256,133)"/>
<path d="M0 0 C8.91 0 17.82 0 27 0 C26 5 26 5 25 6 C23.07126501 6.01676178 21.14183108 5.96268831 19.21484375 5.87890625 C17.46010742 5.80639648 17.46010742 5.80639648 15.66992188 5.73242188 C14.43822266 5.67634766 13.20652344 5.62027344 11.9375 5.5625 C10.08415039 5.48418945 10.08415039 5.48418945 8.19335938 5.40429688 C5.12867809 5.27413667 2.06428387 5.13915654 -1 5 C-0.67 3.35 -0.34 1.7 0 0 Z " fill="#FCA53C" transform="translate(212,2)"/>
<path d="M0 0 C1.32 0.66 2.64 1.32 4 2 C4 20.48 4 38.96 4 58 C2.68 58.66 1.36 59.32 0 60 C-0.66 59.67 -1.32 59.34 -2 59 C-2.04629419 51.6026924 -2.08185426 44.20541593 -2.10362434 36.80799294 C-2.1140717 33.37324541 -2.12824805 29.93859683 -2.15087891 26.50390625 C-2.17672063 22.55730362 -2.18646493 18.61074137 -2.1953125 14.6640625 C-2.20563507 13.42757965 -2.21595764 12.1910968 -2.22659302 10.91714478 C-2.22674408 9.77611298 -2.22689514 8.63508118 -2.22705078 7.45947266 C-2.231492 6.451315 -2.23593323 5.44315735 -2.24050903 4.40444946 C-2 2 -2 2 0 0 Z M-1 3 C-1 20.82 -1 38.64 -1 57 C-0.01 57.33 0.98 57.66 2 58 C3.26372044 55.47255912 3.12022795 53.73619692 3.11352539 50.90771484 C3.11344986 49.84676605 3.11337433 48.78581726 3.11329651 47.69271851 C3.10555458 45.96923691 3.10555458 45.96923691 3.09765625 44.2109375 C3.0962413 43.03737701 3.09482635 41.86381653 3.09336853 40.6546936 C3.08775689 36.89477015 3.07520238 33.13490555 3.0625 29.375 C3.0574865 26.83073002 3.05292333 24.28645912 3.04882812 21.7421875 C3.03778368 15.49477147 3.02103418 9.24738994 3 3 C1.68 3 0.36 3 -1 3 Z " fill="#E8935D" transform="translate(294,43)"/>
<path d="M0 0 C0.33 0 0.66 0 1 0 C1.51889116 8.20616756 0.37263391 16.04437556 -0.85595703 24.12841797 C-1.90358019 31.08218837 -2.62198241 37.97408681 -3 45 C-1.02 44.505 -1.02 44.505 1 44 C0.67 48.62 0.34 53.24 0 58 C-0.33 58 -0.66 58 -1 58 C-1.33 54.7 -1.66 51.4 -2 48 C-5.17273461 51.17273461 -4.4502419 55.01633592 -4.65625 59.34765625 C-4.7696875 60.22292969 -4.883125 61.09820312 -5 62 C-5.99 62.495 -5.99 62.495 -7 63 C-6.42725737 49.39515968 -4.71646995 35.99146199 -2.9375 22.5 C-2.65251181 20.30865651 -2.36800324 18.11725059 -2.08398438 15.92578125 C-1.39484145 10.61645626 -0.69981755 5.30792797 0 0 Z " fill="#E9935E" transform="translate(360,47)"/>
<path d="M0 0 C0.99 0 1.98 0 3 0 C2.47731534 2.76276177 1.89130413 5.3260876 1 8 C1 9.32 1 10.64 1 12 C0.34 12 -0.32 12 -1 12 C-1.04125 12.763125 -1.0825 13.52625 -1.125 14.3125 C-2 17 -2 17 -4.75 18.875 C-8.14324178 20.04958369 -9.64126977 20.08664802 -13 19 C-12 17 -12 17 -9.25 16 C-4.09976027 12.8306217 -1.94154984 7.42539297 -0.36328125 1.68359375 C-0.24339844 1.12800781 -0.12351562 0.57242188 0 0 Z " fill="#FA914C" transform="translate(354,143)"/>
<path d="M0 0 C4.95 0 9.9 0 15 0 C15.33 0.66 15.66 1.32 16 2 C14.02 2.99 14.02 2.99 12 4 C12 5.32 12 6.64 12 8 C10.68 7.67 9.36 7.34 8 7 C8.33 6.01 8.66 5.02 9 4 C8.01 3.67 7.02 3.34 6 3 C5.67 3.66 5.34 4.32 5 5 C3.35 3.35 1.7 1.7 0 0 Z " fill="#FD9347" transform="translate(233,133)"/>
<path d="M0 0 C2.475 0.99 2.475 0.99 5 2 C5.33 1.34 5.66 0.68 6 0 C7.35335895 0.97272675 8.68662604 1.9739266 10 3 C10 3.33 10 3.66 10 4 C13.3 4.33 16.6 4.66 20 5 C16.26212006 7.49191996 13.32773112 7.63688242 9 7 C6.12011759 5.99204116 3.45256939 4.82872381 1 3 C0.67 2.01 0.34 1.02 0 0 Z " fill="#EC915B" transform="translate(239,158)"/>
<path d="M0 0 C4.62 0 9.24 0 14 0 C14.33 0.66 14.66 1.32 15 2 C14.67 2.66 14.34 3.32 14 4 C9.48382401 4.07654536 5.40914783 4.10228696 1 3 C0.67 2.01 0.34 1.02 0 0 Z " fill="#FD9149" transform="translate(305,133)"/>
<path d="M0 0 C0 0.33 0 0.66 0 1 C-2.97 1 -5.94 1 -9 1 C-8.67 2.32 -8.34 3.64 -8 5 C-8.556875 4.525625 -9.11375 4.05125 -9.6875 3.5625 C-12.18346074 1.87604004 -14.0446237 1.41046893 -17 1 C-17.33 1.66 -17.66 2.32 -18 3 C-19.98 2.34 -21.96 1.68 -24 1 C-24 0.67 -24 0.34 -24 0 C-15.85351368 -0.76299944 -8.11388044 -1.21521251 0 0 Z " fill="#EC9660" transform="translate(275,136)"/>
<path d="M0 0 C0 0.66 0 1.32 0 2 C1.32 2.33 2.64 2.66 4 3 C3.67 3.66 3.34 4.32 3 5 C2.484375 4.649375 1.96875 4.29875 1.4375 3.9375 C-1.96915087 2.62724967 -4.47476024 3.2818956 -8 4 C-8.99 4.495 -8.99 4.495 -10 5 C-10 3.68 -10 2.36 -10 1 C-6.42181037 -1.33958553 -4.07775191 -0.9267618 0 0 Z " fill="#EE9762" transform="translate(344,135)"/>
<path d="M0 0 C0.66 0.99 1.32 1.98 2 3 C2.99 3.33 3.98 3.66 5 4 C5 4.99 5 5.98 5 7 C3.68 7.33 2.36 7.66 1 8 C1 7.01 1 6.02 1 5 C-0.32 5 -1.64 5 -3 5 C-3 3.68 -3 2.36 -3 1 C-2.01 0.67 -1.02 0.34 0 0 Z " fill="#FD944A" transform="translate(333,155)"/>
<path d="M0 0 C2.97 0.33 5.94 0.66 9 1 C9.33 1.99 9.66 2.98 10 4 C10.66 4 11.32 4 12 4 C11.67 5.32 11.34 6.64 11 8 C10.67 7.34 10.34 6.68 10 6 C9.01 5.67 8.02 5.34 7 5 C7.33 4.01 7.66 3.02 8 2 C5.36 2 2.72 2 0 2 C0 1.34 0 0.68 0 0 Z " fill="#F3925B" transform="translate(321,135)"/>
<path d="M0 0 C2.475 0.99 2.475 0.99 5 2 C4.01 2.495 4.01 2.495 3 3 C2.59270772 5.32156597 2.25561323 7.6568787 2 10 C1.34 10 0.68 10 0 10 C-0.19412181 8.52168779 -0.38012131 7.04230684 -0.5625 5.5625 C-0.66691406 4.73878906 -0.77132813 3.91507813 -0.87890625 3.06640625 C-0.91886719 2.38449219 -0.95882813 1.70257813 -1 1 C-0.67 0.67 -0.34 0.34 0 0 Z " fill="#FC9348" transform="translate(363,37)"/>
<path d="M0 0 C0.66 0 1.32 0 2 0 C1.34 5.94 0.68 11.88 0 18 C-0.33 18 -0.66 18 -1 18 C-1 14.7 -1 11.4 -1 8 C-1.66 7.67 -2.32 7.34 -3 7 C-2.34 7 -1.68 7 -1 7 C-0.67 4.69 -0.34 2.38 0 0 Z " fill="#EF8F59" transform="translate(366,40)"/>
<path d="M0 0 C0.99 0 1.98 0 3 0 C2.67 4.62 2.34 9.24 2 14 C1.67 14 1.34 14 1 14 C0.67 9.38 0.34 4.76 0 0 Z " fill="#EA905C" transform="translate(362,60)"/>
<path d="M0 0 C0.33 0.66 0.66 1.32 1 2 C3.02463255 2.65213292 3.02463255 2.65213292 5 3 C5.33 2.01 5.66 1.02 6 0 C5.67 1.65 5.34 3.3 5 5 C4.01 5.33 3.02 5.66 2 6 C1.34 5.67 0.68 5.34 0 5 C0 3.35 0 1.7 0 0 Z " fill="#ED9158" transform="translate(253,97)"/>
<path d="M0 0 C1.22589844 0.29197266 1.22589844 0.29197266 2.4765625 0.58984375 C3.41628906 0.82380859 3.41628906 0.82380859 4.375 1.0625 C4.375 1.3925 4.375 1.7225 4.375 2.0625 C3.116875 2.10375 1.85875 2.145 0.5625 2.1875 C-0.14519531 2.21070313 -0.85289062 2.23390625 -1.58203125 2.2578125 C-3.625 2.0625 -3.625 2.0625 -6.625 0.0625 C-3.99249612 -1.25375194 -2.82320944 -0.68563658 0 0 Z " fill="#E68F63" transform="translate(340.625,162.9375)"/>
<path d="M0 0 C0.33 0 0.66 0 1 0 C1.08226668 3.04386724 0.97608217 5.07175348 0 8 C-0.99 7.67 -1.98 7.34 -3 7 C-2.38722388 4.03824877 -1.74627478 2.61941217 0 0 Z " fill="#FC8E45" transform="translate(240,145)"/>
<path d="M0 0 C1.65 0.33 3.3 0.66 5 1 C4.01 2.485 4.01 2.485 3 4 C1.68 3.67 0.36 3.34 -1 3 C-0.67 2.01 -0.34 1.02 0 0 Z " fill="#F8AE43" transform="translate(214,134)"/>
<path d="M0 0 C1.485 0.99 1.485 0.99 3 2 C2.01 2 1.02 2 0 2 C0 1.34 0 0.68 0 0 Z M0 3 C0.99 3.33 1.98 3.66 3 4 C3 4.99 3 5.98 3 7 C1.68 7 0.36 7 -1 7 C-0.67 5.68 -0.34 4.36 0 3 Z " fill="#FB9846" transform="translate(227,120)"/>
<path d="" fill="#FFFFFF" transform="translate(0,0)"/>
<path d="" fill="#FFFFFF" transform="translate(0,0)"/>
<path d="" fill="#FFFFFF" transform="translate(0,0)"/>
<path d="" fill="#FFFFFF" transform="translate(0,0)"/>
<path d="" fill="#FFFFFF" transform="translate(0,0)"/>
<path d="" fill="#FFFFFF" transform="translate(0,0)"/>
</svg>
