<?xml version="1.0" encoding="UTF-8"?>
<svg version="1.1" xmlns="http://www.w3.org/2000/svg" width="226" height="137">
<path d="M0 0 C2.57813937 2.49204195 4.9677371 5.03982285 7 8 C7 8.66 7 9.32 7 10 C7.5259375 9.83628906 8.051875 9.67257813 8.59375 9.50390625 C11.60889089 8.87248876 14.42089342 8.90572023 17.5 8.9375 C19.18609375 8.95103516 19.18609375 8.95103516 20.90625 8.96484375 C22.43765625 8.98224609 22.43765625 8.98224609 24 9 C25.32 9 26.64 9 28 9 C30.11560519 6.95725779 30.11560519 6.95725779 32.125 4.3125 C37.72272692 -2.15557726 43.46741172 -5.735727 52 -6.9375 C61.152988 -7.42527679 70.17574844 -5.24110027 77.1328125 0.875 C83.9227392 7.89042242 87.12732874 15.3608088 87.4375 25.125 C87.03773814 34.80673246 83.92526031 42.11484738 77 49 C68.86715729 54.9056508 59.95040715 57.05798407 50 56 C41.01304245 53.95806543 34.48044425 49.94864022 29.17578125 42.40625 C24.32872246 34.00016203 24.47506114 27.4488995 25 18 C20.38 18 15.76 18 11 18 C11.0825 19.93875 11.165 21.8775 11.25 23.875 C11.21888224 33.42815183 8.48965157 40.29940699 1.921875 47.24609375 C-5.36315514 53.8944241 -13.25721895 56.53806897 -23.09765625 56.30859375 C-31.80812454 55.38244705 -39.39875179 51.78753877 -45 45 C-50.49382105 36.71128746 -53.25554552 28.16875989 -51.515625 18.234375 C-48.87134221 8.42114777 -42.93818606 1.21868805 -34.21875 -3.921875 C-23.29815225 -9.22836264 -9.53163536 -7.42171996 0 0 Z M-41 6 C-46.38961514 13.4165791 -48.96481168 19.8272976 -48 29 C-45.96002478 38.14740479 -41.70304218 44.18717066 -33.9375 49.37890625 C-27.00936207 53.03400843 -18.87349115 53.35818606 -11.37890625 51.26953125 C-3.10086071 47.84942812 2.37750004 42.50724991 6.25 34.375 C8.18363768 25.67363043 7.81425382 17.62611889 3 10 C-1.69171502 3.33657689 -6.75605369 -0.46518645 -14.5625 -2.75 C-24.80417167 -3.80042786 -33.63468751 -1.44267922 -41 6 Z M34 7 C29.04700847 14.33919838 27.26191756 21.78307482 28.3046875 30.56640625 C30.15678649 38.67251075 35.44039809 44.75984333 42.1328125 49.515625 C48.97744904 53.10211352 57.20267604 53.2899149 64.5859375 51.3046875 C72.70747326 48.0061798 78.22212351 42.84635887 82 35 C84.25342727 27.87429754 84.13536191 19.49848259 81.0625 12.6875 C77.04435827 5.75733421 71.55429329 0.51301074 63.875 -2 C52.98735542 -4.55884734 41.3549985 -1.9064435 34 7 Z " fill="#F5FCFE" transform="translate(97,69)"/>
<path d="M0 0 C1.2684375 0.12375 1.2684375 0.12375 2.5625 0.25 C3.2225 1.24 3.8825 2.23 4.5625 3.25 C5.201875 2.755 5.84125 2.26 6.5 1.75 C10.6315583 -0.27362039 14.04058735 -0.44884105 18.5625 0.25 C21.75367948 1.77621627 23.03795861 3.12446584 24.52734375 6.3203125 C27.48969295 14.81147013 28.20635459 23.5560861 24.3125 31.8125 C22.52500712 35.17232457 20.79414624 37.2145639 17.5625 39.25 C13.79451262 40.19199684 11.25862131 40.30148279 7.5625 39.25 C7.36914062 40.44238281 7.17578125 41.63476562 6.9765625 42.86328125 C6.71392084 44.42975112 6.45087912 45.99615395 6.1875 47.5625 C6.06117188 48.34818359 5.93484375 49.13386719 5.8046875 49.94335938 C5.67578125 50.70068359 5.546875 51.45800781 5.4140625 52.23828125 C5.24124756 53.28302612 5.24124756 53.28302612 5.06494141 54.34887695 C4.5625 56.25 4.5625 56.25 2.5625 59.25 C-0.5625 59.4375 -0.5625 59.4375 -3.4375 59.25 C-6.42737594 52.67227293 -6.60012026 45.8891986 -6.640625 38.7890625 C-6.64632507 37.99905853 -6.65202515 37.20905457 -6.65789795 36.39511108 C-6.66729208 34.73282182 -6.67385952 33.07051441 -6.67773438 31.40820312 C-6.68744608 28.88898773 -6.71852449 26.37058729 -6.75 23.8515625 C-6.80242549 15.78023824 -6.84571946 8.73775487 -3.4375 1.25 C-2.4375 0.25 -2.4375 0.25 0 0 Z M7.3125 13.25 C5.05522507 15.82974278 4.99802202 17.93939049 5.171875 21.3046875 C5.47782099 23.48396828 5.47782099 23.48396828 7.3125 25.8125 C9.41595473 27.44067954 9.41595473 27.44067954 11.6875 27.25 C14.22681061 25.89570101 14.6944731 24.99875187 15.5625 22.25 C15.94986197 16.91175195 15.94986197 16.91175195 13.5625 12.25 C9.76133862 11.97924102 9.76133862 11.97924102 7.3125 13.25 Z " fill="#FAFDFD" transform="translate(196.4375,76.75)"/>
<path d="M0 0 C4.75 0.75 4.75 0.75 7 3 C8.40156386 6.73529209 8.12659891 10.67735167 8.09765625 14.609375 C8.0962413 15.33618469 8.09482635 16.06299438 8.09336853 16.81182861 C8.08778792 19.12459494 8.07523904 21.43726312 8.0625 23.75 C8.05748249 25.32161318 8.05292002 26.89322789 8.04882812 28.46484375 C8.03782485 32.30993343 8.02057361 36.1549501 8 40 C8.75772705 39.67547852 9.5154541 39.35095703 10.29614258 39.01660156 C13.56072077 37.78917912 16.20788565 37.73412947 19.6875 37.75 C20.82574219 37.74484375 21.96398437 37.7396875 23.13671875 37.734375 C26 38 26 38 28 40 C28.5 42.3125 28.5 42.3125 28 45 C22.75002805 50.81753648 15.44972214 53.56989559 7.7265625 54.31640625 C-0.30657042 54.46228639 -0.30657042 54.46228639 -4 52 C-7.27737734 39.74926865 -6.50247464 26.43649205 -5.25 13.9375 C-5.18844727 13.23520264 -5.12689453 12.53290527 -5.06347656 11.80932617 C-4.48002119 6.77187901 -3.01000669 3.92157376 0 0 Z " fill="#FAFDFD" transform="translate(13,64)"/>
<path d="M0 0 C0 1.98 0 3.96 0 6 C1.65 4.35 3.3 2.7 5 1 C5.66 1.33 6.32 1.66 7 2 C7.33 1.34 7.66 0.68 8 0 C9.7492214 -0.08142927 11.49954542 -0.13938541 13.25 -0.1875 C14.22453125 -0.22230469 15.1990625 -0.25710937 16.203125 -0.29296875 C19.54404763 0.05698823 20.73112556 0.52532057 23 3 C25.42824073 8.96093933 25.4260374 15.06655165 25.625 21.4375 C25.68300781 22.96407227 25.68300781 22.96407227 25.7421875 24.52148438 C25.83580872 27.01414936 25.92153993 29.5068195 26 32 C27.32 32.33 28.64 32.66 30 33 C30 33.66 30 34.32 30 35 C24.72 35 19.44 35 14 35 C13.67 34.34 13.34 33.68 13 33 C14.98 32.505 14.98 32.505 17 32 C17.05797565 28.06256167 17.09358789 24.12523281 17.125 20.1875 C17.14175781 19.06794922 17.15851563 17.94839844 17.17578125 16.79492188 C17.18222656 15.72177734 17.18867188 14.64863281 17.1953125 13.54296875 C17.20578613 12.55321045 17.21625977 11.56345215 17.22705078 10.54370117 C17.18267404 7.7556048 17.18267404 7.7556048 15 5 C9.52463074 4.41988956 9.52463074 4.41988956 4.625 6.4375 C4.08875 6.953125 3.5525 7.46875 3 8 C2.01 8.495 2.01 8.495 1 9 C1 16.59 1 24.18 1 32 C2.32 32.33 3.64 32.66 5 33 C5 33.66 5 34.32 5 35 C-0.28 35 -5.56 35 -11 35 C-11 34.34 -11 33.68 -11 33 C-9.515 32.505 -9.515 32.505 -8 32 C-7.0035014 26.95269407 -6.75056718 22.06275976 -6.6875 16.9375 C-6.65849609 16.14794922 -6.62949219 15.35839844 -6.59960938 14.54492188 C-6.55439659 10.39577928 -6.66743605 8.50367035 -9.01953125 4.94140625 C-9.67308594 4.30074219 -10.32664063 3.66007812 -11 3 C-9.73581754 2.30034557 -8.46334598 1.61565237 -7.1875 0.9375 C-6.47980469 0.55464844 -5.77210938 0.17179687 -5.04296875 -0.22265625 C-3 -1 -3 -1 0 0 Z " fill="#F6FDFD" transform="translate(188,21)"/>
<path d="M0 0 C6.6 0 13.2 0 20 0 C19.67 0.66 19.34 1.32 19 2 C18.01 2.33 17.02 2.66 16 3 C16.53505138 8.00952251 17.64083153 12.00982937 19.72265625 16.58984375 C20.26083984 17.78544922 20.79902344 18.98105469 21.35351562 20.21289062 C21.92298296 21.45451613 22.49264684 22.69605152 23.0625 23.9375 C23.636886 25.20601 24.21046139 26.47488738 24.78320312 27.74414062 C26.18088241 30.8331293 27.58667579 33.91814597 29 37 C29 36.01 29 35.02 29 34 C29.97778878 32.97827151 30.98082345 31.98044845 32 31 C33.10001683 29.09468634 33.10001683 29.09468634 34.0078125 26.98046875 C34.52794922 25.81741211 34.52794922 25.81741211 35.05859375 24.63085938 C35.41050781 23.82455078 35.76242188 23.01824219 36.125 22.1875 C36.66447266 20.99543945 36.66447266 20.99543945 37.21484375 19.77929688 C40.61571043 12.47637726 40.61571043 12.47637726 40.3125 4.6875 C38.68894113 2.60006716 37.57547398 2.34339653 35 2 C35 1.34 35 0.68 35 0 C40.61 0 46.22 0 52 0 C52 0.66 52 1.32 52 2 C51.278125 2.33 50.55625 2.66 49.8125 3 C42.13601681 8.45883249 39.16570231 21.68546723 35.75 30.16601562 C33.21356349 36.36839553 30.41736221 42.23320127 27 48 C26.34 48 25.68 48 25 48 C24.78384033 47.47680176 24.56768066 46.95360352 24.3449707 46.41455078 C19.15986296 33.76765532 19.15986296 33.76765532 13.20703125 21.47265625 C11.09426779 17.144568 9.43390762 12.60170458 7.72265625 8.1015625 C5.69472568 4.45036778 3.55799619 3.08828149 0 1 C0 0.67 0 0.34 0 0 Z " fill="#F8FDFD" transform="translate(12,8)"/>
<path d="M0 0 C4.55365609 2.3065258 6.93204486 5.73953649 8.734375 10.34765625 C10.36829405 16.22976483 9.5805862 21.02311149 6.734375 26.34765625 C2.86296092 30.8293425 -1.56231112 33.93617693 -7.515625 34.59765625 C-13.63759906 34.89628913 -18.2397396 33.93425807 -23.265625 30.34765625 C-27.40257341 26.10463224 -28.09893138 23.34797967 -28.578125 17.59765625 C-28.50734438 12.85535504 -26.93107721 9.22938277 -24.265625 5.34765625 C-17.41127571 -1.16397558 -9.16707022 -2.63948401 0 0 Z M-16.265625 2.34765625 C-20.81143746 7.27228642 -21.62289898 11.20138458 -21.546875 17.7109375 C-20.9695451 23.12340533 -18.59270578 26.91297433 -14.953125 30.84765625 C-11.3666274 32.84942235 -9.3197492 32.98778112 -5.265625 32.34765625 C-1.79529546 30.31359285 0.43602648 28.2427018 1.734375 24.34765625 C2.47951311 16.89627514 1.75524259 10.75893654 -2.265625 4.34765625 C-6.41231785 0.06719912 -11.09429529 -0.5695041 -16.265625 2.34765625 Z " fill="#F5FCFD" transform="translate(165.265625,21.65234375)"/>
<path d="M0 0 C0.66 0 1.32 0 2 0 C2.99 4.95 3.98 9.9 5 15 C4.01 15 3.02 15 2 15 C1.79246094 14.46890625 1.58492187 13.9378125 1.37109375 13.390625 C-1.09283022 7.74112569 -3.21827082 5.29275468 -9 3 C-12.28055826 2.72539939 -12.28055826 2.72539939 -15 4 C-16.45291273 6.46255685 -16.45291273 6.46255685 -17 9 C-13.2797591 13.48896415 -8.88047331 14.52838242 -3.48828125 15.97851562 C1.14122185 17.35073361 3.45509272 18.88361247 6 23 C6.64493618 26.86961705 6.36435685 28.42743924 4.25 31.75 C0.91877699 35.08122301 -1.35232876 36.11664264 -6.0390625 36.16015625 C-7.56788958 36.1376735 -9.09659321 36.10481328 -10.625 36.0625 C-15.96977098 35.67995758 -15.96977098 35.67995758 -21 37 C-22.2982126 31.23918159 -23.25706972 25.91260345 -23 20 C-21 22 -21 22 -19.75 24.8125 C-17.28556428 29.30129364 -14.41114804 32.09581949 -9.5 33.9375 C-6.32894092 34.01677648 -3.93030051 33.1584909 -1 32 C-0.26665571 28.02245872 -0.26665571 28.02245872 0 24 C-0.68964844 23.82984375 -1.37929687 23.6596875 -2.08984375 23.484375 C-17.75326758 19.44497352 -17.75326758 19.44497352 -22.125 14.6875 C-23.34000322 10.9557044 -23.15868256 8.74867888 -22 5 C-17.38940271 1.06003504 -14.15738728 0.5605813 -8.1875 0.8125 C-5.78966901 0.90568585 -3.40001213 0.96744743 -1 1 C-0.67 0.67 -0.34 0.34 0 0 Z " fill="#F3FCFD" transform="translate(109,20)"/>
<path d="M0 0 C0.33 10.56 0.66 21.12 1 32 C2.32 32.33 3.64 32.66 5 33 C5 33.66 5 34.32 5 35 C-0.61 35 -6.22 35 -12 35 C-12 34.34 -12 33.68 -12 33 C-10.02 32.505 -10.02 32.505 -8 32 C-7.67 23.09 -7.34 14.18 -7 5 C-8.32 4.67 -9.64 4.34 -11 4 C-11 3.34 -11 2.68 -11 2 C-7.12315913 0.80712589 -4.08378077 0 0 0 Z " fill="#F7FDFD" transform="translate(130,21)"/>
<path d="M0 0 C0.33 10.56 0.66 21.12 1 32 C2.32 32.33 3.64 32.66 5 33 C5 33.66 5 34.32 5 35 C-0.61 35 -6.22 35 -12 35 C-12 34.34 -12 33.68 -12 33 C-10.02 32.505 -10.02 32.505 -8 32 C-7.67 23.09 -7.34 14.18 -7 5 C-8.32 4.67 -9.64 4.34 -11 4 C-11 3.34 -11 2.68 -11 2 C-7.12315913 0.80712589 -4.08378077 0 0 0 Z " fill="#F7FDFD" transform="translate(77,21)"/>
<path d="M0 0 C5.61 0 11.22 0 17 0 C17 0.66 17 1.32 17 2 C15.9171875 2.495 15.9171875 2.495 14.8125 3 C7.03443031 8.53107178 4.03101137 22.02058138 0.57421875 30.60546875 C0.15527344 31.63027344 -0.26367188 32.65507813 -0.6953125 33.7109375 C-1.2524292 35.09224854 -1.2524292 35.09224854 -1.82080078 36.50146484 C-2.97646449 38.95013201 -4.29737196 40.90375035 -6 43 C-6.83631305 39.65474779 -7.29947778 37.24869444 -6 34 C-5.53094238 33.54923096 -5.06188477 33.09846191 -4.57861328 32.6340332 C-2.84122223 30.83564806 -2.00995194 29.2566887 -0.9921875 26.98046875 C-0.64542969 26.20509766 -0.29867187 25.42972656 0.05859375 24.63085938 C0.41050781 23.82455078 0.76242188 23.01824219 1.125 22.1875 C1.48464844 21.39279297 1.84429687 20.59808594 2.21484375 19.77929688 C5.61571043 12.47637726 5.61571043 12.47637726 5.3125 4.6875 C3.68894113 2.60006716 2.57547398 2.34339653 0 2 C0 1.34 0 0.68 0 0 Z " fill="#EBFAFD" transform="translate(47,8)"/>
<path d="M0 0 C-0.50958919 3.159453 -1.36288158 5.96435136 -2.5 8.9375 C-4.64599893 15.1137896 -4.73257895 21.51734488 -5 28 C-5.99 28.33 -6.98 28.66 -8 29 C-8.99 28.34 -9.98 27.68 -11 27 C-10.855625 26.05125 -10.71125 25.1025 -10.5625 24.125 C-10.23329844 21.92735713 -9.98628741 19.77410316 -9.8515625 17.5546875 C-9.40872537 10.65908082 -7.87961164 6.43338311 -3.375 1.0625 C-2 0 -2 0 0 0 Z " fill="#F3FBFC" transform="translate(62,75)"/>
<path d="M0 0 C-0.60145582 3.28487411 -1.4191776 6.3439986 -2.5 9.5 C-4.38267112 15.57965014 -4.71236118 21.67194605 -5 28 C-8 27 -8 27 -9.1875 25.0625 C-11.03256869 18.10801032 -10.74021266 11.98728742 -7.1484375 5.6953125 C-3.29032258 0 -3.29032258 0 0 0 Z " fill="#F4FAFD" transform="translate(137,75)"/>
<path d="M0 0 C1.67542976 0.28604898 3.34385343 0.61781233 5 1 C5.33 2.65 5.66 4.3 6 6 C3.6875 7.125 3.6875 7.125 1 8 C0.01 7.34 -0.98 6.68 -2 6 C-1.125 1.125 -1.125 1.125 0 0 Z " fill="#F3FCFD" transform="translate(124,8)"/>
<path d="M0 0 C1.67542976 0.28604898 3.34385343 0.61781233 5 1 C5.33 2.65 5.66 4.3 6 6 C3.6875 7.125 3.6875 7.125 1 8 C0.01 7.34 -0.98 6.68 -2 6 C-1.125 1.125 -1.125 1.125 0 0 Z " fill="#F3FCFD" transform="translate(71,8)"/>
<path d="M0 0 C5.61 0 11.22 0 17 0 C17 0.66 17 1.32 17 2 C15.35 2.66 13.7 3.32 12 4 C11.67 3.34 11.34 2.68 11 2 C9.68 2 8.36 2 7 2 C6.34 2.66 5.68 3.32 5 4 C2.525 3.01 2.525 3.01 0 2 C0 1.34 0 0.68 0 0 Z " fill="#E5F7FE" transform="translate(47,8)"/>
<path d="M0 0 C6.6 0 13.2 0 20 0 C19.67 0.66 19.34 1.32 19 2 C16.4375 2.625 16.4375 2.625 14 3 C14 2.34 14 1.68 14 1 C11.03 1 8.06 1 5 1 C4.67 1.66 4.34 2.32 4 3 C2.68 2.34 1.36 1.68 0 1 C0 0.67 0 0.34 0 0 Z " fill="#E4F7FD" transform="translate(12,8)"/>
<path d="M0 0 C1.32 0.99 2.64 1.98 4 3 C1.31158141 5.25245881 -0.64641875 6.88213958 -4 8 C-4.33 7.34 -4.66 6.68 -5 6 C-4.34 6 -3.68 6 -3 6 C-2.87625 5.38125 -2.7525 4.7625 -2.625 4.125 C-2 2 -2 2 0 0 Z " fill="#E7F6FE" transform="translate(192,22)"/>
<path d="M0 0 C2.50037734 2.17424117 3.43628586 3.73045798 4 7 C3.01 7.33 2.02 7.66 1 8 C0.01 7.34 -0.98 6.68 -2 6 C-1.34 4.02 -0.68 2.04 0 0 Z " fill="#E3F6FB" transform="translate(53,96)"/>
<path d="M0 0 C1.81325551 0.11351517 3.62563357 0.24112961 5.4375 0.375 C6.95150391 0.47941406 6.95150391 0.47941406 8.49609375 0.5859375 C9.73552734 0.79089844 9.73552734 0.79089844 11 1 C11.33 1.66 11.66 2.32 12 3 C8.37 3 4.74 3 1 3 C0.67 2.01 0.34 1.02 0 0 Z " fill="#E5FAFE" transform="translate(95,53)"/>
<path d="" fill="#000000" transform="translate(0,0)"/>
<path d="" fill="#000000" transform="translate(0,0)"/>
<path d="" fill="#000000" transform="translate(0,0)"/>
<path d="" fill="#000000" transform="translate(0,0)"/>
<path d="" fill="#000000" transform="translate(0,0)"/>
</svg>
