<?xml version="1.0" encoding="UTF-8"?>
<svg version="1.1" xmlns="http://www.w3.org/2000/svg" width="226" height="137">
<path d="M0 0 C3.85961034 2.80084564 7.50224336 5.88604789 10 10 C10 10.66 10 11.32 10 12 C10.5259375 11.83628906 11.051875 11.67257813 11.59375 11.50390625 C14.60889089 10.87248876 17.42089342 10.90572023 20.5 10.9375 C22.18609375 10.95103516 22.18609375 10.95103516 23.90625 10.96484375 C25.43765625 10.98224609 25.43765625 10.98224609 27 11 C28.32 11 29.64 11 31 11 C33.11560519 8.95725779 33.11560519 8.95725779 35.125 6.3125 C40.86961254 -0.31445499 46.64151391 -3.78283312 55.375 -5 C64.14048363 -5.40913856 72.47089609 -3.4417351 79.25390625 2.26953125 C86.42217668 9.37365608 90.09236034 16.3095789 90.375 26.4375 C90.08566401 36.47167225 87.20814084 43.84741323 80 51 C77.13608513 53.04707655 74.21618541 54.58249606 71 56 C70.071875 56.433125 69.14375 56.86625 68.1875 57.3125 C58.02388959 59.50465127 48.59067961 58.10061348 39.74609375 52.59765625 C33.86917657 48.03663324 30.18100283 42.07614253 28 35 C27.37357993 29.94442157 27.71673159 25.09883134 28 20 C23.38 20 18.76 20 14 20 C14.0825 21.93875 14.165 23.8775 14.25 25.875 C14.21887277 35.43105892 11.48649037 42.29202306 4.92578125 49.24609375 C-2.4087798 55.92604895 -9.96458029 58.51662284 -19.83984375 58.30859375 C-28.6588618 57.4474041 -36.33634131 53.88789933 -42 47 C-47.62808895 38.28752169 -49.95598893 30.26178835 -48.4375 20 C-46.46820896 11.70550264 -42.15491067 4.96706669 -35.08203125 0.1796875 C-23.81121967 -6.20640086 -11.23186147 -6.71792469 0 0 Z M-38 8 C-43.38961514 15.4165791 -45.96481168 21.8272976 -45 31 C-42.96002478 40.14740479 -38.70304218 46.18717066 -30.9375 51.37890625 C-24.00936207 55.03400843 -15.87349115 55.35818606 -8.37890625 53.26953125 C-0.10086071 49.84942812 5.37750004 44.50724991 9.25 36.375 C11.18363768 27.67363043 10.81425382 19.62611889 6 12 C1.30828498 5.33657689 -3.75605369 1.53481355 -11.5625 -0.75 C-21.80417167 -1.80042786 -30.63468751 0.55732078 -38 8 Z M38.5 7.15625 C33.06320192 13.83898098 30.44918244 21.46232777 31 30 C32.318791 38.62286424 36.50029347 44.31016106 43 50 C49.63422862 54.71443352 57.10318084 54.96015915 65 54 C72.66591817 51.93877125 79.2906772 47.21148297 83.375 40.375 C86.74018888 33.38576156 87.12753034 25.80219248 85.3515625 18.23828125 C82.60818179 10.58260773 78.05591797 5.41869251 70.875 1.625 C59.87343698 -3.31620105 47.34518021 -1.17863135 38.5 7.15625 Z " fill="#010101" transform="translate(92,64)"/>
<path d="M0 0 C4.875 1.75 4.875 1.75 6 4 C6.61875 3.505 7.2375 3.01 7.875 2.5 C12.28384301 0.38375535 16.19756847 0.04582231 21 1 C24.92428296 4.2034963 26.13131444 6.33374216 26.6875 11.3125 C26.790625 12.529375 26.89375 13.74625 27 15 C27.66 15.33 28.32 15.66 29 16 C26.33973823 34.01624431 26.33973823 34.01624431 21 39 C16.90378113 40.9888666 14.13895728 41.34045662 9.74609375 40.02734375 C8.83988281 39.68832031 7.93367187 39.34929687 7 39 C7.03480469 40.01320312 7.06960937 41.02640625 7.10546875 42.0703125 C7.13362595 43.4218583 7.16092403 44.77342219 7.1875 46.125 C7.22520508 47.12273437 7.22520508 47.12273437 7.26367188 48.140625 C7.33320714 52.86902292 6.40278375 55.95121479 4 60 C1.6875 60.3125 1.6875 60.3125 -1 60 C-5.84784524 54.45960544 -5.15680086 45.86429243 -5.16796875 38.87890625 C-5.17296135 37.76261086 -5.17296135 37.76261086 -5.17805481 36.62376404 C-5.18308041 35.06160086 -5.1854645 33.49942711 -5.18530273 31.93725586 C-5.18749128 29.57192027 -5.20569913 27.20705043 -5.22460938 24.84179688 C-5.30022825 5.52079319 -5.30022825 5.52079319 -1.42651367 1.27563477 C-0.95576416 0.85467529 -0.48501465 0.43371582 0 0 Z M8.75 13.9375 C6.28617807 16.84129014 6.43981507 19.18023052 6.609375 22.8984375 C6.85736715 25.17607298 6.85736715 25.17607298 8.75 27.125 C10.92804315 28.14025085 10.92804315 28.14025085 13.125 27.9375 C15.09259451 27.12412208 15.09259451 27.12412208 16.25 25.375 C17.27344414 22.13409355 17.24563314 19.37745573 17 16 C16.34 15.01 15.68 14.02 15 13 C11.20913462 12.74358974 11.20913462 12.74358974 8.75 13.9375 Z " fill="#000000" transform="translate(193,73)"/>
<path d="M0 0 C3.25696479 0.41755959 4.63443291 0.63443291 7 3 C8.40156386 6.73529209 8.12659891 10.67735167 8.09765625 14.609375 C8.0962413 15.33618469 8.09482635 16.06299438 8.09336853 16.81182861 C8.08778792 19.12459494 8.07523904 21.43726312 8.0625 23.75 C8.05748249 25.32161318 8.05292002 26.89322789 8.04882812 28.46484375 C8.03782485 32.30993343 8.02057361 36.1549501 8 40 C8.92522461 39.67547852 9.85044922 39.35095703 10.80371094 39.01660156 C14.13379896 37.95744433 16.76863114 37.73250568 20.25 37.75 C21.28640625 37.74484375 22.3228125 37.7396875 23.390625 37.734375 C26 38 26 38 28 40 C28.5 42.3125 28.5 42.3125 28 45 C22.59570049 51.33075086 14.07797187 53.39707458 6.0390625 54.3515625 C-0.17211538 54.55192308 -0.17211538 54.55192308 -2.69921875 52.8671875 C-9.66883726 42.86275012 -6.28618813 22.60420925 -4.640625 11.30859375 C-3.86839532 7.32031 -2.98098928 2.98098928 0 0 Z " fill="#000000" transform="translate(11,61)"/>
<path d="M0 0 C0.53625 0.226875 1.0725 0.45375 1.625 0.6875 C1.955 2.3375 2.285 3.9875 2.625 5.6875 C3.15867188 5.254375 3.69234375 4.82125 4.2421875 4.375 C9.31302954 0.5850281 13.05721319 -1.21423363 19.45703125 -0.7578125 C21.625 -0.3125 21.625 -0.3125 24.125 1.1875 C27.9429901 7.55081684 27.99809853 14.96632451 28.25 22.1875 C28.30800781 23.56421875 28.30800781 23.56421875 28.3671875 24.96875 C28.46049564 27.20814528 28.54628185 29.44755254 28.625 31.6875 C29.945 32.0175 31.265 32.3475 32.625 32.6875 C32.625 33.3475 32.625 34.0075 32.625 34.6875 C27.015 34.6875 21.405 34.6875 15.625 34.6875 C15.625 34.0275 15.625 33.3675 15.625 32.6875 C17.605 32.1925 17.605 32.1925 19.625 31.6875 C19.68297565 27.75006167 19.71858789 23.81273281 19.75 19.875 C19.76675781 18.75544922 19.78351563 17.63589844 19.80078125 16.48242188 C19.80722656 15.40927734 19.81367188 14.33613281 19.8203125 13.23046875 C19.83078613 12.24071045 19.84125977 11.25095215 19.85205078 10.23120117 C19.80767404 7.4431048 19.80767404 7.4431048 17.625 4.6875 C12.98967757 4.14671238 10.7348422 4.24490028 6.3828125 5.98046875 C3.18871797 9.11574851 3.19608399 9.81590787 3.0390625 14.109375 C3.07887705 16.21954597 3.15034 18.32930774 3.25 20.4375 C3.27707031 21.51644531 3.30414063 22.59539063 3.33203125 23.70703125 C3.40270858 26.36921065 3.50131599 29.02734236 3.625 31.6875 C4.945 32.0175 6.265 32.3475 7.625 32.6875 C7.625 33.3475 7.625 34.0075 7.625 34.6875 C2.345 34.6875 -2.935 34.6875 -8.375 34.6875 C-8.375 34.0275 -8.375 33.3675 -8.375 32.6875 C-7.055 32.0275 -5.735 31.3675 -4.375 30.6875 C-4.2585138 26.95859745 -4.18765424 23.23016486 -4.125 19.5 C-4.09148437 18.44490234 -4.05796875 17.38980469 -4.0234375 16.30273438 C-3.88538251 10.05060276 -3.88538251 10.05060276 -6.390625 4.44921875 C-7.04546875 3.86785156 -7.7003125 3.28648438 -8.375 2.6875 C-2.95961538 -0.38942308 -2.95961538 -0.38942308 0 0 Z " fill="#010101" transform="translate(183.375,18.3125)"/>
<path d="M0 0 C6.6 0 13.2 0 20 0 C20 0.66 20 1.32 20 2 C18.68 2.33 17.36 2.66 16 3 C16.40789142 10.23745801 19.56372194 16.24328805 22.5625 22.75 C23.58958454 24.99253156 24.61195903 27.23722819 25.62890625 29.484375 C26.3106189 30.96502441 26.3106189 30.96502441 27.00610352 32.47558594 C28 35 28 35 28 38 C28.66 38 29.32 38 30 38 C30.16653076 37.46850342 30.33306152 36.93700684 30.50463867 36.3894043 C31.86770712 32.15898633 33.35839507 28.0417483 35.11328125 23.95703125 C35.47357422 23.11076172 35.83386719 22.26449219 36.20507812 21.39257812 C36.95066379 19.65550817 37.70875068 17.92375685 38.47851562 16.19726562 C40.67108201 10.99921309 40.67108201 10.99921309 40.36328125 5.44140625 C39.24420261 2.84303335 39.24420261 2.84303335 36.875 2.125 C36.25625 2.08375 35.6375 2.0425 35 2 C35 1.34 35 0.68 35 0 C40.94 0 46.88 0 53 0 C52 2 52 2 49.69921875 3.109375 C45.86078842 5.7979427 44.66755704 9.03521077 42.8125 13.25 C42.43810791 14.06960205 42.06371582 14.8892041 41.67797852 15.73364258 C40.43189116 18.48057636 39.21307267 21.23833379 38 24 C37.54270508 25.03753418 37.08541016 26.07506836 36.61425781 27.14404297 C33.71015662 33.7487246 30.8405945 40.36777101 28 47 C27.01 47 26.02 47 25 47 C24.64284912 46.19481934 24.28569824 45.38963867 23.91772461 44.56005859 C22.55784095 41.49851288 21.1950065 38.43831351 19.83032227 35.37890625 C19.24650082 34.0685408 18.66377271 32.75768754 18.08227539 31.44628906 C16.37662061 27.60081283 14.65039572 23.76574638 12.89276123 19.94372559 C12.28828109 18.62764747 11.68801734 17.30962596 11.09161377 15.98986816 C10.20471235 14.0393146 9.29521071 12.10094703 8.37890625 10.1640625 C7.84982666 9.02662598 7.32074707 7.88918945 6.77563477 6.71728516 C4.76988951 3.64785787 3.48595013 2.93627973 0 2 C0 1.34 0 0.68 0 0 Z " fill="#010101" transform="translate(10,5)"/>
<path d="M0 0 C4.38204503 2.53311525 7.0083993 5.13479294 8.4765625 10.08984375 C9.12795355 16.32458669 9.23940058 21.82187043 5.4765625 27.08984375 C0.44323016 31.90433555 -3.42378384 34.13770365 -10.3359375 34.46484375 C-15.46524579 34.34253536 -19.40734172 33.19830407 -23.5234375 30.08984375 C-27.31765276 25.32275278 -28.89510433 21.41829217 -28.8046875 15.28125 C-28.14541648 10.14442997 -25.72598921 6.23226788 -22.0234375 2.71484375 C-15.29547565 -1.65833145 -7.76118521 -2.79931293 0 0 Z M-17.5234375 3.08984375 C-21.3197915 7.27892402 -21.82312947 11.22128736 -21.734375 16.6796875 C-21.2694665 21.99169756 -19.67916449 26.37209293 -15.7734375 30.08984375 C-11.8621594 32.49678412 -10.03597846 32.89565464 -5.5234375 32.08984375 C-2.05641981 30.04539161 0.17646931 27.99012331 1.4765625 24.08984375 C2.15094356 16.6274304 2.00723468 10.28643319 -2.5234375 4.08984375 C-7.43466643 -0.82138518 -11.83791301 -0.49450864 -17.5234375 3.08984375 Z " fill="#010101" transform="translate(163.5234375,18.91015625)"/>
<path d="M0 0 C0.66 0 1.32 0 2 0 C2.66 5.28 3.32 10.56 4 16 C1.45354781 14.7267739 1.37349018 13.77516383 0.3125 11.1875 C-1.96509853 6.47989858 -4.14429084 4.92553984 -9 3 C-12.28055826 2.72539939 -12.28055826 2.72539939 -15 4 C-16.45291273 6.46255685 -16.45291273 6.46255685 -17 9 C-13.84821365 12.69891797 -11.22573836 13.79240995 -6.5625 15 C-1.77473186 16.24271154 1.35323602 17.61135543 5 21 C6.45147903 23.90295805 6.37239025 25.77261779 6 29 C3.94696376 32.43229611 1.87134276 34.70955241 -2 36 C-4.86187545 36.04538157 -7.70229928 36.04747221 -10.5625 36 C-15.93989951 35.65485376 -15.93989951 35.65485376 -21 37 C-22.2982126 31.23918159 -23.25706972 25.91260345 -23 20 C-21 22 -21 22 -19.75 24.8125 C-17.28556428 29.30129364 -14.41114804 32.09581949 -9.5 33.9375 C-6.32894092 34.01677648 -3.93030051 33.1584909 -1 32 C-0.26665571 28.02245872 -0.26665571 28.02245872 0 24 C-0.68964844 23.82984375 -1.37929687 23.6596875 -2.08984375 23.484375 C-17.75326758 19.44497352 -17.75326758 19.44497352 -22.125 14.6875 C-23.32809494 10.99227982 -23.08307426 8.72306775 -22 5 C-19.01504434 1.78718513 -17.46474001 1.04178986 -13.046875 0.64453125 C-11.61393058 0.68009145 -10.18137228 0.73655489 -8.75 0.8125 C-6.16479116 0.90580419 -3.58724805 0.96751173 -1 1 C-0.67 0.67 -0.34 0.34 0 0 Z " fill="#010101" transform="translate(107,17)"/>
<path d="M0 0 C0.33 10.56 0.66 21.12 1 32 C2.32 32.33 3.64 32.66 5 33 C5 33.66 5 34.32 5 35 C-0.61 35 -6.22 35 -12 35 C-12 34.34 -12 33.68 -12 33 C-10.02 32.505 -10.02 32.505 -8 32 C-7.20293232 28.50007304 -6.88136973 25.2857769 -6.90234375 21.69921875 C-6.90556641 20.72275391 -6.90878906 19.74628906 -6.91210938 18.74023438 C-6.92048828 17.73283203 -6.92886719 16.72542969 -6.9375 15.6875 C-6.94201172 14.66076172 -6.94652344 13.63402344 -6.95117188 12.57617188 C-6.96291816 10.05072118 -6.97934435 7.52539095 -7 5 C-8.32 4.67 -9.64 4.34 -11 4 C-11 3.34 -11 2.68 -11 2 C-7.12315913 0.80712589 -4.08378077 0 0 0 Z " fill="#000000" transform="translate(75,18)"/>
<path d="M0 0 C0.33 10.56 0.66 21.12 1 32 C2.32 32.33 3.64 32.66 5 33 C5 33.66 5 34.32 5 35 C-0.61 35 -6.22 35 -12 35 C-12 34.34 -12 33.68 -12 33 C-10.02 32.505 -10.02 32.505 -8 32 C-7.04623433 28.79217914 -6.88378819 25.91812604 -6.90234375 22.578125 C-6.90556641 21.55332031 -6.90878906 20.52851562 -6.91210938 19.47265625 C-6.92048828 18.40917969 -6.92886719 17.34570312 -6.9375 16.25 C-6.94426758 14.63158203 -6.94426758 14.63158203 -6.95117188 12.98046875 C-6.96294273 10.32025617 -6.97938601 7.66015635 -7 5 C-8.32 4.67 -9.64 4.34 -11 4 C-11 3.34 -11 2.68 -11 2 C-7.12315913 0.80712589 -4.08378077 0 0 0 Z " fill="#010101" transform="translate(128,18)"/>
<path d="M0 0 C-0.50958919 3.159453 -1.36288158 5.96435136 -2.5 8.9375 C-4.64599893 15.1137896 -4.73257895 21.51734488 -5 28 C-5.99 27.67 -6.98 27.34 -8 27 C-10.42715232 21.29619206 -10.35251637 16.01869786 -9 10 C-7.37492245 6.04810687 -4.78707892 0 0 0 Z " fill="#010101" transform="translate(135,72)"/>
<path d="M0 0 C-0.50958919 3.159453 -1.36288158 5.96435136 -2.5 8.9375 C-4.64599893 15.1137896 -4.73257895 21.51734488 -5 28 C-5.99 27.67 -6.98 27.34 -8 27 C-10.42715232 21.29619206 -10.35251637 16.01869786 -9 10 C-7.37492245 6.04810687 -4.78707892 0 0 0 Z " fill="#010101" transform="translate(60,72)"/>
<path d="M0 0 C2.625 0.375 2.625 0.375 5 1 C5.625 3.375 5.625 3.375 6 6 C5.34 6.66 4.68 7.32 4 8 C1.375 7.625 1.375 7.625 -1 7 C-1.625 4.625 -1.625 4.625 -2 2 C-1.34 1.34 -0.68 0.68 0 0 Z " fill="#010101" transform="translate(122,5)"/>
<path d="M0 0 C2.625 0.375 2.625 0.375 5 1 C5.625 3.375 5.625 3.375 6 6 C5.34 6.66 4.68 7.32 4 8 C1.375 7.625 1.375 7.625 -1 7 C-1.625 4.625 -1.625 4.625 -2 2 C-1.34 1.34 -0.68 0.68 0 0 Z " fill="#010101" transform="translate(69,5)"/>
<path d="" fill="#FFFFFF" transform="translate(0,0)"/>
<path d="" fill="#FFFFFF" transform="translate(0,0)"/>
<path d="" fill="#FFFFFF" transform="translate(0,0)"/>
<path d="" fill="#FFFFFF" transform="translate(0,0)"/>
<path d="" fill="#FFFFFF" transform="translate(0,0)"/>
<path d="" fill="#FFFFFF" transform="translate(0,0)"/>
<path d="" fill="#FFFFFF" transform="translate(0,0)"/>
<path d="" fill="#FFFFFF" transform="translate(0,0)"/>
<path d="" fill="#FFFFFF" transform="translate(0,0)"/>
<path d="" fill="#FFFFFF" transform="translate(0,0)"/>
<path d="" fill="#FFFFFF" transform="translate(0,0)"/>
</svg>
